Jonova-Bold.ufo
<glyph name="exclam" format="2">
  <advance width="736"/>
  <unicode hex="0021"/>
  <outline>
    <contour>
      <point x="397" y="375" type="line"/>
      <point x="297" y="1434" type="line"/>
      <point x="327" y="1464" type="line"/>
      <point x="619" y="1464" type="line"/>
      <point x="649" y="1434" type="line"/>
      <point x="549" y="375" type="line"/>
    </contour>
    <contour>
      <point x="619" y="116" type="qcurve"/>
      <point x="619" y="86"/>
      <point x="596" y="32"/>
      <point x="557" y="-7"/>
      <point x="503" y="-30"/>
      <point x="473" y="-30" type="qcurve"/>
      <point x="443" y="-30"/>
      <point x="389" y="-7"/>
      <point x="350" y="32"/>
      <point x="327" y="86"/>
      <point x="327" y="116" type="qcurve"/>
      <point x="327" y="146"/>
      <point x="350" y="200"/>
      <point x="389" y="239"/>
      <point x="443" y="262"/>
      <point x="473" y="262" type="qcurve"/>
      <point x="503" y="262"/>
      <point x="557" y="239"/>
      <point x="596" y="200"/>
      <point x="619" y="146"/>
    </contour>
  </outline>
</glyph>
<glyph name="quotedbl" format="2">
  <advance width="736"/>
  <unicode hex="0022"/>
  <outline>
    <contour>
      <point x="105" y="901" type="line"/>
      <point x="65" y="1434" type="line"/>
      <point x="95" y="1464" type="line"/>
      <point x="257" y="1464" type="line"/>
      <point x="287" y="1434" type="line"/>
      <point x="247" y="901" type="line"/>
    </contour>
    <contour>
      <point x="489" y="901" type="line"/>
      <point x="449" y="1434" type="line"/>
      <point x="479" y="1464" type="line"/>
      <point x="641" y="1464" type="line"/>
      <point x="671" y="1434" type="line"/>
      <point x="631" y="901" type="line"/>
    </contour>
  </outline>
</glyph>
<glyph name="numbersign" format="2">
  <advance width="1120"/>
  <unicode hex="0023"/>
  <outline>
    <contour>
      <point x="137" y="1004" type="line"/>
      <point x="332" y="1004" type="line"/>
      <point x="413" y="1464" type="line"/>
      <point x="557" y="1434" type="line"/>
      <point x="481" y="1004" type="line"/>
      <point x="735" y="1004" type="line"/>
      <point x="815" y="1464" type="line"/>
      <point x="964" y="1434" type="line"/>
      <point x="889" y="1004" type="line"/>
      <point x="1083" y="1004" type="line"/>
      <point x="1056" y="852" type="line"/>
      <point x="861" y="852" type="line"/>
      <point x="814" y="583" type="line"/>
      <point x="1008" y="583" type="line"/>
      <point x="982" y="431" type="line"/>
      <point x="787" y="431" type="line"/>
      <point x="706" y="-30" type="line"/>
      <point x="557" y="0" type="line"/>
      <point x="634" y="431" type="line"/>
      <point x="380" y="431" type="line"/>
      <point x="299" y="-30" type="line"/>
      <point x="154" y="0" type="line"/>
      <point x="231" y="431" type="line"/>
      <point x="37" y="431" type="line"/>
      <point x="65" y="583" type="line"/>
      <point x="256" y="583" type="line"/>
      <point x="305" y="852" type="line"/>
      <point x="110" y="852" type="line"/>
    </contour>
    <contour>
      <point x="407" y="583" type="line"/>
      <point x="660" y="583" type="line"/>
      <point x="708" y="852" type="line"/>
      <point x="455" y="852" type="line"/>
    </contour>
  </outline>
</glyph>
<glyph name="dollar" format="2">
  <advance width="1120"/>
  <unicode hex="0024"/>
  <outline>
    <contour>
      <point x="954" y="1312" type="qcurve"/>
      <point x="839" y="1200" type="line"/>
      <point x="824" y="1223"/>
      <point x="783" y="1269"/>
      <point x="729" y="1308"/>
      <point x="659" y="1338"/>
      <point x="615" y="1346" type="qcurve"/>
      <point x="615" y="861" type="line"/>
      <point x="696" y="818"/>
      <point x="845" y="723"/>
      <point x="958" y="609"/>
      <point x="1025" y="469"/>
      <point x="1025" y="382" type="qcurve"/>
      <point x="1025" y="305"/>
      <point x="967" y="166"/>
      <point x="860" y="56"/>
      <point x="709" y="-18"/>
      <point x="615" y="-30" type="qcurve"/>
      <point x="615" y="-142" type="line"/>
      <point x="473" y="-165" type="line"/>
      <point x="473" y="-30" type="line"/>
      <point x="378" y="-24"/>
      <point x="195" y="43"/>
      <point x="95" y="121" type="qcurve"/>
      <point x="208" y="233" type="line"/>
      <point x="273" y="162"/>
      <point x="399" y="91"/>
      <point x="473" y="83" type="qcurve"/>
      <point x="473" y="662" type="line"/>
      <point x="389" y="702"/>
      <point x="250" y="790"/>
      <point x="150" y="895"/>
      <point x="95" y="1022"/>
      <point x="95" y="1101" type="qcurve"/>
      <point x="95" y="1171"/>
      <point x="152" y="1295"/>
      <point x="252" y="1392"/>
      <point x="391" y="1455"/>
      <point x="473" y="1464" type="qcurve"/>
      <point x="473" y="1576" type="line"/>
      <point x="615" y="1600" type="line"/>
      <point x="615" y="1464" type="line"/>
      <point x="678" y="1459"/>
      <point x="773" y="1432"/>
      <point x="852" y="1392"/>
      <point x="919" y="1341"/>
    </contour>
    <contour>
      <point x="783" y="306" type="qcurve"/>
      <point x="783" y="393"/>
      <point x="707" y="533"/>
      <point x="615" y="588" type="qcurve"/>
      <point x="615" y="82" type="line"/>
      <point x="653" y="93"/>
      <point x="715" y="136"/>
      <point x="759" y="195"/>
      <point x="783" y="267"/>
    </contour>
    <contour>
      <point x="337" y="1149" type="qcurve"/>
      <point x="337" y="1119"/>
      <point x="351" y="1059"/>
      <point x="382" y="1004"/>
      <point x="434" y="956"/>
      <point x="473" y="937" type="qcurve"/>
      <point x="473" y="1346" type="line"/>
      <point x="416" y="1329"/>
      <point x="337" y="1230"/>
    </contour>
  </outline>
</glyph>
<glyph name="percent" format="2">
  <advance width="1600"/>
  <unicode hex="0025"/>
  <outline>
    <contour>
      <point x="393" y="1342" type="qcurve"/>
      <point x="370" y="1342"/>
      <point x="324" y="1313"/>
      <point x="287" y="1250"/>
      <point x="264" y="1153"/>
      <point x="264" y="1084" type="qcurve"/>
      <point x="264" y="1015"/>
      <point x="284" y="917"/>
      <point x="319" y="855"/>
      <point x="366" y="826"/>
      <point x="393" y="826" type="qcurve"/>
      <point x="420" y="826"/>
      <point x="467" y="855"/>
      <point x="502" y="917"/>
      <point x="522" y="1015"/>
      <point x="522" y="1084" type="qcurve"/>
      <point x="522" y="1153"/>
      <point x="499" y="1250"/>
      <point x="462" y="1313"/>
      <point x="416" y="1342"/>
    </contour>
    <contour>
      <point x="1206" y="608" type="qcurve"/>
      <point x="1187" y="608"/>
      <point x="1142" y="579"/>
      <point x="1104" y="516"/>
      <point x="1078" y="419"/>
      <point x="1078" y="350" type="qcurve"/>
      <point x="1078" y="281"/>
      <point x="1104" y="183"/>
      <point x="1142" y="121"/>
      <point x="1187" y="92"/>
      <point x="1206" y="92" type="qcurve"/>
      <point x="1225" y="92"/>
      <point x="1271" y="121"/>
      <point x="1310" y="183"/>
      <point x="1336" y="281"/>
      <point x="1336" y="350" type="qcurve"/>
      <point x="1336" y="419"/>
      <point x="1310" y="516"/>
      <point x="1271" y="579"/>
      <point x="1225" y="608"/>
    </contour>
    <contour>
      <point x="1384" y="1434" type="line"/>
      <point x="359" y="-30" type="line"/>
      <point x="216" y="0" type="line"/>
      <point x="1241" y="1464" type="line"/>
    </contour>
    <contour>
      <point x="1206" y="730" type="qcurve"/>
      <point x="1270" y="730"/>
      <point x="1384" y="684"/>
      <point x="1469" y="590"/>
      <point x="1518" y="447"/>
      <point x="1518" y="350" type="qcurve"/>
      <point x="1518" y="253"/>
      <point x="1469" y="110"/>
      <point x="1384" y="16"/>
      <point x="1270" y="-30"/>
      <point x="1206" y="-30" type="qcurve"/>
      <point x="1143" y="-30"/>
      <point x="1030" y="16"/>
      <point x="945" y="110"/>
      <point x="896" y="253"/>
      <point x="896" y="350" type="qcurve"/>
      <point x="896" y="447"/>
      <point x="945" y="590"/>
      <point x="1030" y="684"/>
      <point x="1143" y="730"/>
    </contour>
    <contour>
      <point x="393" y="1464" type="qcurve"/>
      <point x="457" y="1464"/>
      <point x="570" y="1418"/>
      <point x="655" y="1324"/>
      <point x="704" y="1181"/>
      <point x="704" y="1084" type="qcurve"/>
      <point x="704" y="987"/>
      <point x="655" y="844"/>
      <point x="570" y="750"/>
      <point x="457" y="704"/>
      <point x="393" y="704" type="qcurve"/>
      <point x="329" y="704"/>
      <point x="216" y="750"/>
      <point x="131" y="844"/>
      <point x="82" y="987"/>
      <point x="82" y="1084" type="qcurve"/>
      <point x="82" y="1181"/>
      <point x="131" y="1324"/>
      <point x="216" y="1418"/>
      <point x="329" y="1464"/>
    </contour>
  </outline>
</glyph>
<glyph name="ampersand" format="2">
  <advance width="1248"/>
  <unicode hex="0026"/>
  <outline>
    <contour>
      <point x="523" y="1206" type="qcurve"/>
      <point x="523" y="1183"/>
      <point x="552" y="1115"/>
      <point x="592" y="1047"/>
      <point x="632" y="988"/>
      <point x="643" y="974" type="qcurve"/>
      <point x="677" y="995"/>
      <point x="730" y="1035"/>
      <point x="766" y="1082"/>
      <point x="784" y="1139"/>
      <point x="784" y="1177" type="qcurve"/>
      <point x="784" y="1218"/>
      <point x="754" y="1273"/>
      <point x="710" y="1307"/>
      <point x="660" y="1322"/>
      <point x="641" y="1322" type="qcurve"/>
      <point x="618" y="1322"/>
      <point x="576" y="1307"/>
      <point x="543" y="1277"/>
      <point x="523" y="1234"/>
    </contour>
    <contour>
      <point x="490" y="709" type="line"/>
      <point x="447" y="683"/>
      <point x="385" y="604"/>
      <point x="345" y="512"/>
      <point x="326" y="416"/>
      <point x="326" y="374" type="qcurve"/>
      <point x="326" y="293"/>
      <point x="373" y="181"/>
      <point x="442" y="112"/>
      <point x="522" y="82"/>
      <point x="555" y="82" type="qcurve"/>
      <point x="591" y="82"/>
      <point x="660" y="98"/>
      <point x="722" y="123"/>
      <point x="776" y="156"/>
      <point x="796" y="174" type="qcurve"/>
    </contour>
    <contour>
      <point x="915" y="-30" type="line"/>
      <point x="854" y="74" type="line"/>
      <point x="822" y="52"/>
      <point x="752" y="14"/>
      <point x="673" y="-14"/>
      <point x="583" y="-30"/>
      <point x="532" y="-30" type="qcurve"/>
      <point x="426" y="-30"/>
      <point x="256" y="29"/>
      <point x="138" y="138"/>
      <point x="74" y="291"/>
      <point x="74" y="384" type="qcurve"/>
      <point x="74" y="454"/>
      <point x="126" y="586"/>
      <point x="216" y="706"/>
      <point x="338" y="811"/>
      <point x="408" y="855" type="qcurve"/>
      <point x="392" y="881"/>
      <point x="354" y="946"/>
      <point x="321" y="1021"/>
      <point x="299" y="1105"/>
      <point x="299" y="1149" type="qcurve"/>
      <point x="299" y="1200"/>
      <point x="344" y="1301"/>
      <point x="431" y="1383"/>
      <point x="560" y="1434"/>
      <point x="643" y="1434" type="qcurve"/>
      <point x="723" y="1434"/>
      <point x="844" y="1388"/>
      <point x="925" y="1313"/>
      <point x="966" y="1219"/>
      <point x="966" y="1172" type="qcurve"/>
      <point x="966" y="1116"/>
      <point x="923" y="1019"/>
      <point x="853" y="935"/>
      <point x="766" y="864"/>
      <point x="721" y="835" type="qcurve"/>
      <point x="966" y="396" type="line"/>
      <point x="973" y="408"/>
      <point x="996" y="458"/>
      <point x="1018" y="516"/>
      <point x="1037" y="576"/>
      <point x="1040" y="599" type="qcurve"/>
      <point x="1198" y="569" type="line"/>
      <point x="1188" y="537"/>
      <point x="1148" y="449"/>
      <point x="1101" y="362"/>
      <point x="1056" y="288"/>
      <point x="1041" y="269" type="qcurve"/>
      <point x="1198" y="0" type="line"/>
    </contour>
  </outline>
</glyph>
<glyph name="quotesingle" format="2">
  <advance width="576"/>
  <unicode hex="0027"/>
  <outline>
    <contour>
      <point x="217" y="901" type="line"/>
      <point x="177" y="1434" type="line"/>
      <point x="207" y="1464" type="line"/>
      <point x="369" y="1464" type="line"/>
      <point x="399" y="1434" type="line"/>
      <point x="359" y="901" type="line"/>
    </contour>
  </outline>
</glyph>
<glyph name="parenleft" format="2">
  <advance width="736"/>
  <unicode hex="0028"/>
  <outline>
    <contour>
      <point x="637" y="1464" type="line"/>
      <point x="550" y="1390"/>
      <point x="432" y="1187"/>
      <point x="359" y="957"/>
      <point x="327" y="711"/>
      <point x="327" y="593" type="qcurve"/>
      <point x="327" y="460"/>
      <point x="359" y="211"/>
      <point x="432" y="-13"/>
      <point x="550" y="-204"/>
      <point x="637" y="-278" type="qcurve"/>
      <point x="617" y="-384" type="line"/>
      <point x="373" y="-226"/>
      <point x="115" y="258"/>
      <point x="115" y="593" type="qcurve"/>
      <point x="115" y="927"/>
      <point x="373" y="1412"/>
      <point x="617" y="1570" type="qcurve"/>
    </contour>
  </outline>
</glyph>
<glyph name="parenright" format="2">
  <advance width="736"/>
  <unicode hex="0029"/>
  <outline>
    <contour>
      <point x="119" y="1570" type="line"/>
      <point x="363" y="1412"/>
      <point x="621" y="927"/>
      <point x="621" y="593" type="qcurve"/>
      <point x="621" y="258"/>
      <point x="363" y="-226"/>
      <point x="119" y="-384" type="qcurve"/>
      <point x="99" y="-278" type="line"/>
      <point x="186" y="-204"/>
      <point x="304" y="-13"/>
      <point x="377" y="211"/>
      <point x="409" y="460"/>
      <point x="409" y="593" type="qcurve"/>
      <point x="409" y="711"/>
      <point x="377" y="957"/>
      <point x="304" y="1187"/>
      <point x="186" y="1390"/>
      <point x="99" y="1464" type="qcurve"/>
    </contour>
  </outline>
</glyph>
<glyph name="plus" format="2">
  <advance width="1152"/>
  <unicode hex="002B"/>
  <outline>
    <contour>
      <point x="90" y="381" type="line"/>
      <point x="90" y="593" type="line"/>
      <point x="470" y="593" type="line"/>
      <point x="470" y="974" type="line"/>
      <point x="682" y="974" type="line"/>
      <point x="682" y="593" type="line"/>
      <point x="1062" y="593" type="line"/>
      <point x="1062" y="381" type="line"/>
      <point x="682" y="381" type="line"/>
      <point x="682" y="0" type="line"/>
      <point x="470" y="0" type="line"/>
      <point x="470" y="381" type="line"/>
    </contour>
  </outline>
</glyph>
<glyph name="comma" format="2">
  <advance width="576"/>
  <unicode hex="002C"/>
  <outline>
    <contour>
      <point x="157" y="154" type="line"/>
      <point x="328" y="325" type="line"/>
      <point x="355" y="325" type="line"/>
      <point x="369" y="307"/>
      <point x="402" y="250"/>
      <point x="430" y="171"/>
      <point x="449" y="72"/>
      <point x="449" y="12" type="qcurve"/>
      <point x="449" y="-64"/>
      <point x="397" y="-202"/>
      <point x="313" y="-322"/>
      <point x="209" y="-423"/>
      <point x="157" y="-460" type="qcurve"/>
      <point x="65" y="-367" type="line"/>
      <point x="96" y="-338"/>
      <point x="157" y="-276"/>
      <point x="206" y="-204"/>
      <point x="237" y="-120"/>
      <point x="237" y="-69" type="qcurve"/>
      <point x="237" y="-2"/>
      <point x="188" y="93"/>
      <point x="157" y="128" type="qcurve"/>
    </contour>
  </outline>
</glyph>
<glyph name="hyphen" format="2">
  <advance width="736"/>
  <unicode hex="002D"/>
  <outline>
    <contour>
      <point x="62" y="593" type="line"/>
      <point x="674" y="593" type="line"/>
      <point x="674" y="381" type="line"/>
      <point x="62" y="381" type="line"/>
    </contour>
  </outline>
</glyph>
<glyph name="period" format="2">
  <advance width="576"/>
  <unicode hex="002E"/>
  <outline>
    <contour>
      <point x="450" y="131" type="qcurve"/>
      <point x="450" y="98"/>
      <point x="425" y="39"/>
      <point x="381" y="-5"/>
      <point x="322" y="-30"/>
      <point x="289" y="-30" type="qcurve"/>
      <point x="256" y="-30"/>
      <point x="197" y="-5"/>
      <point x="153" y="39"/>
      <point x="128" y="98"/>
      <point x="128" y="131" type="qcurve"/>
      <point x="128" y="164"/>
      <point x="153" y="223"/>
      <point x="197" y="267"/>
      <point x="256" y="292"/>
      <point x="289" y="292" type="qcurve"/>
      <point x="322" y="292"/>
      <point x="381" y="267"/>
      <point x="425" y="223"/>
      <point x="450" y="164"/>
    </contour>
  </outline>
</glyph>
<glyph name="slash" format="2">
  <advance width="576"/>
  <unicode hex="002F"/>
  <outline>
    <contour>
      <point x="636" y="1556" type="line"/>
      <point x="145" y="-152" type="line"/>
      <point x="-60" y="-122" type="line"/>
      <point x="431" y="1586" type="line"/>
    </contour>
  </outline>
</glyph>
<glyph name="zero" format="2">
  <advance width="1120"/>
  <unicode hex="0030"/>
  <outline>
    <contour>
      <point x="560" y="1342" type="qcurve"/>
      <point x="503" y="1342"/>
      <point x="429" y="1272"/>
      <point x="385" y="1121"/>
      <point x="367" y="884"/>
      <point x="367" y="718" type="qcurve"/>
      <point x="367" y="551"/>
      <point x="385" y="314"/>
      <point x="429" y="162"/>
      <point x="503" y="92"/>
      <point x="560" y="92" type="qcurve"/>
      <point x="617" y="92"/>
      <point x="691" y="162"/>
      <point x="735" y="314"/>
      <point x="753" y="551"/>
      <point x="753" y="718" type="qcurve"/>
      <point x="753" y="884"/>
      <point x="735" y="1121"/>
      <point x="691" y="1272"/>
      <point x="617" y="1342"/>
    </contour>
    <contour>
      <point x="560" y="1464" type="qcurve"/>
      <point x="796" y="1464"/>
      <point x="1045" y="1092"/>
      <point x="1045" y="718" type="qcurve"/>
      <point x="1045" y="343"/>
      <point x="796" y="-30"/>
      <point x="560" y="-30" type="qcurve"/>
      <point x="324" y="-30"/>
      <point x="75" y="343"/>
      <point x="75" y="718" type="qcurve"/>
      <point x="75" y="1092"/>
      <point x="324" y="1464"/>
    </contour>
  </outline>
</glyph>
<glyph name="one" format="2">
  <advance width="1120"/>
  <unicode hex="0031"/>
  <outline>
    <contour>
      <point x="738" y="1464" type="line"/>
      <point x="738" y="0" type="line"/>
      <point x="456" y="0" type="line"/>
      <point x="456" y="1237" type="line"/>
      <point x="174" y="1153" type="line"/>
      <point x="153" y="1265" type="line"/>
      <point x="678" y="1464" type="line"/>
    </contour>
  </outline>
</glyph>
<glyph name="two" format="2">
  <advance width="1120"/>
  <unicode hex="0032"/>
  <outline>
    <contour>
      <point x="117" y="1265" type="line"/>
      <point x="205" y="1360"/>
      <point x="407" y="1464"/>
      <point x="534" y="1464" type="qcurve"/>
      <point x="624" y="1464"/>
      <point x="794" y="1412"/>
      <point x="925" y="1307"/>
      <point x="1005" y="1150"/>
      <point x="1005" y="1044" type="qcurve"/>
      <point x="1005" y="985"/>
      <point x="987" y="877"/>
      <point x="939" y="763"/>
      <point x="856" y="635"/>
      <point x="728" y="478"/>
      <point x="547" y="285"/>
      <point x="426" y="162" type="qcurve"/>
      <point x="1040" y="202" type="line"/>
      <point x="1005" y="0" type="line"/>
      <point x="97" y="0" type="line"/>
      <point x="97" y="59" type="line"/>
      <point x="245" y="218"/>
      <point x="453" y="469"/>
      <point x="592" y="668"/>
      <point x="672" y="821"/>
      <point x="712" y="942"/>
      <point x="723" y="1039"/>
      <point x="723" y="1082" type="qcurve"/>
      <point x="723" y="1132"/>
      <point x="693" y="1226"/>
      <point x="637" y="1298"/>
      <point x="560" y="1342"/>
      <point x="514" y="1342" type="qcurve"/>
      <point x="347" y="1342"/>
      <point x="232" y="1153" type="qcurve"/>
    </contour>
  </outline>
</glyph>
<glyph name="three" format="2">
  <advance width="1120"/>
  <unicode hex="0033"/>
  <outline>
    <contour>
      <point x="203" y="282" type="line"/>
      <point x="219" y="254"/>
      <point x="274" y="187"/>
      <point x="349" y="130"/>
      <point x="441" y="92"/>
      <point x="495" y="92" type="qcurve"/>
      <point x="621" y="92"/>
      <point x="753" y="254"/>
      <point x="753" y="414" type="qcurve"/>
      <point x="753" y="494"/>
      <point x="716" y="622"/>
      <point x="647" y="712"/>
      <point x="549" y="760"/>
      <point x="488" y="760" type="qcurve"/>
      <point x="384" y="760" type="line"/>
      <point x="405" y="882" type="line"/>
      <point x="479" y="882" type="line"/>
      <point x="511" y="882"/>
      <point x="589" y="916"/>
      <point x="657" y="979"/>
      <point x="703" y="1071"/>
      <point x="703" y="1130" type="qcurve"/>
      <point x="703" y="1188"/>
      <point x="666" y="1269"/>
      <point x="611" y="1320"/>
      <point x="547" y="1342"/>
      <point x="520" y="1342" type="qcurve"/>
      <point x="473" y="1342"/>
      <point x="398" y="1307"/>
      <point x="338" y="1252"/>
      <point x="294" y="1185"/>
      <point x="279" y="1153" type="qcurve"/>
      <point x="165" y="1265" type="line"/>
      <point x="187" y="1298"/>
      <point x="256" y="1368"/>
      <point x="350" y="1426"/>
      <point x="469" y="1464"/>
      <point x="541" y="1464" type="qcurve"/>
      <point x="629" y="1464"/>
      <point x="781" y="1412"/>
      <point x="892" y="1321"/>
      <point x="955" y="1200"/>
      <point x="955" y="1131" type="qcurve"/>
      <point x="955" y="1069"/>
      <point x="915" y="975"/>
      <point x="852" y="904"/>
      <point x="775" y="855"/>
      <point x="738" y="838" type="qcurve"/>
      <point x="783" y="820"/>
      <point x="891" y="755"/>
      <point x="984" y="653"/>
      <point x="1045" y="511"/>
      <point x="1045" y="416" type="qcurve"/>
      <point x="1045" y="323"/>
      <point x="972" y="161"/>
      <point x="834" y="40"/>
      <point x="638" y="-30"/>
      <point x="515" y="-30" type="qcurve"/>
      <point x="435" y="-30"/>
      <point x="307" y="6"/>
      <point x="204" y="63"/>
      <point x="122" y="135"/>
      <point x="88" y="170" type="qcurve"/>
    </contour>
  </outline>
</glyph>
<glyph name="four" format="2">
  <advance width="1120"/>
  <unicode hex="0034"/>
  <outline>
    <contour>
      <point x="607" y="1464" type="line"/>
      <point x="889" y="1434" type="line"/>
      <point x="317" y="472" type="line"/>
      <point x="607" y="488" type="line"/>
      <point x="607" y="686" type="line"/>
      <point x="829" y="740" type="line"/>
      <point x="889" y="740" type="line"/>
      <point x="889" y="504" type="line"/>
      <point x="1038" y="512" type="line"/>
      <point x="1009" y="350" type="line"/>
      <point x="889" y="350" type="line"/>
      <point x="889" y="0" type="line"/>
      <point x="607" y="0" type="line"/>
      <point x="607" y="350" type="line"/>
      <point x="72" y="350" type="line"/>
      <point x="72" y="410" type="line"/>
    </contour>
  </outline>
</glyph>
<glyph name="five" format="2">
  <advance width="1120"/>
  <unicode hex="0035"/>
  <outline>
    <contour>
      <point x="182" y="760" type="line"/>
      <point x="182" y="1434" type="line"/>
      <point x="924" y="1434" type="line"/>
      <point x="889" y="1232" type="line"/>
      <point x="364" y="1272" type="line"/>
      <point x="364" y="893" type="line"/>
      <point x="376" y="899"/>
      <point x="415" y="910"/>
      <point x="460" y="919"/>
      <point x="505" y="925"/>
      <point x="523" y="925" type="qcurve"/>
      <point x="629" y="925"/>
      <point x="818" y="860"/>
      <point x="960" y="740"/>
      <point x="1043" y="569"/>
      <point x="1043" y="463" type="qcurve"/>
      <point x="1043" y="364"/>
      <point x="969" y="185"/>
      <point x="830" y="50"/>
      <point x="630" y="-30"/>
      <point x="505" y="-30" type="qcurve"/>
      <point x="429" y="-30"/>
      <point x="300" y="8"/>
      <point x="195" y="67"/>
      <point x="114" y="138"/>
      <point x="86" y="170" type="qcurve"/>
      <point x="200" y="282" type="line"/>
      <point x="223" y="247"/>
      <point x="281" y="179"/>
      <point x="353" y="125"/>
      <point x="441" y="92"/>
      <point x="494" y="92" type="qcurve"/>
      <point x="550" y="92"/>
      <point x="644" y="142"/>
      <point x="713" y="236"/>
      <point x="751" y="374"/>
      <point x="751" y="463" type="qcurve"/>
      <point x="751" y="557"/>
      <point x="704" y="687"/>
      <point x="635" y="768"/>
      <point x="555" y="803"/>
      <point x="523" y="803" type="qcurve"/>
      <point x="491" y="803"/>
      <point x="438" y="793"/>
      <point x="397" y="780"/>
      <point x="369" y="765"/>
      <point x="362" y="760" type="qcurve"/>
    </contour>
  </outline>
</glyph>
<glyph name="six" format="2">
  <advance width="1120"/>
  <unicode hex="0036"/>
  <outline>
    <contour>
      <point x="564" y="780" type="qcurve"/>
      <point x="520" y="780"/>
      <point x="448" y="727"/>
      <point x="396" y="636"/>
      <point x="367" y="515"/>
      <point x="367" y="448" type="qcurve"/>
      <point x="367" y="364"/>
      <point x="397" y="232"/>
      <point x="450" y="140"/>
      <point x="522" y="92"/>
      <point x="564" y="92" type="qcurve"/>
      <point x="604" y="92"/>
      <point x="673" y="138"/>
      <point x="724" y="226"/>
      <point x="753" y="355"/>
      <point x="753" y="439" type="qcurve"/>
      <point x="753" y="520"/>
      <point x="724" y="646"/>
      <point x="673" y="734"/>
      <point x="604" y="780"/>
    </contour>
    <contour>
      <point x="921" y="1342" type="line"/>
      <point x="814" y="1342"/>
      <point x="619" y="1264"/>
      <point x="465" y="1123"/>
      <point x="366" y="929"/>
      <point x="356" y="814" type="qcurve"/>
      <point x="407" y="856"/>
      <point x="524" y="902"/>
      <point x="584" y="902" type="qcurve"/>
      <point x="687" y="902"/>
      <point x="857" y="832"/>
      <point x="978" y="707"/>
      <point x="1045" y="538"/>
      <point x="1045" y="439" type="qcurve"/>
      <point x="1045" y="332"/>
      <point x="969" y="159"/>
      <point x="841" y="37"/>
      <point x="675" y="-30"/>
      <point x="584" y="-30" type="qcurve"/>
      <point x="486" y="-30"/>
      <point x="303" y="56"/>
      <point x="161" y="227"/>
      <point x="75" y="480"/>
      <point x="75" y="647" type="qcurve"/>
      <point x="75" y="743"/>
      <point x="119" y="939"/>
      <point x="210" y="1120"/>
      <point x="350" y="1279"/>
      <point x="543" y="1396"/>
      <point x="790" y="1464"/>
      <point x="943" y="1464" type="qcurve"/>
    </contour>
  </outline>
</glyph>
<glyph name="seven" format="2">
  <advance width="1120"/>
  <unicode hex="0037"/>
  <outline>
    <contour>
      <point x="1038" y="1434" type="line"/>
      <point x="1038" y="1375" type="line"/>
      <point x="474" y="-30" type="line"/>
      <point x="197" y="0" type="line"/>
      <point x="775" y="1272" type="line"/>
      <point x="95" y="1232" type="line"/>
      <point x="130" y="1434" type="line"/>
    </contour>
  </outline>
</glyph>
<glyph name="eight" format="2">
  <advance width="1120"/>
  <unicode hex="0038"/>
  <outline>
    <contour>
      <point x="405" y="1118" type="qcurve"/>
      <point x="405" y="1065"/>
      <point x="426" y="975"/>
      <point x="465" y="909"/>
      <point x="523" y="872"/>
      <point x="560" y="872" type="qcurve"/>
      <point x="597" y="872"/>
      <point x="654" y="909"/>
      <point x="693" y="975"/>
      <point x="713" y="1065"/>
      <point x="713" y="1118" type="qcurve"/>
      <point x="713" y="1224"/>
      <point x="635" y="1342"/>
      <point x="560" y="1342" type="qcurve"/>
      <point x="485" y="1342"/>
      <point x="405" y="1224"/>
    </contour>
    <contour>
      <point x="367" y="424" type="qcurve"/>
      <point x="367" y="362"/>
      <point x="386" y="243"/>
      <point x="431" y="149"/>
      <point x="505" y="92"/>
      <point x="560" y="92" type="qcurve"/>
      <point x="615" y="92"/>
      <point x="689" y="149"/>
      <point x="734" y="243"/>
      <point x="753" y="362"/>
      <point x="753" y="424" type="qcurve"/>
      <point x="753" y="485"/>
      <point x="734" y="602"/>
      <point x="689" y="694"/>
      <point x="615" y="750"/>
      <point x="560" y="750" type="qcurve"/>
      <point x="505" y="750"/>
      <point x="431" y="694"/>
      <point x="386" y="602"/>
      <point x="367" y="485"/>
    </contour>
    <contour>
      <point x="75" y="421" type="qcurve"/>
      <point x="75" y="479"/>
      <point x="95" y="592"/>
      <point x="147" y="696"/>
      <point x="235" y="789"/>
      <point x="303" y="828" type="qcurve"/>
      <point x="222" y="888"/>
      <point x="153" y="1043"/>
      <point x="153" y="1125" type="qcurve"/>
      <point x="153" y="1189"/>
      <point x="213" y="1312"/>
      <point x="320" y="1406"/>
      <point x="470" y="1464"/>
      <point x="560" y="1464" type="qcurve"/>
      <point x="650" y="1464"/>
      <point x="799" y="1406"/>
      <point x="906" y="1312"/>
      <point x="965" y="1189"/>
      <point x="965" y="1125" type="qcurve"/>
      <point x="965" y="1043"/>
      <point x="894" y="888"/>
      <point x="814" y="828" type="qcurve"/>
      <point x="884" y="789"/>
      <point x="974" y="698"/>
      <point x="1025" y="596"/>
      <point x="1045" y="483"/>
      <point x="1045" y="422" type="qcurve"/>
      <point x="1045" y="338"/>
      <point x="984" y="176"/>
      <point x="863" y="48"/>
      <point x="681" y="-30"/>
      <point x="560" y="-30" type="qcurve"/>
      <point x="440" y="-30"/>
      <point x="258" y="48"/>
      <point x="137" y="176"/>
      <point x="75" y="338"/>
    </contour>
  </outline>
</glyph>
<glyph name="nine" format="2">
  <advance width="1120"/>
  <unicode hex="0039"/>
  <outline>
    <contour>
      <point x="556" y="684" type="qcurve"/>
      <point x="607" y="684"/>
      <point x="681" y="735"/>
      <point x="730" y="820"/>
      <point x="753" y="931"/>
      <point x="753" y="991" type="qcurve"/>
      <point x="753" y="1071"/>
      <point x="725" y="1201"/>
      <point x="674" y="1292"/>
      <point x="601" y="1342"/>
      <point x="556" y="1342" type="qcurve"/>
      <point x="512" y="1342"/>
      <point x="442" y="1295"/>
      <point x="393" y="1209"/>
      <point x="367" y="1086"/>
      <point x="367" y="1010" type="qcurve"/>
      <point x="367" y="937"/>
      <point x="393" y="817"/>
      <point x="442" y="731"/>
      <point x="512" y="684"/>
    </contour>
    <contour>
      <point x="199" y="92" type="line"/>
      <point x="313" y="92"/>
      <point x="511" y="177"/>
      <point x="662" y="322"/>
      <point x="757" y="514"/>
      <point x="767" y="621" type="qcurve"/>
      <point x="718" y="591"/>
      <point x="596" y="562"/>
      <point x="536" y="562" type="qcurve"/>
      <point x="429" y="562"/>
      <point x="258" y="628"/>
      <point x="139" y="746"/>
      <point x="75" y="911"/>
      <point x="75" y="1010" type="qcurve"/>
      <point x="75" y="1113"/>
      <point x="148" y="1280"/>
      <point x="274" y="1399"/>
      <point x="441" y="1464"/>
      <point x="536" y="1464" type="qcurve"/>
      <point x="633" y="1464"/>
      <point x="817" y="1378"/>
      <point x="959" y="1209"/>
      <point x="1045" y="960"/>
      <point x="1045" y="797" type="qcurve"/>
      <point x="1045" y="701"/>
      <point x="1004" y="504"/>
      <point x="915" y="320"/>
      <point x="778" y="159"/>
      <point x="585" y="39"/>
      <point x="334" y="-30"/>
      <point x="177" y="-30" type="qcurve"/>
    </contour>
  </outline>
</glyph>
<glyph name="colon" format="2">
  <advance width="576"/>
  <unicode hex="003A"/>
  <outline>
    <contour>
      <point x="497" y="116" type="qcurve" name="sh02"/>
      <point x="497" y="86"/>
      <point x="474" y="32"/>
      <point x="435" y="-7"/>
      <point x="381" y="-30"/>
      <point x="351" y="-30" type="qcurve" name="ab01"/>
      <point x="321" y="-30"/>
      <point x="267" y="-7"/>
      <point x="228" y="32"/>
      <point x="205" y="86"/>
      <point x="205" y="116" type="qcurve" name="sh01"/>
      <point x="205" y="146"/>
      <point x="228" y="200"/>
      <point x="267" y="239"/>
      <point x="321" y="262"/>
      <point x="351" y="262" type="qcurve" name="sv01"/>
      <point x="381" y="262"/>
      <point x="435" y="239"/>
      <point x="474" y="200"/>
      <point x="497" y="146"/>
    </contour>
    <contour>
      <point x="497" y="858" type="qcurve" name="sh03"/>
      <point x="497" y="828"/>
      <point x="474" y="774"/>
      <point x="435" y="735"/>
      <point x="381" y="712"/>
      <point x="351" y="712" type="qcurve" name="sv02"/>
      <point x="321" y="712"/>
      <point x="267" y="735"/>
      <point x="228" y="774"/>
      <point x="205" y="828"/>
      <point x="205" y="858" type="qcurve" name="sh04"/>
      <point x="205" y="888"/>
      <point x="228" y="942"/>
      <point x="267" y="981"/>
      <point x="321" y="1004"/>
      <point x="351" y="1004" type="qcurve" name="at01"/>
      <point x="381" y="1004"/>
      <point x="435" y="981"/>
      <point x="474" y="942"/>
      <point x="497" y="888"/>
    </contour>
  </outline>
</glyph>
<glyph name="semicolon" format="2">
  <advance width="576"/>
  <unicode hex="003B"/>
  <outline>
    <contour>
      <point x="497" y="858" type="qcurve"/>
      <point x="497" y="828"/>
      <point x="474" y="774"/>
      <point x="435" y="735"/>
      <point x="381" y="712"/>
      <point x="351" y="712" type="qcurve"/>
      <point x="321" y="712"/>
      <point x="267" y="735"/>
      <point x="228" y="774"/>
      <point x="205" y="828"/>
      <point x="205" y="858" type="qcurve"/>
      <point x="205" y="888"/>
      <point x="228" y="942"/>
      <point x="267" y="981"/>
      <point x="321" y="1004"/>
      <point x="351" y="1004" type="qcurve"/>
      <point x="381" y="1004"/>
      <point x="435" y="981"/>
      <point x="474" y="942"/>
      <point x="497" y="888"/>
    </contour>
    <contour>
      <point x="205" y="154" type="line"/>
      <point x="376" y="325" type="line"/>
      <point x="403" y="325" type="line"/>
      <point x="417" y="307"/>
      <point x="450" y="250"/>
      <point x="478" y="171"/>
      <point x="497" y="72"/>
      <point x="497" y="12" type="qcurve"/>
      <point x="497" y="-64"/>
      <point x="445" y="-202"/>
      <point x="361" y="-322"/>
      <point x="257" y="-423"/>
      <point x="205" y="-460" type="qcurve"/>
      <point x="113" y="-367" type="line"/>
      <point x="144" y="-338"/>
      <point x="205" y="-276"/>
      <point x="254" y="-204"/>
      <point x="285" y="-120"/>
      <point x="285" y="-69" type="qcurve"/>
      <point x="285" y="-2"/>
      <point x="236" y="93"/>
      <point x="205" y="128" type="qcurve"/>
    </contour>
  </outline>
</glyph>
<glyph name="less" format="2">
  <advance width="1152"/>
  <unicode hex="003C"/>
  <outline>
    <contour>
      <point x="916" y="1004" type="line"/>
      <point x="952" y="804" type="line"/>
      <point x="404" y="487" type="line"/>
      <point x="952" y="170" type="line"/>
      <point x="917" y="-30" type="line"/>
      <point x="112" y="436" type="line"/>
      <point x="112" y="538" type="line"/>
    </contour>
  </outline>
</glyph>
<glyph name="equal" format="2">
  <advance width="1152"/>
  <unicode hex="003D"/>
  <outline>
    <contour>
      <point x="75" y="805" type="line"/>
      <point x="1077" y="805" type="line"/>
      <point x="1077" y="593" type="line"/>
      <point x="75" y="593" type="line"/>
    </contour>
    <contour>
      <point x="75" y="381" type="line"/>
      <point x="1077" y="381" type="line"/>
      <point x="1077" y="169" type="line"/>
      <point x="75" y="169" type="line"/>
    </contour>
  </outline>
</glyph>
<glyph name="greater" format="2">
  <advance width="1152"/>
  <unicode hex="003E"/>
  <outline>
    <contour>
      <point x="238" y="1004" type="line"/>
      <point x="1042" y="538" type="line"/>
      <point x="1042" y="436" type="line"/>
      <point x="237" y="-30" type="line"/>
      <point x="202" y="170" type="line"/>
      <point x="750" y="487" type="line"/>
      <point x="202" y="804" type="line"/>
    </contour>
  </outline>
</glyph>
<glyph name="question" format="2">
  <advance width="1024"/>
  <unicode hex="003F"/>
  <outline>
    <contour>
      <point x="656" y="96" type="qcurve"/>
      <point x="656" y="70"/>
      <point x="636" y="24"/>
      <point x="602" y="-10"/>
      <point x="556" y="-30"/>
      <point x="530" y="-30" type="qcurve"/>
      <point x="504" y="-30"/>
      <point x="458" y="-10"/>
      <point x="424" y="24"/>
      <point x="404" y="70"/>
      <point x="404" y="96" type="qcurve"/>
      <point x="404" y="122"/>
      <point x="424" y="168"/>
      <point x="458" y="202"/>
      <point x="504" y="222"/>
      <point x="530" y="222" type="qcurve"/>
      <point x="556" y="222"/>
      <point x="602" y="202"/>
      <point x="636" y="168"/>
      <point x="656" y="122"/>
    </contour>
    <contour>
      <point x="118" y="1265" type="line"/>
      <point x="152" y="1301"/>
      <point x="235" y="1372"/>
      <point x="336" y="1429"/>
      <point x="459" y="1464"/>
      <point x="534" y="1464" type="qcurve"/>
      <point x="611" y="1464"/>
      <point x="747" y="1421"/>
      <point x="849" y="1342"/>
      <point x="908" y="1231"/>
      <point x="908" y="1164" type="qcurve"/>
      <point x="908" y="1097"/>
      <point x="865" y="993"/>
      <point x="782" y="907"/>
      <point x="662" y="830"/>
      <point x="585" y="790" type="qcurve"/>
      <point x="546" y="770"/>
      <point x="495" y="726"/>
      <point x="467" y="680"/>
      <point x="456" y="633"/>
      <point x="456" y="611" type="qcurve"/>
      <point x="456" y="580"/>
      <point x="485" y="532"/>
      <point x="529" y="499"/>
      <point x="577" y="482"/>
      <point x="597" y="482" type="qcurve"/>
      <point x="577" y="370" type="line"/>
      <point x="520" y="370"/>
      <point x="417" y="412"/>
      <point x="340" y="482"/>
      <point x="294" y="572"/>
      <point x="294" y="619" type="qcurve"/>
      <point x="294" y="657"/>
      <point x="309" y="728"/>
      <point x="347" y="797"/>
      <point x="413" y="866"/>
      <point x="463" y="901" type="qcurve"/>
      <point x="563" y="970"/>
      <point x="656" y="1101"/>
      <point x="656" y="1182" type="qcurve"/>
      <point x="656" y="1219"/>
      <point x="630" y="1279"/>
      <point x="586" y="1320"/>
      <point x="528" y="1342"/>
      <point x="496" y="1342" type="qcurve"/>
      <point x="458" y="1342"/>
      <point x="381" y="1310"/>
      <point x="311" y="1257"/>
      <point x="252" y="1189"/>
      <point x="232" y="1153" type="qcurve"/>
    </contour>
  </outline>
</glyph>
<glyph name="A" format="2">
  <advance width="1344"/>
  <unicode hex="0041"/>
  <guideline x="15" y="0" angle="68"/>
  <guideline x="189" y="0" angle="68"/>
  <guideline x="1330" y="0" angle="112"/>
  <guideline x="991" y="0" angle="112"/>
  <anchor x="642" y="0" name="AccentBelow"/>
  <anchor x="672" y="1600" name="AccentDefault"/>
  <anchor x="672" y="712" name="AccentMiddle"/>
  <anchor x="950" y="0" name="AccentOgonek"/>
  <outline>
    <contour>
      <point x="594" y="1434" type="line" name="dh01"/>
      <point x="738" y="1464" type="line" name="dh02"/>
      <point x="1328" y="0" type="line" name="sh01"/>
      <point x="1003" y="-30" type="line" name="sh02"/>
      <point x="852" y="345" type="line" name="sv01"/>
      <point x="329" y="345" type="line"/>
      <point x="177" y="-30" type="line" name="sh04"/>
      <point x="14" y="0" type="line" name="sh03"/>
    </contour>
    <contour>
      <point x="794" y="487" type="line" name="sh05"/>
      <point x="590" y="992" type="line" name="mh01"/>
      <point x="386" y="487" type="line" name="sh06"/>
    </contour>
  </outline>
</glyph>
<glyph name="B" format="2">
  <advance width="1248"/>
  <unicode hex="0042"/>
  <outline>
    <contour>
      <point x="444" y="859" type="line"/>
      <point x="533" y="859" type="line"/>
      <point x="589" y="859"/>
      <point x="682" y="884"/>
      <point x="750" y="938"/>
      <point x="787" y="1024"/>
      <point x="787" y="1086" type="qcurve"/>
      <point x="787" y="1131"/>
      <point x="751" y="1210"/>
      <point x="685" y="1268"/>
      <point x="591" y="1302"/>
      <point x="533" y="1302" type="qcurve"/>
      <point x="444" y="1302" type="line"/>
    </contour>
    <contour>
      <point x="444" y="717" type="line"/>
      <point x="444" y="132" type="line"/>
      <point x="541" y="132" type="line"/>
      <point x="625" y="132"/>
      <point x="747" y="179"/>
      <point x="826" y="260"/>
      <point x="864" y="368"/>
      <point x="864" y="430" type="qcurve"/>
      <point x="864" y="506"/>
      <point x="820" y="615"/>
      <point x="745" y="685"/>
      <point x="645" y="717"/>
      <point x="589" y="717" type="qcurve"/>
    </contour>
    <contour>
      <point x="132" y="1434" type="line"/>
      <point x="531" y="1434" type="line"/>
      <point x="658" y="1434"/>
      <point x="868" y="1400"/>
      <point x="1017" y="1320"/>
      <point x="1099" y="1191"/>
      <point x="1099" y="1095" type="qcurve"/>
      <point x="1099" y="1039"/>
      <point x="1059" y="949"/>
      <point x="998" y="880"/>
      <point x="923" y="831"/>
      <point x="888" y="816" type="qcurve"/>
      <point x="936" y="798"/>
      <point x="1041" y="732"/>
      <point x="1129" y="635"/>
      <point x="1186" y="507"/>
      <point x="1186" y="428" type="qcurve"/>
      <point x="1186" y="329"/>
      <point x="1101" y="171"/>
      <point x="937" y="60"/>
      <point x="698" y="0"/>
      <point x="544" y="0" type="qcurve"/>
      <point x="132" y="0" type="line"/>
    </contour>
  </outline>
</glyph>
<glyph name="C" format="2">
  <advance width="1344"/>
  <unicode hex="0043"/>
  <outline>
    <contour>
      <point x="1314" y="1235" type="qcurve"/>
      <point x="1192" y="1113" type="line"/>
      <point x="1116" y="1223"/>
      <point x="919" y="1322"/>
      <point x="796" y="1322" type="qcurve"/>
      <point x="709" y="1322"/>
      <point x="557" y="1242"/>
      <point x="444" y="1088"/>
      <point x="380" y="862"/>
      <point x="380" y="717" type="qcurve"/>
      <point x="380" y="571"/>
      <point x="444" y="346"/>
      <point x="557" y="192"/>
      <point x="709" y="112"/>
      <point x="796" y="112" type="qcurve"/>
      <point x="919" y="112"/>
      <point x="1116" y="211"/>
      <point x="1192" y="321" type="qcurve"/>
      <point x="1314" y="199" type="line"/>
      <point x="1266" y="151"/>
      <point x="1157" y="67"/>
      <point x="1031" y="5"/>
      <point x="883" y="-30"/>
      <point x="796" y="-30" type="qcurve"/>
      <point x="703" y="-30"/>
      <point x="522" y="17"/>
      <point x="358" y="107"/>
      <point x="218" y="237"/>
      <point x="116" y="403"/>
      <point x="58" y="603"/>
      <point x="58" y="717" type="qcurve"/>
      <point x="58" y="832"/>
      <point x="116" y="1032"/>
      <point x="219" y="1198"/>
      <point x="359" y="1328"/>
      <point x="523" y="1417"/>
      <point x="704" y="1464"/>
      <point x="796" y="1464" type="qcurve"/>
      <point x="883" y="1464"/>
      <point x="1031" y="1429"/>
      <point x="1157" y="1367"/>
      <point x="1266" y="1283"/>
    </contour>
  </outline>
</glyph>
<glyph name="D" format="2">
  <advance width="1504"/>
  <unicode hex="0044"/>
  <outline>
    <contour>
      <point x="132" y="1434" type="line"/>
      <point x="607" y="1434" type="line"/>
      <point x="798" y="1434"/>
      <point x="1101" y="1336"/>
      <point x="1311" y="1151"/>
      <point x="1422" y="885"/>
      <point x="1422" y="717" type="qcurve"/>
      <point x="1422" y="619"/>
      <point x="1369" y="436"/>
      <point x="1270" y="277"/>
      <point x="1128" y="145"/>
      <point x="949" y="52"/>
      <point x="737" y="0"/>
      <point x="617" y="0" type="qcurve"/>
      <point x="132" y="0" type="line"/>
    </contour>
    <contour>
      <point x="444" y="1302" type="line"/>
      <point x="444" y="132" type="line"/>
      <point x="589" y="132" type="line"/>
      <point x="711" y="132"/>
      <point x="901" y="226"/>
      <point x="1032" y="386"/>
      <point x="1100" y="598"/>
      <point x="1100" y="717" type="qcurve"/>
      <point x="1100" y="859"/>
      <point x="1028" y="1078"/>
      <point x="893" y="1226"/>
      <point x="702" y="1302"/>
      <point x="582" y="1302" type="qcurve"/>
    </contour>
  </outline>
</glyph>
<glyph name="F" format="2">
  <advance width="1088"/>
  <unicode hex="0046"/>
  <outline>
    <contour>
      <point x="130" y="1434" type="line"/>
      <point x="1042" y="1434" type="line"/>
      <point x="1013" y="1272" type="line"/>
      <point x="442" y="1312" type="line"/>
      <point x="442" y="859" type="line"/>
      <point x="940" y="859" type="line"/>
      <point x="915" y="717" type="line"/>
      <point x="442" y="717" type="line"/>
      <point x="442" y="0" type="line"/>
      <point x="130" y="0" type="line"/>
    </contour>
  </outline>
</glyph>
<glyph name="G" format="2">
  <advance width="1600"/>
  <unicode hex="0047"/>
  <guideline x="0" y="-167" angle="45"/>
  <guideline x="861" y="0" angle="90"/>
  <guideline x="733" y="0" angle="80"/>
  <guideline x="1340" y="0" angle="90"/>
  <anchor x="864" y="0" name="AccentBelow"/>
  <anchor x="864" y="1600" name="AccentDefault"/>
  <anchor x="800" y="670" name="AccentMiddle"/>
  <outline>
    <contour>
      <point x="860" y="717" type="line" name="sv01"/>
      <point x="1402" y="717" type="line"/>
      <point x="1402" y="200" type="line" name="sh01"/>
      <point x="1344" y="139"/>
      <point x="1222" y="52"/>
      <point x="1089" y="-4"/>
      <point x="942" y="-30"/>
      <point x="859" y="-30" type="qcurve" name="ab01"/>
      <point x="682" y="-30"/>
      <point x="387" y="78"/>
      <point x="175" y="274"/>
      <point x="58" y="550"/>
      <point x="58" y="717" type="qcurve" name="sh02"/>
      <point x="58" y="880"/>
      <point x="172" y="1155"/>
      <point x="382" y="1353"/>
      <point x="678" y="1464"/>
      <point x="860" y="1464" type="qcurve" name="at01"/>
      <point x="956" y="1464"/>
      <point x="1112" y="1432"/>
      <point x="1243" y="1373"/>
      <point x="1353" y="1288"/>
      <point x="1402" y="1235" type="qcurve" name="sh03"/>
      <point x="1280" y="1113" type="line" name="av01"/>
      <point x="1241" y="1165"/>
      <point x="1159" y="1243"/>
      <point x="1060" y="1295"/>
      <point x="939" y="1322"/>
      <point x="861" y="1322" type="qcurve" name="sv02"/>
      <point x="740" y="1322"/>
      <point x="560" y="1228"/>
      <point x="440" y="1065"/>
      <point x="380" y="844"/>
      <point x="380" y="717" type="qcurve" name="sh04"/>
      <point x="380" y="637"/>
      <point x="403" y="486"/>
      <point x="452" y="351"/>
      <point x="528" y="239"/>
      <point x="634" y="157"/>
      <point x="773" y="112"/>
      <point x="859" y="112" type="qcurve" name="sv03"/>
      <point x="895" y="112"/>
      <point x="952" y="115"/>
      <point x="1004" y="125"/>
      <point x="1057" y="144"/>
      <point x="1090" y="160" type="qcurve" name="sh05"/>
      <point x="1090" y="575" type="line"/>
      <point x="835" y="575" type="line" name="ah01"/>
    </contour>
  </outline>
</glyph>
<glyph name="H" format="2">
  <advance width="1504"/>
  <unicode hex="0048"/>
  <outline>
    <contour>
      <point x="132" y="1434" type="line"/>
      <point x="444" y="1464" type="line"/>
      <point x="444" y="859" type="line"/>
      <point x="1060" y="859" type="line"/>
      <point x="1060" y="1434" type="line"/>
      <point x="1372" y="1464" type="line"/>
      <point x="1372" y="0" type="line"/>
      <point x="1060" y="0" type="line"/>
      <point x="1060" y="717" type="line"/>
      <point x="444" y="717" type="line"/>
      <point x="444" y="0" type="line"/>
      <point x="132" y="0" type="line"/>
    </contour>
  </outline>
</glyph>
<glyph name="I" format="2">
  <advance width="576"/>
  <unicode hex="0049"/>
  <outline>
    <contour>
      <point x="132" y="1434" type="line"/>
      <point x="444" y="1464" type="line"/>
      <point x="444" y="0" type="line"/>
      <point x="132" y="0" type="line"/>
    </contour>
  </outline>
</glyph>
<glyph name="J" format="2">
  <advance width="736"/>
  <unicode hex="004A"/>
  <outline>
    <contour>
      <point x="288" y="1434" type="line"/>
      <point x="600" y="1464" type="line"/>
      <point x="600" y="539" type="line"/>
      <point x="600" y="362"/>
      <point x="511" y="139"/>
      <point x="352" y="15"/>
      <point x="132" y="-30"/>
      <point x="0" y="-30" type="qcurve"/>
      <point x="29" y="132" type="line"/>
      <point x="77" y="132"/>
      <point x="169" y="150"/>
      <point x="243" y="213"/>
      <point x="288" y="332"/>
      <point x="288" y="433" type="qcurve"/>
    </contour>
  </outline>
</glyph>
<glyph name="K" format="2">
  <advance width="1344"/>
  <unicode hex="004B"/>
  <outline>
    <contour>
      <point x="132" y="1434" type="line"/>
      <point x="444" y="1464" type="line"/>
      <point x="444" y="829" type="line"/>
      <point x="1077" y="1464" type="line"/>
      <point x="1252" y="1434" type="line"/>
      <point x="690" y="872" type="line"/>
      <point x="1301" y="0" type="line"/>
      <point x="979" y="-30" type="line"/>
      <point x="489" y="671" type="line"/>
      <point x="444" y="626" type="line"/>
      <point x="444" y="0" type="line"/>
      <point x="132" y="0" type="line"/>
    </contour>
  </outline>
</glyph>
<glyph name="L" format="2">
  <advance width="1088"/>
  <unicode hex="004C"/>
  <anchor x="624" y="0" name="AccentBelow"/>
  <anchor x="288" y="1600" name="AccentDefault"/>
  <anchor x="288" y="712" name="AccentMiddle"/>
  <outline>
    <contour>
      <point x="130" y="1434" type="line"/>
      <point x="442" y="1464" type="line"/>
      <point x="442" y="122" type="line"/>
      <point x="1013" y="162" type="line"/>
      <point x="983" y="0" type="line"/>
      <point x="130" y="0" type="line"/>
    </contour>
  </outline>
</glyph>
<glyph name="O" format="2">
  <advance width="1600"/>
  <unicode hex="004F"/>
  <anchor x="800" y="0" name="AccentBelow"/>
  <anchor x="800" y="1600" name="AccentDefault"/>
  <anchor x="800" y="712" name="AccentMiddle"/>
  <outline>
    <contour>
      <point x="381" y="717" type="qcurve"/>
      <point x="381" y="571"/>
      <point x="446" y="346"/>
      <point x="559" y="192"/>
      <point x="712" y="112"/>
      <point x="800" y="112" type="qcurve"/>
      <point x="888" y="112"/>
      <point x="1041" y="192"/>
      <point x="1154" y="346"/>
      <point x="1219" y="571"/>
      <point x="1219" y="717" type="qcurve"/>
      <point x="1219" y="862"/>
      <point x="1154" y="1088"/>
      <point x="1041" y="1242"/>
      <point x="888" y="1322"/>
      <point x="800" y="1322" type="qcurve"/>
      <point x="712" y="1322"/>
      <point x="559" y="1242"/>
      <point x="446" y="1088"/>
      <point x="381" y="863"/>
    </contour>
    <contour>
      <point x="59" y="717" type="qcurve"/>
      <point x="59" y="832"/>
      <point x="118" y="1032"/>
      <point x="221" y="1198"/>
      <point x="362" y="1328"/>
      <point x="527" y="1417"/>
      <point x="708" y="1464"/>
      <point x="800" y="1464" type="qcurve"/>
      <point x="892" y="1464"/>
      <point x="1073" y="1417"/>
      <point x="1238" y="1328"/>
      <point x="1379" y="1198"/>
      <point x="1482" y="1032"/>
      <point x="1541" y="832"/>
      <point x="1541" y="717" type="qcurve"/>
      <point x="1541" y="602"/>
      <point x="1482" y="402"/>
      <point x="1379" y="236"/>
      <point x="1238" y="106"/>
      <point x="1073" y="17"/>
      <point x="892" y="-30"/>
      <point x="800" y="-30" type="qcurve"/>
      <point x="707" y="-30"/>
      <point x="526" y="17"/>
      <point x="361" y="106"/>
      <point x="220" y="236"/>
      <point x="117" y="402"/>
      <point x="59" y="602"/>
    </contour>
  </outline>
</glyph>
<glyph name="P" format="2">
  <advance width="1152"/>
  <unicode hex="0050"/>
  <outline>
    <contour>
      <point x="444" y="1302" type="line"/>
      <point x="444" y="717" type="line"/>
      <point x="504" y="717" type="line"/>
      <point x="567" y="717"/>
      <point x="669" y="760"/>
      <point x="740" y="840"/>
      <point x="779" y="953"/>
      <point x="779" y="1023" type="qcurve"/>
      <point x="779" y="1087"/>
      <point x="740" y="1190"/>
      <point x="669" y="1263"/>
      <point x="567" y="1302"/>
      <point x="504" y="1302" type="qcurve"/>
    </contour>
    <contour>
      <point x="132" y="1434" type="line"/>
      <point x="557" y="1434" type="line"/>
      <point x="709" y="1434"/>
      <point x="917" y="1369"/>
      <point x="1045" y="1258"/>
      <point x="1101" y="1108"/>
      <point x="1101" y="1023" type="qcurve"/>
      <point x="1101" y="939"/>
      <point x="1038" y="781"/>
      <point x="906" y="659"/>
      <point x="700" y="585"/>
      <point x="557" y="585" type="qcurve"/>
      <point x="444" y="585" type="line"/>
      <point x="444" y="0" type="line"/>
      <point x="132" y="0" type="line"/>
    </contour>
  </outline>
</glyph>
<glyph name="R" format="2">
  <advance width="1248"/>
  <unicode hex="0052"/>
  <outline>
    <contour>
      <point x="444" y="1302" type="line"/>
      <point x="444" y="717" type="line"/>
      <point x="569" y="717" type="line"/>
      <point x="622" y="717"/>
      <point x="717" y="765"/>
      <point x="789" y="847"/>
      <point x="831" y="958"/>
      <point x="831" y="1021" type="qcurve"/>
      <point x="831" y="1081"/>
      <point x="786" y="1184"/>
      <point x="712" y="1259"/>
      <point x="619" y="1302"/>
      <point x="571" y="1302" type="qcurve"/>
    </contour>
    <contour>
      <point x="132" y="1434" type="line"/>
      <point x="592" y="1434" type="line"/>
      <point x="730" y="1434"/>
      <point x="940" y="1378"/>
      <point x="1081" y="1271"/>
      <point x="1153" y="1118"/>
      <point x="1153" y="1021" type="qcurve"/>
      <point x="1153" y="934"/>
      <point x="1088" y="795"/>
      <point x="987" y="691"/>
      <point x="863" y="622"/>
      <point x="805" y="606" type="qcurve"/>
      <point x="1231" y="0" type="line"/>
      <point x="909" y="-30" type="line"/>
      <point x="504" y="585" type="line"/>
      <point x="444" y="585" type="line"/>
      <point x="444" y="0" type="line"/>
      <point x="132" y="0" type="line"/>
    </contour>
  </outline>
</glyph>
<glyph name="S" format="2">
  <advance width="1152"/>
  <unicode hex="0053"/>
  <anchor x="576" y="0" name="AccentBelow"/>
  <anchor x="512" y="0" name="AccentCedilla"/>
  <anchor x="576" y="1600" name="AccentDefault"/>
  <anchor x="624" y="712" name="AccentMiddle"/>
  <outline>
    <contour>
      <point x="1024" y="1235" type="qcurve"/>
      <point x="902" y="1113" type="line"/>
      <point x="881" y="1153"/>
      <point x="823" y="1229"/>
      <point x="751" y="1287"/>
      <point x="665" y="1322"/>
      <point x="616" y="1322" type="qcurve"/>
      <point x="582" y="1322"/>
      <point x="514" y="1296"/>
      <point x="460" y="1247"/>
      <point x="426" y="1177"/>
      <point x="426" y="1134" type="qcurve"/>
      <point x="426" y="1084"/>
      <point x="452" y="1004"/>
      <point x="515" y="938"/>
      <point x="619" y="880"/>
      <point x="697" y="852" type="qcurve"/>
      <point x="873" y="788"/>
      <point x="1054" y="569"/>
      <point x="1054" y="409" type="qcurve"/>
      <point x="1054" y="320"/>
      <point x="982" y="160"/>
      <point x="850" y="40"/>
      <point x="662" y="-30"/>
      <point x="547" y="-30" type="qcurve"/>
      <point x="469" y="-30"/>
      <point x="330" y="11"/>
      <point x="214" y="77"/>
      <point x="121" y="159"/>
      <point x="88" y="199" type="qcurve"/>
      <point x="210" y="321" type="line"/>
      <point x="238" y="278"/>
      <point x="310" y="202"/>
      <point x="395" y="145"/>
      <point x="493" y="112"/>
      <point x="547" y="112" type="qcurve"/>
      <point x="603" y="112"/>
      <point x="691" y="147"/>
      <point x="751" y="208"/>
      <point x="782" y="290"/>
      <point x="782" y="336" type="qcurve"/>
      <point x="782" y="384"/>
      <point x="748" y="468"/>
      <point x="675" y="542"/>
      <point x="560" y="608"/>
      <point x="479" y="637" type="qcurve"/>
      <point x="410" y="662"/>
      <point x="295" y="738"/>
      <point x="211" y="841"/>
      <point x="164" y="971"/>
      <point x="164" y="1051" type="qcurve"/>
      <point x="164" y="1138"/>
      <point x="232" y="1289"/>
      <point x="354" y="1400"/>
      <point x="519" y="1464"/>
      <point x="617" y="1464" type="qcurve"/>
      <point x="692" y="1464"/>
      <point x="816" y="1425"/>
      <point x="916" y="1361"/>
      <point x="995" y="1278"/>
    </contour>
  </outline>
</glyph>
<glyph name="T" format="2">
  <advance width="1152"/>
  <unicode hex="0054"/>
  <anchor x="576" y="0" name="AccentBelow"/>
  <anchor x="554" y="0" name="AccentCedilla"/>
  <anchor x="576" y="1600" name="AccentDefault"/>
  <anchor x="576" y="712" name="AccentMiddle"/>
  <outline>
    <contour>
      <point x="30" y="1434" type="line"/>
      <point x="1150" y="1434" type="line"/>
      <point x="1121" y="1272" type="line"/>
      <point x="732" y="1312" type="line"/>
      <point x="732" y="0" type="line"/>
      <point x="420" y="0" type="line"/>
      <point x="420" y="1313" type="line"/>
      <point x="2" y="1272" type="line"/>
    </contour>
  </outline>
</glyph>
<glyph name="U" format="2">
  <advance width="1504"/>
  <unicode hex="0055"/>
  <outline>
    <contour>
      <point x="448" y="1464" type="line"/>
      <point x="448" y="500" type="line"/>
      <point x="448" y="404"/>
      <point x="516" y="259"/>
      <point x="626" y="162"/>
      <point x="764" y="112"/>
      <point x="835" y="112" type="qcurve"/>
      <point x="923" y="112"/>
      <point x="1061" y="171"/>
      <point x="1156" y="280"/>
      <point x="1206" y="435"/>
      <point x="1206" y="530" type="qcurve"/>
      <point x="1206" y="1464" type="line"/>
      <point x="1368" y="1434" type="line"/>
      <point x="1368" y="568" type="line"/>
      <point x="1368" y="437"/>
      <point x="1293" y="218"/>
      <point x="1149" y="59"/>
      <point x="938" y="-30"/>
      <point x="802" y="-30" type="qcurve"/>
      <point x="655" y="-30"/>
      <point x="410" y="47"/>
      <point x="234" y="200"/>
      <point x="136" y="428"/>
      <point x="136" y="578" type="qcurve"/>
      <point x="136" y="1434" type="line"/>
    </contour>
  </outline>
</glyph>
<glyph name="V" format="2">
  <advance width="1248"/>
  <unicode hex="0056"/>
  <outline>
    <contour>
      <point x="339" y="1464" type="line"/>
      <point x="705" y="456" type="line"/>
      <point x="1071" y="1464" type="line"/>
      <point x="1232" y="1434" type="line"/>
      <point x="710" y="0" type="line"/>
      <point x="539" y="0" type="line"/>
      <point x="16" y="1434" type="line"/>
    </contour>
  </outline>
</glyph>
<glyph name="W" format="2">
  <advance width="1888"/>
  <unicode hex="0057"/>
  <outline>
    <contour>
      <point x="1410" y="528" type="line"/>
      <point x="1678" y="1464" type="line"/>
      <point x="1836" y="1434" type="line"/>
      <point x="1423" y="0" type="line"/>
      <point x="1252" y="0" type="line"/>
      <point x="945" y="943" type="line"/>
      <point x="637" y="0" type="line"/>
      <point x="465" y="0" type="line"/>
      <point x="52" y="1434" type="line"/>
      <point x="377" y="1464" type="line"/>
      <point x="647" y="528" type="line"/>
      <point x="941" y="1434" type="line"/>
      <point x="1116" y="1434" type="line"/>
    </contour>
  </outline>
</glyph>
<glyph name="Y" format="2">
  <advance width="1248"/>
  <unicode hex="0059"/>
  <outline>
    <contour>
      <point x="339" y="1464" type="line"/>
      <point x="701" y="785" type="line"/>
      <point x="1061" y="1464" type="line"/>
      <point x="1232" y="1434" type="line"/>
      <point x="780" y="582" type="line"/>
      <point x="780" y="0" type="line"/>
      <point x="468" y="0" type="line"/>
      <point x="468" y="584" type="line"/>
      <point x="16" y="1434" type="line"/>
    </contour>
  </outline>
</glyph>
<glyph name="Z" format="2">
  <advance width="1248"/>
  <unicode hex="005A"/>
  <outline>
    <contour>
      <point x="146" y="1434" type="line"/>
      <point x="1172" y="1434" type="line"/>
      <point x="1172" y="1374" type="line"/>
      <point x="443" y="122" type="line"/>
      <point x="1173" y="163" type="line"/>
      <point x="1145" y="0" type="line"/>
      <point x="62" y="0" type="line"/>
      <point x="62" y="60" type="line"/>
      <point x="787" y="1312" type="line"/>
      <point x="118" y="1272" type="line"/>
    </contour>
  </outline>
</glyph>
<glyph name="bracketleft" format="2">
  <advance width="736"/>
  <unicode hex="005B"/>
  <outline>
    <contour>
      <point x="234" y="1464" type="line"/>
      <point x="674" y="1464" type="line"/>
      <point x="652" y="1342" type="line"/>
      <point x="486" y="1342" type="line"/>
      <point x="486" y="-156" type="line"/>
      <point x="652" y="-156" type="line"/>
      <point x="674" y="-278" type="line"/>
      <point x="234" y="-278" type="line"/>
    </contour>
  </outline>
</glyph>
<glyph name="backslash" format="2">
  <advance width="576"/>
  <unicode hex="005C"/>
  <outline>
    <contour>
      <point x="148" y="1586" type="line"/>
      <point x="636" y="-134" type="line"/>
      <point x="428" y="-152" type="line"/>
      <point x="-60" y="1569" type="line"/>
    </contour>
  </outline>
</glyph>
<glyph name="bracketright" format="2">
  <advance width="736"/>
  <unicode hex="005D"/>
  <outline>
    <contour>
      <point x="502" y="-278" type="line"/>
      <point x="62" y="-278" type="line"/>
      <point x="84" y="-156" type="line"/>
      <point x="250" y="-156" type="line"/>
      <point x="250" y="1342" type="line"/>
      <point x="84" y="1342" type="line"/>
      <point x="62" y="1464" type="line"/>
      <point x="502" y="1464" type="line"/>
    </contour>
  </outline>
</glyph>
<glyph name="asciicircum" format="2">
  <advance width="1248"/>
  <unicode hex="005E"/>
  <outline>
    <contour>
      <point x="543" y="1434" type="line"/>
      <point x="705" y="1434" type="line"/>
      <point x="1158" y="648" type="line"/>
      <point x="993" y="553" type="line"/>
      <point x="624" y="1181" type="line"/>
      <point x="255" y="553" type="line"/>
      <point x="90" y="648" type="line"/>
    </contour>
  </outline>
</glyph>
<glyph name="underscore" format="2">
  <advance width="1024"/>
  <unicode hex="005F"/>
  <outline>
    <contour>
      <point x="0" y="-222" type="line"/>
      <point x="1024" y="-222" type="line"/>
      <point x="1024" y="-304" type="line"/>
      <point x="0" y="-304" type="line"/>
    </contour>
  </outline>
</glyph>
<glyph name="grave" format="2">
  <advance width="768"/>
  <unicode hex="0060"/>
  <guideline x="0" y="1613" angle="0"/>
  <guideline x="0" y="1346" angle="45"/>
  <guideline x="1770" y="0" angle="135"/>
  <guideline x="231" y="0" angle="90"/>
  <guideline x="-653" y="0" angle="45"/>
  <guideline x="1616" y="0" angle="135"/>
  <guideline x="388" y="0" angle="90"/>
  <outline>
    <contour>
      <point x="458" y="1138" type="line" name="av01"/>
      <point x="92" y="1426" type="line"/>
      <point x="92" y="1470" type="line"/>
      <point x="210" y="1588" type="line" name="av02"/>
      <point x="254" y="1588" type="line"/>
      <point x="535" y="1219" type="line"/>
    </contour>
  </outline>
</glyph>
<glyph name="a" format="2">
  <advance width="1120"/>
  <unicode hex="0061"/>
  <guideline x="1032" y="0" angle="135"/>
  <guideline x="952" y="0" angle="80"/>
  <anchor x="560" y="0" name="AccentBelow"/>
  <anchor x="532" y="1100" name="AccentDefault"/>
  <anchor x="560" y="486" name="AccentMiddle"/>
  <anchor x="650" y="0" name="AccentOgonek"/>
  <outline>
    <contour>
      <point x="730" y="497" type="line" name="sh01"/>
      <point x="652" y="492"/>
      <point x="521" y="454"/>
      <point x="426" y="390"/>
      <point x="374" y="303"/>
      <point x="374" y="250" type="qcurve" name="sh03"/>
      <point x="374" y="200"/>
      <point x="404" y="135"/>
      <point x="449" y="97"/>
      <point x="503" y="82"/>
      <point x="527" y="82" type="qcurve" name="sv01"/>
      <point x="555" y="82"/>
      <point x="615" y="102"/>
      <point x="670" y="135"/>
      <point x="715" y="177"/>
      <point x="730" y="199" type="qcurve"/>
    </contour>
    <contour>
      <point x="128" y="852" type="line" name="ih01"/>
      <point x="173" y="888"/>
      <point x="275" y="944"/>
      <point x="384" y="983"/>
      <point x="499" y="1004"/>
      <point x="556" y="1004" type="qcurve" name="at01"/>
      <point x="640" y="1004"/>
      <point x="803" y="952"/>
      <point x="932" y="851"/>
      <point x="1012" y="704"/>
      <point x="1012" y="609" type="qcurve" name="sh04"/>
      <point x="1012" y="150" type="line"/>
      <point x="1012" y="116"/>
      <point x="1046" y="82"/>
      <point x="1084" y="82" type="qcurve" name="sv02"/>
      <point x="1064" y="-30" type="line" name="ab01"/>
      <point x="989" y="-30"/>
      <point x="887" y="-13"/>
      <point x="818" y="17"/>
      <point x="776" y="58"/>
      <point x="761" y="82" type="qcurve"/>
      <point x="735" y="60"/>
      <point x="672" y="20"/>
      <point x="595" y="-11"/>
      <point x="501" y="-30"/>
      <point x="446" y="-30" type="qcurve" name="ab02"/>
      <point x="374" y="-30"/>
      <point x="242" y="6"/>
      <point x="141" y="75"/>
      <point x="82" y="175"/>
      <point x="82" y="239" type="qcurve" name="sh02"/>
      <point x="82" y="323"/>
      <point x="175" y="455"/>
      <point x="345" y="546"/>
      <point x="584" y="596"/>
      <point x="730" y="599" type="qcurve" name="ah01"/>
      <point x="730" y="668" type="line"/>
      <point x="730" y="717"/>
      <point x="706" y="799"/>
      <point x="657" y="859"/>
      <point x="584" y="892"/>
      <point x="536" y="892" type="qcurve" name="sv03"/>
      <point x="509" y="892"/>
      <point x="435" y="875"/>
      <point x="356" y="838"/>
      <point x="275" y="780"/>
      <point x="240" y="740" type="qcurve"/>
    </contour>
  </outline>
</glyph>
<glyph name="b" format="2">
  <advance width="1120"/>
  <unicode hex="0062"/>
  <outline>
    <contour>
      <point x="100" y="1464" type="line"/>
      <point x="322" y="1494" type="line"/>
      <point x="382" y="1494" type="line"/>
      <point x="382" y="962" type="line"/>
      <point x="425" y="982"/>
      <point x="529" y="1004"/>
      <point x="592" y="1004" type="qcurve"/>
      <point x="695" y="1004"/>
      <point x="868" y="929"/>
      <point x="994" y="793"/>
      <point x="1064" y="602"/>
      <point x="1064" y="487" type="qcurve"/>
      <point x="1064" y="355"/>
      <point x="985" y="160"/>
      <point x="848" y="32"/>
      <point x="664" y="-30"/>
      <point x="559" y="-30" type="qcurve"/>
      <point x="509" y="-30"/>
      <point x="406" y="-16"/>
      <point x="293" y="18"/>
      <point x="169" y="77"/>
      <point x="100" y="122" type="qcurve"/>
    </contour>
    <contour>
      <point x="382" y="852" type="qcurve"/>
      <point x="382" y="122" type="line"/>
      <point x="408" y="99"/>
      <point x="492" y="82"/>
      <point x="539" y="82" type="qcurve"/>
      <point x="586" y="82"/>
      <point x="670" y="131"/>
      <point x="734" y="231"/>
      <point x="772" y="383"/>
      <point x="772" y="487" type="qcurve"/>
      <point x="772" y="574"/>
      <point x="741" y="723"/>
      <point x="683" y="831"/>
      <point x="597" y="892"/>
      <point x="542" y="892" type="qcurve"/>
      <point x="483" y="892"/>
      <point x="411" y="870"/>
    </contour>
  </outline>
</glyph>
<glyph name="c" format="2">
  <advance width="1024"/>
  <unicode hex="0063"/>
  <outline>
    <contour>
      <point x="828" y="740" type="line"/>
      <point x="811" y="767"/>
      <point x="769" y="821"/>
      <point x="714" y="865"/>
      <point x="644" y="892"/>
      <point x="600" y="892" type="qcurve"/>
      <point x="550" y="892"/>
      <point x="462" y="836"/>
      <point x="396" y="731"/>
      <point x="358" y="581"/>
      <point x="358" y="487" type="qcurve"/>
      <point x="358" y="393"/>
      <point x="396" y="243"/>
      <point x="462" y="138"/>
      <point x="550" y="82"/>
      <point x="600" y="82" type="qcurve"/>
      <point x="648" y="82"/>
      <point x="718" y="109"/>
      <point x="771" y="152"/>
      <point x="811" y="206"/>
      <point x="828" y="234" type="qcurve"/>
      <point x="941" y="122" type="line"/>
      <point x="912" y="90"/>
      <point x="844" y="34"/>
      <point x="755" y="-7"/>
      <point x="643" y="-30"/>
      <point x="570" y="-30" type="qcurve"/>
      <point x="455" y="-30"/>
      <point x="269" y="47"/>
      <point x="137" y="185"/>
      <point x="66" y="374"/>
      <point x="66" y="487" type="qcurve"/>
      <point x="66" y="599"/>
      <point x="137" y="789"/>
      <point x="269" y="927"/>
      <point x="455" y="1004"/>
      <point x="570" y="1004" type="qcurve"/>
      <point x="642" y="1004"/>
      <point x="755" y="980"/>
      <point x="844" y="939"/>
      <point x="913" y="883"/>
      <point x="941" y="852" type="qcurve"/>
    </contour>
  </outline>
</glyph>
<glyph name="e" format="2">
  <advance width="1024"/>
  <unicode hex="0065"/>
  <outline>
    <contour>
      <point x="580" y="82" type="qcurve"/>
      <point x="620" y="82"/>
      <point x="689" y="109"/>
      <point x="746" y="152"/>
      <point x="791" y="206"/>
      <point x="808" y="234" type="qcurve"/>
      <point x="921" y="122" type="line"/>
      <point x="892" y="90"/>
      <point x="818" y="34"/>
      <point x="726" y="-7"/>
      <point x="615" y="-30"/>
      <point x="550" y="-30" type="qcurve"/>
      <point x="435" y="-30"/>
      <point x="252" y="47"/>
      <point x="124" y="185"/>
      <point x="56" y="374"/>
      <point x="56" y="487" type="qcurve"/>
      <point x="56" y="599"/>
      <point x="127" y="789"/>
      <point x="259" y="927"/>
      <point x="445" y="1004"/>
      <point x="560" y="1004" type="qcurve"/>
      <point x="632" y="1004"/>
      <point x="777" y="949"/>
      <point x="894" y="827"/>
      <point x="968" y="629"/>
      <point x="968" y="487" type="qcurve"/>
      <point x="338" y="487" type="line"/>
      <point x="338" y="371"/>
      <point x="382" y="215"/>
      <point x="452" y="121"/>
      <point x="538" y="82"/>
    </contour>
    <contour>
      <point x="550" y="892" type="qcurve"/>
      <point x="510" y="892"/>
      <point x="434" y="855"/>
      <point x="374" y="781"/>
      <point x="338" y="671"/>
      <point x="338" y="599" type="qcurve"/>
      <point x="726" y="599" type="line"/>
      <point x="726" y="677"/>
      <point x="698" y="789"/>
      <point x="650" y="859"/>
      <point x="586" y="892"/>
    </contour>
  </outline>
</glyph>
<glyph name="f" format="2">
  <advance width="736"/>
  <unicode hex="0066"/>
  <outline>
    <contour>
      <point x="72" y="1004" type="line"/>
      <point x="188" y="1004" type="line"/>
      <point x="188" y="1153"/>
      <point x="273" y="1344"/>
      <point x="420" y="1453"/>
      <point x="620" y="1494"/>
      <point x="734" y="1494" type="qcurve"/>
      <point x="714" y="1382" type="line"/>
      <point x="659" y="1382"/>
      <point x="569" y="1356"/>
      <point x="505" y="1293"/>
      <point x="470" y="1189"/>
      <point x="470" y="1111" type="qcurve"/>
      <point x="470" y="1004" type="line"/>
      <point x="646" y="1004" type="line"/>
      <point x="623" y="865" type="line"/>
      <point x="470" y="873" type="line"/>
      <point x="470" y="0" type="line"/>
      <point x="188" y="0" type="line"/>
      <point x="188" y="886" type="line"/>
      <point x="52" y="892" type="line"/>
    </contour>
  </outline>
</glyph>
<glyph name="g" format="2">
  <advance width="1120"/>
  <unicode hex="0067"/>
  <anchor x="560" y="-400" name="AccentBelow"/>
  <anchor x="512" y="1100" name="AccentDefault"/>
  <anchor x="512" y="486" name="AccentMiddle"/>
  <outline>
    <contour>
      <point x="524" y="974" type="qcurve"/>
      <point x="554" y="974"/>
      <point x="619" y="958"/>
      <point x="679" y="936"/>
      <point x="726" y="911"/>
      <point x="738" y="901" type="qcurve"/>
      <point x="738" y="974" type="line"/>
      <point x="960" y="1004" type="line"/>
      <point x="1020" y="1004" type="line"/>
      <point x="1020" y="49" type="line"/>
      <point x="1020" y="-80"/>
      <point x="940" y="-281"/>
      <point x="801" y="-418"/>
      <point x="611" y="-490"/>
      <point x="501" y="-490" type="qcurve"/>
      <point x="395" y="-490"/>
      <point x="197" y="-414"/>
      <point x="112" y="-338" type="qcurve"/>
      <point x="225" y="-226" type="line"/>
      <point x="250" y="-258"/>
      <point x="316" y="-308"/>
      <point x="387" y="-341"/>
      <point x="459" y="-358"/>
      <point x="491" y="-358" type="qcurve"/>
      <point x="538" y="-358"/>
      <point x="627" y="-329"/>
      <point x="696" y="-257"/>
      <point x="738" y="-134"/>
      <point x="738" y="-40" type="qcurve"/>
      <point x="738" y="80" type="line"/>
      <point x="696" y="42"/>
      <point x="583" y="0"/>
      <point x="523" y="0" type="qcurve"/>
      <point x="426" y="0"/>
      <point x="256" y="61"/>
      <point x="129" y="183"/>
      <point x="56" y="366"/>
      <point x="56" y="487" type="qcurve"/>
      <point x="56" y="602"/>
      <point x="127" y="783"/>
      <point x="253" y="908"/>
      <point x="424" y="974"/>
    </contour>
    <contour>
      <point x="738" y="791" type="line"/>
      <point x="712" y="822"/>
      <point x="632" y="862"/>
      <point x="572" y="862" type="qcurve"/>
      <point x="522" y="862"/>
      <point x="440" y="813"/>
      <point x="381" y="719"/>
      <point x="348" y="578"/>
      <point x="348" y="487" type="qcurve"/>
      <point x="348" y="386"/>
      <point x="387" y="244"/>
      <point x="450" y="154"/>
      <point x="531" y="112"/>
      <point x="572" y="112" type="qcurve"/>
      <point x="633" y="112"/>
      <point x="712" y="153"/>
      <point x="738" y="182" type="qcurve"/>
    </contour>
  </outline>
</glyph>
<glyph name="i" format="2">
  <advance width="576"/>
  <unicode hex="0069"/>
  <anchor x="288" y="0" name="AccentBelow"/>
  <anchor x="288" y="1600" name="AccentDefault"/>
  <anchor x="288" y="486" name="AccentMiddle"/>
  <anchor x="50" y="0" name="AccentOgonek"/>
  <outline>
    <contour>
      <point x="147" y="974" type="line"/>
      <point x="369" y="1004" type="line"/>
      <point x="429" y="1004" type="line"/>
      <point x="429" y="0" type="line"/>
      <point x="147" y="0" type="line"/>
    </contour>
    <contour>
      <point x="142" y="1288" type="qcurve"/>
      <point x="142" y="1318"/>
      <point x="165" y="1372"/>
      <point x="204" y="1411"/>
      <point x="258" y="1434"/>
      <point x="288" y="1434" type="qcurve"/>
      <point x="318" y="1434"/>
      <point x="372" y="1411"/>
      <point x="411" y="1372"/>
      <point x="434" y="1318"/>
      <point x="434" y="1288" type="qcurve"/>
      <point x="434" y="1258"/>
      <point x="411" y="1204"/>
      <point x="372" y="1165"/>
      <point x="318" y="1142"/>
      <point x="288" y="1142" type="qcurve"/>
      <point x="258" y="1142"/>
      <point x="204" y="1165"/>
      <point x="165" y="1204"/>
      <point x="142" y="1258"/>
    </contour>
  </outline>
</glyph>
<glyph name="j" format="2">
  <advance width="576"/>
  <unicode hex="006A"/>
  <outline>
    <contour>
      <point x="152" y="974" type="line"/>
      <point x="374" y="1004" type="line"/>
      <point x="434" y="1004" type="line"/>
      <point x="434" y="-76" type="line"/>
      <point x="434" y="-202"/>
      <point x="387" y="-362"/>
      <point x="287" y="-455"/>
      <point x="128" y="-490"/>
      <point x="17" y="-490" type="qcurve"/>
      <point x="37" y="-378" type="line"/>
      <point x="70" y="-378"/>
      <point x="115" y="-363"/>
      <point x="141" y="-323"/>
      <point x="152" y="-250"/>
      <point x="152" y="-191" type="qcurve"/>
    </contour>
    <contour>
      <point x="147" y="1288" type="qcurve"/>
      <point x="147" y="1318"/>
      <point x="170" y="1372"/>
      <point x="209" y="1411"/>
      <point x="263" y="1434"/>
      <point x="293" y="1434" type="qcurve"/>
      <point x="323" y="1434"/>
      <point x="377" y="1411"/>
      <point x="416" y="1372"/>
      <point x="439" y="1318"/>
      <point x="439" y="1288" type="qcurve"/>
      <point x="439" y="1258"/>
      <point x="416" y="1204"/>
      <point x="377" y="1165"/>
      <point x="323" y="1142"/>
      <point x="293" y="1142" type="qcurve"/>
      <point x="263" y="1142"/>
      <point x="209" y="1165"/>
      <point x="170" y="1204"/>
      <point x="147" y="1258"/>
    </contour>
  </outline>
</glyph>
<glyph name="k" format="2">
  <advance width="1024"/>
  <unicode hex="006B"/>
  <outline>
    <contour>
      <point x="1024" y="0" type="line"/>
      <point x="734" y="-30" type="line"/>
      <point x="449" y="463" type="line"/>
      <point x="382" y="396" type="line"/>
      <point x="382" y="0" type="line"/>
      <point x="100" y="0" type="line"/>
      <point x="100" y="1464" type="line"/>
      <point x="322" y="1494" type="line"/>
      <point x="382" y="1494" type="line"/>
      <point x="382" y="582" type="line"/>
      <point x="803" y="1004" type="line"/>
      <point x="961" y="973" type="line"/>
      <point x="645" y="658" type="line"/>
    </contour>
  </outline>
</glyph>
<glyph name="l" format="2">
  <advance width="576"/>
  <unicode hex="006C"/>
  <outline>
    <contour>
      <point x="417" y="1494" type="line"/>
      <point x="417" y="269" type="line"/>
      <point x="417" y="221"/>
      <point x="435" y="151"/>
      <point x="477" y="104"/>
      <point x="545" y="82"/>
      <point x="596" y="82" type="qcurve"/>
      <point x="576" y="-30" type="line"/>
      <point x="435" y="-30"/>
      <point x="261" y="13"/>
      <point x="167" y="103"/>
      <point x="135" y="244"/>
      <point x="135" y="342" type="qcurve"/>
      <point x="135" y="1464" type="line"/>
      <point x="357" y="1494" type="line"/>
    </contour>
  </outline>
</glyph>
<glyph name="n" format="2">
  <advance width="1120"/>
  <unicode hex="006E"/>
  <outline>
    <contour>
      <point x="100" y="944" type="line"/>
      <point x="322" y="974" type="line"/>
      <point x="382" y="974" type="line"/>
      <point x="382" y="892" type="line"/>
      <point x="408" y="914"/>
      <point x="472" y="955"/>
      <point x="544" y="986"/>
      <point x="620" y="1004"/>
      <point x="659" y="1004" type="qcurve"/>
      <point x="740" y="1004"/>
      <point x="871" y="960"/>
      <point x="963" y="877"/>
      <point x="1012" y="757"/>
      <point x="1012" y="680" type="qcurve"/>
      <point x="1012" y="172" type="line"/>
      <point x="1012" y="124"/>
      <point x="1040" y="82"/>
      <point x="1084" y="82" type="qcurve"/>
      <point x="1064" y="-30" type="line"/>
      <point x="969" y="-30"/>
      <point x="841" y="12"/>
      <point x="763" y="86"/>
      <point x="730" y="187"/>
      <point x="730" y="247" type="qcurve"/>
      <point x="730" y="724" type="line"/>
      <point x="730" y="802"/>
      <point x="664" y="892"/>
      <point x="597" y="892" type="qcurve"/>
      <point x="564" y="892"/>
      <point x="499" y="868"/>
      <point x="441" y="832"/>
      <point x="395" y="789"/>
      <point x="382" y="770" type="qcurve"/>
      <point x="382" y="0" type="line"/>
      <point x="100" y="0" type="line"/>
    </contour>
  </outline>
</glyph>
<glyph name="q" format="2">
  <advance width="1120"/>
  <unicode hex="0071"/>
  <outline>
    <contour>
      <point x="738" y="851" type="line"/>
      <point x="716" y="867"/>
      <point x="632" y="892"/>
      <point x="572" y="892" type="qcurve"/>
      <point x="522" y="892"/>
      <point x="440" y="834"/>
      <point x="381" y="728"/>
      <point x="348" y="578"/>
      <point x="348" y="487" type="qcurve"/>
      <point x="348" y="386"/>
      <point x="387" y="234"/>
      <point x="450" y="133"/>
      <point x="531" y="82"/>
      <point x="572" y="82" type="qcurve"/>
      <point x="602" y="82"/>
      <point x="652" y="96"/>
      <point x="693" y="119"/>
      <point x="725" y="148"/>
      <point x="738" y="163" type="qcurve"/>
    </contour>
    <contour>
      <point x="524" y="1004" type="qcurve"/>
      <point x="661" y="1004"/>
      <point x="903" y="929"/>
      <point x="1020" y="851" type="qcurve"/>
      <point x="1020" y="-460" type="line"/>
      <point x="798" y="-490" type="line"/>
      <point x="738" y="-490" type="line"/>
      <point x="738" y="51" type="line"/>
      <point x="696" y="13"/>
      <point x="583" y="-30"/>
      <point x="523" y="-30" type="qcurve"/>
      <point x="426" y="-30"/>
      <point x="256" y="41"/>
      <point x="129" y="174"/>
      <point x="56" y="366"/>
      <point x="56" y="487" type="qcurve"/>
      <point x="56" y="602"/>
      <point x="127" y="792"/>
      <point x="253" y="929"/>
      <point x="424" y="1004"/>
    </contour>
  </outline>
</glyph>
<glyph name="r" format="2">
  <advance width="736"/>
  <unicode hex="0072"/>
  <outline>
    <contour>
      <point x="382" y="974" type="line"/>
      <point x="382" y="826" type="line"/>
      <point x="397" y="859"/>
      <point x="440" y="923"/>
      <point x="493" y="973"/>
      <point x="557" y="1004"/>
      <point x="593" y="1004" type="qcurve"/>
      <point x="618" y="1004"/>
      <point x="660" y="993"/>
      <point x="694" y="975"/>
      <point x="720" y="954"/>
      <point x="730" y="944" type="qcurve"/>
      <point x="694" y="740" type="line"/>
      <point x="683" y="751"/>
      <point x="651" y="767"/>
      <point x="615" y="777"/>
      <point x="581" y="782"/>
      <point x="568" y="782" type="qcurve"/>
      <point x="518" y="782"/>
      <point x="447" y="745"/>
      <point x="402" y="689"/>
      <point x="382" y="623"/>
      <point x="382" y="595" type="qcurve"/>
      <point x="382" y="0" type="line"/>
      <point x="100" y="0" type="line"/>
      <point x="100" y="944" type="line"/>
      <point x="322" y="974" type="line"/>
    </contour>
  </outline>
</glyph>
<glyph name="s" format="2">
  <advance width="864"/>
  <unicode hex="0073"/>
  <outline>
    <contour>
      <point x="147" y="234" type="line"/>
      <point x="173" y="187"/>
      <point x="230" y="128"/>
      <point x="289" y="94"/>
      <point x="348" y="82"/>
      <point x="377" y="82" type="qcurve"/>
      <point x="409" y="82"/>
      <point x="472" y="101"/>
      <point x="523" y="140"/>
      <point x="555" y="201"/>
      <point x="555" y="242" type="qcurve"/>
      <point x="555" y="300"/>
      <point x="461" y="378"/>
      <point x="367" y="413" type="qcurve"/>
      <point x="318" y="431"/>
      <point x="223" y="489"/>
      <point x="149" y="568"/>
      <point x="104" y="671"/>
      <point x="104" y="735" type="qcurve"/>
      <point x="104" y="797"/>
      <point x="152" y="897"/>
      <point x="238" y="967"/>
      <point x="355" y="1004"/>
      <point x="423" y="1004" type="qcurve"/>
      <point x="491" y="1004"/>
      <point x="599" y="983"/>
      <point x="689" y="944"/>
      <point x="766" y="888"/>
      <point x="802" y="852" type="qcurve"/>
      <point x="687" y="740" type="line"/>
      <point x="644" y="819"/>
      <point x="529" y="892"/>
      <point x="466" y="892" type="qcurve"/>
      <point x="446" y="892"/>
      <point x="404" y="875"/>
      <point x="369" y="840"/>
      <point x="346" y="788"/>
      <point x="346" y="753" type="qcurve"/>
      <point x="346" y="723"/>
      <point x="374" y="673"/>
      <point x="417" y="634"/>
      <point x="468" y="606"/>
      <point x="492" y="597" type="qcurve"/>
      <point x="573" y="568"/>
      <point x="692" y="500"/>
      <point x="769" y="417"/>
      <point x="807" y="319"/>
      <point x="807" y="260" type="qcurve"/>
      <point x="807" y="193"/>
      <point x="745" y="85"/>
      <point x="640" y="10"/>
      <point x="501" y="-30"/>
      <point x="424" y="-30" type="qcurve"/>
      <point x="360" y="-30"/>
      <point x="252" y="-13"/>
      <point x="158" y="24"/>
      <point x="74" y="82"/>
      <point x="34" y="122" type="qcurve"/>
    </contour>
  </outline>
</glyph>
<glyph name="t" format="2">
  <advance width="736"/>
  <unicode hex="0074"/>
  <anchor x="432" y="0" name="AccentBelow"/>
  <anchor x="432" y="0" name="AccentCedilla"/>
  <anchor x="336" y="1600" name="AccentDefault"/>
  <anchor x="336" y="486" name="AccentMiddle"/>
  <outline>
    <contour>
      <point x="470" y="1322" type="line"/>
      <point x="470" y="1004" type="line"/>
      <point x="674" y="1004" type="line"/>
      <point x="649" y="865" type="line"/>
      <point x="470" y="873" type="line"/>
      <point x="470" y="269" type="line"/>
      <point x="470" y="221"/>
      <point x="488" y="151"/>
      <point x="530" y="104"/>
      <point x="598" y="82"/>
      <point x="649" y="82" type="qcurve"/>
      <point x="629" y="-30" type="line"/>
      <point x="488" y="-30"/>
      <point x="314" y="13"/>
      <point x="220" y="103"/>
      <point x="188" y="244"/>
      <point x="188" y="342" type="qcurve"/>
      <point x="188" y="885" type="line"/>
      <point x="52" y="892" type="line"/>
      <point x="72" y="1004" type="line"/>
      <point x="188" y="1004" type="line"/>
      <point x="188" y="1292" type="line"/>
      <point x="410" y="1322" type="line"/>
    </contour>
  </outline>
</glyph>
<glyph name="u" format="2">
  <advance width="1120"/>
  <unicode hex="0075"/>
  <anchor x="560" y="0" name="AccentBelow"/>
  <anchor x="560" y="1100" name="AccentDefault"/>
  <anchor x="560" y="486" name="AccentMiddle"/>
  <anchor x="650" y="0" name="AccentOgonek"/>
  <outline>
    <contour>
      <point x="382" y="1004" type="line"/>
      <point x="382" y="258" type="line"/>
      <point x="382" y="204"/>
      <point x="406" y="135"/>
      <point x="442" y="96"/>
      <point x="485" y="82"/>
      <point x="504" y="82" type="qcurve"/>
      <point x="540" y="82"/>
      <point x="606" y="103"/>
      <point x="665" y="137"/>
      <point x="713" y="183"/>
      <point x="730" y="208" type="qcurve"/>
      <point x="730" y="974" type="line"/>
      <point x="952" y="1004" type="line"/>
      <point x="1012" y="1004" type="line"/>
      <point x="1012" y="165" type="line"/>
      <point x="1012" y="117"/>
      <point x="1042" y="82"/>
      <point x="1084" y="82" type="qcurve"/>
      <point x="1064" y="-30" type="line"/>
      <point x="997" y="-30"/>
      <point x="900" y="-11"/>
      <point x="831" y="21"/>
      <point x="787" y="61"/>
      <point x="773" y="82" type="qcurve"/>
      <point x="749" y="62"/>
      <point x="682" y="23"/>
      <point x="603" y="-10"/>
      <point x="511" y="-30"/>
      <point x="462" y="-30" type="qcurve"/>
      <point x="390" y="-30"/>
      <point x="259" y="6"/>
      <point x="159" y="85"/>
      <point x="100" y="210"/>
      <point x="100" y="298" type="qcurve"/>
      <point x="100" y="974" type="line"/>
      <point x="322" y="1004" type="line"/>
    </contour>
  </outline>
</glyph>
<glyph name="v" format="2">
  <advance width="1024"/>
  <unicode hex="0076"/>
  <outline>
    <contour>
      <point x="332" y="1004" type="line"/>
      <point x="586" y="308" type="line"/>
      <point x="839" y="1004" type="line"/>
      <point x="981" y="974" type="line"/>
      <point x="627" y="0" type="line"/>
      <point x="397" y="0" type="line"/>
      <point x="42" y="974" type="line"/>
    </contour>
  </outline>
</glyph>
<glyph name="w" format="2">
  <advance width="1440"/>
  <unicode hex="0077"/>
  <guideline x="0" y="287" angle="0"/>
  <guideline x="898" y="0" angle="106"/>
  <guideline x="608" y="0" angle="106"/>
  <guideline x="1128" y="0" angle="74"/>
  <guideline x="540" y="0" angle="74"/>
  <guideline x="979" y="0" angle="74"/>
  <guideline x="310" y="0" angle="106"/>
  <guideline x="1195" y="0" angle="106"/>
  <guideline x="391" y="0" angle="74"/>
  <guideline x="760" y="0" angle="90"/>
  <anchor x="752" y="0" name="AccentBelow"/>
  <anchor x="752" y="1100" name="AccentDefault"/>
  <anchor x="752" y="486" name="AccentMiddle"/>
  <outline>
    <contour>
      <point x="908" y="1004" type="line" name="dh06"/>
      <point x="1087" y="368" type="line" name="sv01"/>
      <point x="1267" y="1004" type="line" name="at01"/>
      <point x="1409" y="974" type="line" name="sh01"/>
      <point x="1128" y="0" type="line" name="dh03"/>
      <point x="898" y="0" type="line" name="dh04"/>
      <point x="719" y="621" type="line" name="av01"/>
      <point x="540" y="0" type="line" name="dh02"/>
      <point x="310" y="0" type="line" name="dh01"/>
      <point x="30" y="974" type="line" name="sh02"/>
      <point x="320" y="1004" type="line" name="mh01"/>
      <point x="499" y="368" type="line" name="av02"/>
      <point x="679" y="1004" type="line" name="dh05"/>
    </contour>
  </outline>
</glyph>
<glyph name="x" format="2">
  <advance width="1024"/>
  <unicode hex="0078"/>
  <outline>
    <contour>
      <point x="304" y="1004" type="line"/>
      <point x="530" y="683" type="line"/>
      <point x="755" y="1004" type="line"/>
      <point x="895" y="974" type="line"/>
      <point x="611" y="569" type="line"/>
      <point x="1007" y="0" type="line"/>
      <point x="718" y="-30" type="line"/>
      <point x="455" y="346" type="line"/>
      <point x="192" y="-30" type="line"/>
      <point x="52" y="0" type="line"/>
      <point x="374" y="460" type="line"/>
      <point x="16" y="974" type="line"/>
    </contour>
  </outline>
</glyph>
<glyph name="y" format="2">
  <advance width="960"/>
  <unicode hex="0079"/>
  <outline>
    <contour>
      <point x="334" y="1004" type="line"/>
      <point x="581" y="385" type="line"/>
      <point x="782" y="1004" type="line"/>
      <point x="923" y="974" type="line"/>
      <point x="597" y="-30" type="line"/>
      <point x="553" y="-167"/>
      <point x="455" y="-344"/>
      <point x="336" y="-449"/>
      <point x="191" y="-490"/>
      <point x="81" y="-490" type="qcurve"/>
      <point x="101" y="-378" type="line"/>
      <point x="154" y="-378"/>
      <point x="264" y="-340"/>
      <point x="350" y="-252"/>
      <point x="420" y="-109"/>
      <point x="455" y="-3" type="qcurve"/>
      <point x="41" y="974" type="line"/>
    </contour>
  </outline>
</glyph>
<glyph name="z" format="2">
  <advance width="960"/>
  <unicode hex="007A"/>
  <outline>
    <contour>
      <point x="30" y="60" type="line"/>
      <point x="591" y="862" type="line"/>
      <point x="83" y="835" type="line"/>
      <point x="107" y="974" type="line"/>
      <point x="930" y="974" type="line"/>
      <point x="930" y="914" type="line"/>
      <point x="360" y="112" type="line"/>
      <point x="929" y="141" type="line"/>
      <point x="905" y="0" type="line"/>
      <point x="30" y="0" type="line"/>
    </contour>
  </outline>
</glyph>
<glyph name="braceleft" format="2">
  <advance width="736"/>
  <unicode hex="007B"/>
  <outline>
    <contour>
      <point x="652" y="1342" type="line"/>
      <point x="594" y="1342"/>
      <point x="527" y="1321"/>
      <point x="494" y="1276"/>
      <point x="486" y="1204"/>
      <point x="486" y="1153" type="qcurve"/>
      <point x="486" y="917" type="line"/>
      <point x="486" y="805"/>
      <point x="390" y="648"/>
      <point x="279" y="593" type="qcurve"/>
      <point x="390" y="537"/>
      <point x="486" y="381"/>
      <point x="486" y="269" type="qcurve"/>
      <point x="486" y="21" type="line"/>
      <point x="486" y="-29"/>
      <point x="494" y="-97"/>
      <point x="527" y="-138"/>
      <point x="593" y="-156"/>
      <point x="652" y="-156" type="qcurve"/>
      <point x="674" y="-278" type="line"/>
      <point x="557" y="-278"/>
      <point x="391" y="-250"/>
      <point x="284" y="-179"/>
      <point x="234" y="-58"/>
      <point x="234" y="36" type="qcurve"/>
      <point x="234" y="230" type="line"/>
      <point x="234" y="297"/>
      <point x="225" y="408"/>
      <point x="187" y="488"/>
      <point x="111" y="532"/>
      <point x="45" y="532" type="qcurve"/>
      <point x="45" y="654" type="line"/>
      <point x="111" y="654"/>
      <point x="187" y="698"/>
      <point x="225" y="778"/>
      <point x="234" y="889"/>
      <point x="234" y="956" type="qcurve"/>
      <point x="234" y="1140" type="line"/>
      <point x="234" y="1233"/>
      <point x="284" y="1358"/>
      <point x="391" y="1433"/>
      <point x="557" y="1464"/>
      <point x="674" y="1464" type="qcurve"/>
    </contour>
  </outline>
</glyph>
<glyph name="bar" format="2">
  <advance width="736"/>
  <unicode hex="007C"/>
  <outline>
    <contour>
      <point x="483" y="1682" type="line"/>
      <point x="483" y="-278" type="line"/>
      <point x="231" y="-278" type="line"/>
      <point x="231" y="1682" type="line"/>
    </contour>
  </outline>
</glyph>
<glyph name="braceright" format="2">
  <advance width="736"/>
  <unicode hex="007D"/>
  <outline>
    <contour>
      <point x="65" y="1464" type="line"/>
      <point x="182" y="1464"/>
      <point x="348" y="1433"/>
      <point x="455" y="1358"/>
      <point x="505" y="1233"/>
      <point x="505" y="1140" type="qcurve"/>
      <point x="505" y="956" type="line"/>
      <point x="505" y="889"/>
      <point x="514" y="778"/>
      <point x="552" y="698"/>
      <point x="628" y="654"/>
      <point x="694" y="654" type="qcurve"/>
      <point x="694" y="532" type="line"/>
      <point x="628" y="532"/>
      <point x="552" y="488"/>
      <point x="514" y="408"/>
      <point x="505" y="297"/>
      <point x="505" y="230" type="qcurve"/>
      <point x="505" y="36" type="line"/>
      <point x="505" y="-58"/>
      <point x="455" y="-179"/>
      <point x="348" y="-250"/>
      <point x="182" y="-278"/>
      <point x="65" y="-278" type="qcurve"/>
      <point x="87" y="-156" type="line"/>
      <point x="146" y="-156"/>
      <point x="212" y="-138"/>
      <point x="245" y="-97"/>
      <point x="253" y="-29"/>
      <point x="253" y="21" type="qcurve"/>
      <point x="253" y="269" type="line"/>
      <point x="253" y="381"/>
      <point x="349" y="537"/>
      <point x="460" y="593" type="qcurve"/>
      <point x="349" y="648"/>
      <point x="253" y="805"/>
      <point x="253" y="917" type="qcurve"/>
      <point x="253" y="1153" type="line"/>
      <point x="253" y="1204"/>
      <point x="245" y="1276"/>
      <point x="212" y="1321"/>
      <point x="145" y="1342"/>
      <point x="87" y="1342" type="qcurve"/>
    </contour>
  </outline>
</glyph>
<glyph name="asciitilde" format="2">
  <advance width="1248"/>
  <unicode hex="007E"/>
  <outline>
    <contour>
      <point x="62" y="386" type="line"/>
      <point x="62" y="427"/>
      <point x="105" y="526"/>
      <point x="188" y="611"/>
      <point x="310" y="669"/>
      <point x="388" y="669" type="qcurve"/>
      <point x="446" y="669"/>
      <point x="538" y="642"/>
      <point x="616" y="602"/>
      <point x="682" y="554"/>
      <point x="748" y="514"/>
      <point x="818" y="487"/>
      <point x="859" y="487" type="qcurve"/>
      <point x="903" y="487"/>
      <point x="972" y="518"/>
      <point x="1019" y="569"/>
      <point x="1044" y="634"/>
      <point x="1044" y="669" type="qcurve"/>
      <point x="1106" y="669" type="line"/>
      <point x="1186" y="589" type="line"/>
      <point x="1186" y="548"/>
      <point x="1143" y="449"/>
      <point x="1059" y="363"/>
      <point x="937" y="305"/>
      <point x="858" y="305" type="qcurve"/>
      <point x="796" y="305"/>
      <point x="702" y="332"/>
      <point x="627" y="372"/>
      <point x="564" y="420"/>
      <point x="501" y="460"/>
      <point x="431" y="487"/>
      <point x="387" y="487" type="qcurve"/>
      <point x="343" y="487"/>
      <point x="275" y="456"/>
      <point x="229" y="405"/>
      <point x="204" y="340"/>
      <point x="204" y="305" type="qcurve"/>
      <point x="142" y="305" type="line"/>
    </contour>
  </outline>
</glyph>
<glyph name="exclamdown" format="2">
  <advance width="736"/>
  <unicode hex="00A1"/>
  <outline>
    <contour>
      <point x="549" y="599" type="line"/>
      <point x="649" y="-460" type="line"/>
      <point x="619" y="-490" type="line"/>
      <point x="327" y="-490" type="line"/>
      <point x="297" y="-460" type="line"/>
      <point x="397" y="599" type="line"/>
    </contour>
    <contour>
      <point x="619" y="858" type="qcurve"/>
      <point x="619" y="828"/>
      <point x="596" y="774"/>
      <point x="557" y="735"/>
      <point x="503" y="712"/>
      <point x="473" y="712" type="qcurve"/>
      <point x="443" y="712"/>
      <point x="389" y="735"/>
      <point x="350" y="774"/>
      <point x="327" y="828"/>
      <point x="327" y="858" type="qcurve"/>
      <point x="327" y="888"/>
      <point x="350" y="942"/>
      <point x="389" y="981"/>
      <point x="443" y="1004"/>
      <point x="473" y="1004" type="qcurve"/>
      <point x="503" y="1004"/>
      <point x="557" y="981"/>
      <point x="596" y="942"/>
      <point x="619" y="888"/>
    </contour>
  </outline>
</glyph>
<glyph name="cent" format="2">
  <advance width="1120"/>
  <unicode hex="00A2"/>
  <outline>
    <contour>
      <point x="821" y="1226" type="line"/>
      <point x="940" y="1189" type="line"/>
      <point x="864" y="955" type="line"/>
      <point x="906" y="935"/>
      <point x="970" y="882"/>
      <point x="997" y="852" type="qcurve"/>
      <point x="884" y="740" type="line"/>
      <point x="871" y="761"/>
      <point x="840" y="803"/>
      <point x="820" y="822" type="qcurve"/>
      <point x="584" y="98" type="line"/>
      <point x="617" y="82"/>
      <point x="656" y="82" type="qcurve"/>
      <point x="704" y="82"/>
      <point x="774" y="109"/>
      <point x="827" y="152"/>
      <point x="867" y="206"/>
      <point x="884" y="234" type="qcurve"/>
      <point x="997" y="122" type="line"/>
      <point x="968" y="90"/>
      <point x="900" y="34"/>
      <point x="811" y="-7"/>
      <point x="699" y="-30"/>
      <point x="626" y="-30" type="qcurve"/>
      <point x="584" y="-30"/>
      <point x="544" y="-24" type="qcurve"/>
      <point x="476" y="-234" type="line"/>
      <point x="357" y="-197" type="line"/>
      <point x="423" y="6" type="line"/>
      <point x="352" y="34"/>
      <point x="241" y="127"/>
      <point x="163" y="251"/>
      <point x="122" y="401"/>
      <point x="122" y="487" type="qcurve"/>
      <point x="122" y="599"/>
      <point x="193" y="789"/>
      <point x="325" y="927"/>
      <point x="511" y="1004"/>
      <point x="626" y="1004" type="qcurve"/>
      <point x="659" y="1004"/>
      <point x="719" y="999"/>
      <point x="745" y="994" type="qcurve"/>
    </contour>
    <contour>
      <point x="710" y="886" type="line"/>
      <point x="684" y="892"/>
      <point x="656" y="892" type="qcurve"/>
      <point x="606" y="892"/>
      <point x="518" y="836"/>
      <point x="452" y="731"/>
      <point x="414" y="581"/>
      <point x="414" y="487" type="qcurve"/>
      <point x="414" y="393"/>
      <point x="452" y="246"/>
      <point x="484" y="193" type="qcurve"/>
    </contour>
  </outline>
</glyph>
<glyph name="sterling" format="2">
  <advance width="1120"/>
  <unicode hex="00A3"/>
  <outline>
    <contour>
      <point x="111" y="803" type="line"/>
      <point x="306" y="803" type="line"/>
      <point x="306" y="830"/>
      <point x="288" y="906"/>
      <point x="266" y="993"/>
      <point x="248" y="1086"/>
      <point x="248" y="1130" type="qcurve"/>
      <point x="248" y="1203"/>
      <point x="313" y="1325"/>
      <point x="424" y="1414"/>
      <point x="570" y="1464"/>
      <point x="650" y="1464" type="qcurve"/>
      <point x="772" y="1464"/>
      <point x="954" y="1383"/>
      <point x="1023" y="1311" type="qcurve"/>
      <point x="910" y="1201" type="line"/>
      <point x="898" y="1225"/>
      <point x="866" y="1278"/>
      <point x="818" y="1323"/>
      <point x="751" y="1352"/>
      <point x="703" y="1352" type="qcurve"/>
      <point x="622" y="1352"/>
      <point x="540" y="1228"/>
      <point x="540" y="1122" type="qcurve"/>
      <point x="540" y="1090"/>
      <point x="552" y="1003"/>
      <point x="566" y="913"/>
      <point x="578" y="830"/>
      <point x="578" y="803" type="qcurve"/>
      <point x="840" y="803" type="line"/>
      <point x="819" y="678" type="line"/>
      <point x="578" y="694" type="line"/>
      <point x="578" y="603"/>
      <point x="541" y="435"/>
      <point x="482" y="286"/>
      <point x="411" y="161"/>
      <point x="378" y="112" type="qcurve"/>
      <point x="480" y="104"/>
      <point x="643" y="82"/>
      <point x="700" y="82" type="qcurve"/>
      <point x="738" y="82"/>
      <point x="804" y="110"/>
      <point x="857" y="153"/>
      <point x="897" y="207"/>
      <point x="911" y="234" type="qcurve"/>
      <point x="1024" y="122" type="line"/>
      <point x="1007" y="103"/>
      <point x="957" y="51"/>
      <point x="878" y="3"/>
      <point x="765" y="-30"/>
      <point x="686" y="-30" type="qcurve"/>
      <point x="631" y="-30"/>
      <point x="543" y="-26"/>
      <point x="461" y="-19"/>
      <point x="382" y="-11"/>
      <point x="291" y="-4"/>
      <point x="183" y="0"/>
      <point x="115" y="0" type="qcurve"/>
      <point x="96" y="112" type="line"/>
      <point x="132" y="157"/>
      <point x="207" y="261"/>
      <point x="268" y="399"/>
      <point x="306" y="582"/>
      <point x="306" y="707" type="qcurve"/>
      <point x="96" y="718" type="line"/>
    </contour>
  </outline>
</glyph>
<glyph name="currency" format="2">
  <advance width="1024"/>
  <unicode hex="00A4"/>
  <outline>
    <contour>
      <point x="157" y="1189" type="line"/>
      <point x="281" y="1063" type="line"/>
      <point x="387" y="1136"/>
      <point x="510" y="1136" type="qcurve"/>
      <point x="632" y="1136"/>
      <point x="741" y="1059" type="qcurve"/>
      <point x="872" y="1189" type="line"/>
      <point x="968" y="1093" type="line"/>
      <point x="837" y="963" type="line"/>
      <point x="873" y="911"/>
      <point x="909" y="796"/>
      <point x="909" y="738" type="qcurve"/>
      <point x="909" y="678"/>
      <point x="871" y="562"/>
      <point x="835" y="511" type="qcurve"/>
      <point x="968" y="378" type="line"/>
      <point x="872" y="282" type="line"/>
      <point x="741" y="413" type="line"/>
      <point x="634" y="337"/>
      <point x="510" y="337" type="qcurve"/>
      <point x="389" y="337"/>
      <point x="283" y="409" type="qcurve"/>
      <point x="157" y="282" type="line"/>
      <point x="61" y="378" type="line"/>
      <point x="187" y="503" type="line"/>
      <point x="149" y="555"/>
      <point x="112" y="673"/>
      <point x="112" y="736" type="qcurve"/>
      <point x="112" y="862"/>
      <point x="187" y="969" type="qcurve"/>
      <point x="61" y="1093" type="line"/>
    </contour>
    <contour>
      <point x="510" y="954" type="qcurve"/>
      <point x="465" y="954"/>
      <point x="387" y="918"/>
      <point x="328" y="858"/>
      <point x="294" y="779"/>
      <point x="294" y="736" type="qcurve"/>
      <point x="294" y="693"/>
      <point x="328" y="614"/>
      <point x="387" y="554"/>
      <point x="465" y="519"/>
      <point x="510" y="519" type="qcurve"/>
      <point x="553" y="519"/>
      <point x="631" y="553"/>
      <point x="691" y="612"/>
      <point x="727" y="691"/>
      <point x="727" y="736" type="qcurve"/>
      <point x="727" y="779"/>
      <point x="691" y="858"/>
      <point x="631" y="918"/>
      <point x="553" y="954"/>
    </contour>
  </outline>
</glyph>
<glyph name="yen" format="2">
  <advance width="1024"/>
  <unicode hex="00A5"/>
  <outline>
    <contour>
      <point x="296" y="1464" type="line"/>
      <point x="561" y="732" type="line"/>
      <point x="828" y="1464" type="line"/>
      <point x="989" y="1434" type="line"/>
      <point x="822" y="974" type="line"/>
      <point x="989" y="974" type="line"/>
      <point x="967" y="852" type="line"/>
      <point x="778" y="852" type="line"/>
      <point x="709" y="665" type="line"/>
      <point x="989" y="665" type="line"/>
      <point x="968" y="543" type="line"/>
      <point x="668" y="543" type="line"/>
      <point x="668" y="0" type="line"/>
      <point x="356" y="0" type="line"/>
      <point x="356" y="543" type="line"/>
      <point x="35" y="543" type="line"/>
      <point x="56" y="665" type="line"/>
      <point x="315" y="665" type="line"/>
      <point x="247" y="852" type="line"/>
      <point x="35" y="852" type="line"/>
      <point x="57" y="974" type="line"/>
      <point x="202" y="974" type="line"/>
      <point x="35" y="1434" type="line"/>
    </contour>
  </outline>
</glyph>
<glyph name="brokenbar" format="2">
  <advance width="736"/>
  <unicode hex="00A6"/>
  <outline>
    <contour>
      <point x="483" y="1682" type="line"/>
      <point x="483" y="848" type="line"/>
      <point x="231" y="848" type="line"/>
      <point x="231" y="1682" type="line"/>
    </contour>
    <contour>
      <point x="231" y="-278" type="line"/>
      <point x="231" y="556" type="line"/>
      <point x="483" y="556" type="line"/>
      <point x="483" y="-278" type="line"/>
    </contour>
  </outline>
</glyph>
<glyph name="section" format="2">
  <advance width="1024"/>
  <unicode hex="00A7"/>
  <outline>
    <contour>
      <point x="411" y="554" type="qcurve"/>
      <point x="411" y="503"/>
      <point x="447" y="417"/>
      <point x="506" y="343"/>
      <point x="580" y="280"/>
      <point x="618" y="253" type="qcurve"/>
      <point x="677" y="310"/>
      <point x="677" y="419" type="qcurve"/>
      <point x="677" y="472"/>
      <point x="641" y="561"/>
      <point x="582" y="634"/>
      <point x="508" y="695"/>
      <point x="470" y="721" type="qcurve"/>
      <point x="442" y="694"/>
      <point x="411" y="608"/>
    </contour>
    <contour>
      <point x="883" y="-168" type="qcurve"/>
      <point x="883" y="-227"/>
      <point x="836" y="-342"/>
      <point x="746" y="-434"/>
      <point x="613" y="-490"/>
      <point x="527" y="-490" type="qcurve"/>
      <point x="398" y="-490"/>
      <point x="209" y="-404"/>
      <point x="146" y="-338" type="qcurve"/>
      <point x="261" y="-226" type="line"/>
      <point x="283" y="-265"/>
      <point x="341" y="-322"/>
      <point x="399" y="-360"/>
      <point x="454" y="-378"/>
      <point x="474" y="-378" type="qcurve"/>
      <point x="508" y="-378"/>
      <point x="566" y="-351"/>
      <point x="608" y="-308"/>
      <point x="631" y="-253"/>
      <point x="631" y="-224" type="qcurve"/>
      <point x="631" y="-159"/>
      <point x="587" y="-59"/>
      <point x="515" y="23"/>
      <point x="423" y="93"/>
      <point x="327" y="163"/>
      <point x="235" y="239"/>
      <point x="163" y="332"/>
      <point x="119" y="448"/>
      <point x="119" y="524" type="qcurve"/>
      <point x="119" y="577"/>
      <point x="152" y="668"/>
      <point x="209" y="746"/>
      <point x="285" y="813"/>
      <point x="329" y="843" type="qcurve"/>
      <point x="271" y="903"/>
      <point x="205" y="1050"/>
      <point x="205" y="1140" type="qcurve"/>
      <point x="205" y="1199"/>
      <point x="254" y="1315"/>
      <point x="347" y="1407"/>
      <point x="478" y="1464"/>
      <point x="561" y="1464" type="qcurve"/>
      <point x="637" y="1464"/>
      <point x="752" y="1440"/>
      <point x="841" y="1398"/>
      <point x="911" y="1343"/>
      <point x="943" y="1312" type="qcurve"/>
      <point x="828" y="1200" type="line"/>
      <point x="811" y="1233"/>
      <point x="765" y="1288"/>
      <point x="710" y="1329"/>
      <point x="646" y="1352"/>
      <point x="610" y="1352" type="qcurve"/>
      <point x="575" y="1352"/>
      <point x="519" y="1325"/>
      <point x="479" y="1281"/>
      <point x="457" y="1225"/>
      <point x="457" y="1197" type="qcurve"/>
      <point x="457" y="1132"/>
      <point x="501" y="1031"/>
      <point x="573" y="949"/>
      <point x="665" y="879"/>
      <point x="761" y="809"/>
      <point x="853" y="734"/>
      <point x="925" y="641"/>
      <point x="969" y="524"/>
      <point x="969" y="448" type="qcurve"/>
      <point x="969" y="396"/>
      <point x="936" y="305"/>
      <point x="879" y="227"/>
      <point x="803" y="159"/>
      <point x="759" y="129" type="qcurve"/>
      <point x="816" y="70"/>
      <point x="883" y="-78"/>
    </contour>
  </outline>
</glyph>
<glyph name="dieresis" format="2">
  <advance width="768"/>
  <unicode hex="00A8"/>
  <outline>
    <contour>
      <point x="22" y="1302" type="qcurve"/>
      <point x="22" y="1330"/>
      <point x="42" y="1378"/>
      <point x="77" y="1414"/>
      <point x="125" y="1434"/>
      <point x="152" y="1434" type="qcurve"/>
      <point x="180" y="1434"/>
      <point x="228" y="1414"/>
      <point x="264" y="1378"/>
      <point x="284" y="1330"/>
      <point x="284" y="1302" type="qcurve"/>
      <point x="284" y="1275"/>
      <point x="264" y="1227"/>
      <point x="228" y="1192"/>
      <point x="180" y="1172"/>
      <point x="152" y="1172" type="qcurve"/>
      <point x="125" y="1172"/>
      <point x="77" y="1192"/>
      <point x="42" y="1227"/>
      <point x="22" y="1275"/>
    </contour>
    <contour>
      <point x="484" y="1302" type="qcurve"/>
      <point x="484" y="1330"/>
      <point x="504" y="1378"/>
      <point x="539" y="1414"/>
      <point x="587" y="1434"/>
      <point x="614" y="1434" type="qcurve"/>
      <point x="642" y="1434"/>
      <point x="690" y="1414"/>
      <point x="726" y="1378"/>
      <point x="746" y="1330"/>
      <point x="746" y="1302" type="qcurve"/>
      <point x="746" y="1275"/>
      <point x="726" y="1227"/>
      <point x="690" y="1192"/>
      <point x="642" y="1172"/>
      <point x="614" y="1172" type="qcurve"/>
      <point x="587" y="1172"/>
      <point x="539" y="1192"/>
      <point x="504" y="1227"/>
      <point x="484" y="1275"/>
    </contour>
  </outline>
</glyph>
<glyph name="copyright" format="2">
  <advance width="1600"/>
  <unicode hex="00A9"/>
  <outline>
    <contour>
      <point x="52" y="716" type="qcurve"/>
      <point x="52" y="819"/>
      <point x="105" y="1010"/>
      <point x="202" y="1177"/>
      <point x="339" y="1313"/>
      <point x="505" y="1411"/>
      <point x="696" y="1464"/>
      <point x="799" y="1464" type="qcurve"/>
      <point x="902" y="1464"/>
      <point x="1094" y="1411"/>
      <point x="1260" y="1313"/>
      <point x="1397" y="1177"/>
      <point x="1494" y="1010"/>
      <point x="1548" y="819"/>
      <point x="1548" y="716" type="qcurve"/>
      <point x="1548" y="613"/>
      <point x="1494" y="422"/>
      <point x="1397" y="256"/>
      <point x="1260" y="120"/>
      <point x="1094" y="23"/>
      <point x="902" y="-30"/>
      <point x="799" y="-30" type="qcurve"/>
      <point x="696" y="-30"/>
      <point x="505" y="23"/>
      <point x="339" y="120"/>
      <point x="202" y="256"/>
      <point x="105" y="422"/>
      <point x="52" y="613"/>
    </contour>
    <contour>
      <point x="174" y="718" type="qcurve"/>
      <point x="174" y="634"/>
      <point x="220" y="475"/>
      <point x="303" y="336"/>
      <point x="418" y="221"/>
      <point x="557" y="138"/>
      <point x="715" y="92"/>
      <point x="799" y="92" type="qcurve"/>
      <point x="883" y="92"/>
      <point x="1041" y="138"/>
      <point x="1181" y="221"/>
      <point x="1296" y="336"/>
      <point x="1380" y="475"/>
      <point x="1426" y="634"/>
      <point x="1426" y="718" type="qcurve"/>
      <point x="1426" y="844"/>
      <point x="1325" y="1070"/>
      <point x="1152" y="1241"/>
      <point x="925" y="1342"/>
      <point x="799" y="1342" type="qcurve"/>
      <point x="715" y="1342"/>
      <point x="557" y="1296"/>
      <point x="418" y="1213"/>
      <point x="303" y="1098"/>
      <point x="220" y="959"/>
      <point x="174" y="802"/>
    </contour>
    <contour>
      <point x="1042" y="931" type="line"/>
      <point x="1014" y="977"/>
      <point x="925" y="1043"/>
      <point x="858" y="1043" type="qcurve"/>
      <point x="820" y="1043"/>
      <point x="744" y="998"/>
      <point x="684" y="913"/>
      <point x="646" y="792"/>
      <point x="646" y="716" type="qcurve"/>
      <point x="646" y="640"/>
      <point x="684" y="518"/>
      <point x="744" y="433"/>
      <point x="820" y="388"/>
      <point x="858" y="388" type="qcurve"/>
      <point x="895" y="388"/>
      <point x="951" y="406"/>
      <point x="994" y="436"/>
      <point x="1028" y="477"/>
      <point x="1042" y="501" type="qcurve"/>
      <point x="1138" y="406" type="line"/>
      <point x="1114" y="379"/>
      <point x="1053" y="331"/>
      <point x="976" y="296"/>
      <point x="881" y="276"/>
      <point x="823" y="276" type="qcurve"/>
      <point x="729" y="276"/>
      <point x="571" y="342"/>
      <point x="457" y="459"/>
      <point x="394" y="620"/>
      <point x="394" y="716" type="qcurve"/>
      <point x="394" y="812"/>
      <point x="457" y="973"/>
      <point x="571" y="1090"/>
      <point x="729" y="1155"/>
      <point x="823" y="1155" type="qcurve"/>
      <point x="880" y="1155"/>
      <point x="975" y="1135"/>
      <point x="1053" y="1100"/>
      <point x="1114" y="1053"/>
      <point x="1138" y="1026" type="qcurve"/>
    </contour>
  </outline>
</glyph>
<glyph name="ordfeminine" format="2">
  <advance width="864"/>
  <unicode hex="00AA"/>
  <outline>
    <contour>
      <point x="522" y="1071" type="line"/>
      <point x="459" y="1067"/>
      <point x="369" y="1030"/>
      <point x="311" y="973"/>
      <point x="284" y="900"/>
      <point x="284" y="861" type="qcurve"/>
      <point x="284" y="798"/>
      <point x="338" y="739"/>
      <point x="376" y="739" type="qcurve"/>
      <point x="405" y="739"/>
      <point x="451" y="755"/>
      <point x="487" y="780"/>
      <point x="513" y="813"/>
      <point x="522" y="831" type="qcurve"/>
    </contour>
    <contour>
      <point x="108" y="1342" type="line"/>
      <point x="144" y="1370"/>
      <point x="212" y="1416"/>
      <point x="284" y="1447"/>
      <point x="362" y="1464"/>
      <point x="407" y="1464" type="qcurve"/>
      <point x="474" y="1464"/>
      <point x="593" y="1427"/>
      <point x="682" y="1352"/>
      <point x="734" y="1240"/>
      <point x="734" y="1164" type="qcurve"/>
      <point x="734" y="793" type="line"/>
      <point x="734" y="766"/>
      <point x="761" y="739"/>
      <point x="792" y="739" type="qcurve"/>
      <point x="776" y="637" type="line"/>
      <point x="720" y="637"/>
      <point x="643" y="659"/>
      <point x="590" y="692"/>
      <point x="558" y="730"/>
      <point x="546" y="747" type="qcurve"/>
      <point x="531" y="726"/>
      <point x="487" y="687"/>
      <point x="428" y="656"/>
      <point x="354" y="637"/>
      <point x="310" y="637" type="qcurve"/>
      <point x="252" y="637"/>
      <point x="163" y="671"/>
      <point x="103" y="732"/>
      <point x="72" y="817"/>
      <point x="72" y="868" type="qcurve"/>
      <point x="72" y="1002"/>
      <point x="289" y="1148"/>
      <point x="522" y="1153" type="qcurve"/>
      <point x="522" y="1235" type="line"/>
      <point x="522" y="1274"/>
      <point x="494" y="1324"/>
      <point x="453" y="1352"/>
      <point x="404" y="1362"/>
      <point x="383" y="1362" type="qcurve"/>
      <point x="361" y="1362"/>
      <point x="319" y="1354"/>
      <point x="274" y="1331"/>
      <point x="226" y="1288"/>
      <point x="198" y="1253" type="qcurve"/>
    </contour>
  </outline>
</glyph>
<glyph name="guillemotleft" format="2">
  <advance width="1024"/>
  <unicode hex="00AB"/>
  <outline>
    <contour>
      <point x="372" y="906" type="line"/>
      <point x="587" y="868" type="line"/>
      <point x="326" y="487" type="line"/>
      <point x="587" y="106" type="line"/>
      <point x="370" y="68" type="line"/>
      <point x="42" y="487" type="line"/>
    </contour>
    <contour>
      <point x="767" y="906" type="line"/>
      <point x="982" y="868" type="line"/>
      <point x="721" y="487" type="line"/>
      <point x="982" y="106" type="line"/>
      <point x="765" y="68" type="line"/>
      <point x="437" y="487" type="line"/>
    </contour>
  </outline>
</glyph>
<glyph name="logicalnot" format="2">
  <advance width="1152"/>
  <unicode hex="00AC"/>
  <outline>
    <contour>
      <point x="1078" y="805" type="line"/>
      <point x="1078" y="256" type="line"/>
      <point x="826" y="256" type="line"/>
      <point x="826" y="593" type="line"/>
      <point x="72" y="593" type="line"/>
      <point x="72" y="805" type="line"/>
    </contour>
  </outline>
</glyph>
<glyph name="registered" format="2">
  <advance width="1600"/>
  <unicode hex="00AE"/>
  <outline>
    <contour>
      <point x="52" y="716" type="qcurve"/>
      <point x="52" y="819"/>
      <point x="105" y="1010"/>
      <point x="202" y="1177"/>
      <point x="339" y="1313"/>
      <point x="505" y="1411"/>
      <point x="696" y="1464"/>
      <point x="799" y="1464" type="qcurve"/>
      <point x="902" y="1464"/>
      <point x="1094" y="1411"/>
      <point x="1260" y="1313"/>
      <point x="1397" y="1177"/>
      <point x="1494" y="1010"/>
      <point x="1548" y="819"/>
      <point x="1548" y="716" type="qcurve"/>
      <point x="1548" y="613"/>
      <point x="1494" y="422"/>
      <point x="1397" y="256"/>
      <point x="1260" y="120"/>
      <point x="1094" y="23"/>
      <point x="902" y="-30"/>
      <point x="799" y="-30" type="qcurve"/>
      <point x="696" y="-30"/>
      <point x="505" y="23"/>
      <point x="339" y="120"/>
      <point x="202" y="256"/>
      <point x="105" y="422"/>
      <point x="52" y="613"/>
    </contour>
    <contour>
      <point x="174" y="718" type="qcurve"/>
      <point x="174" y="634"/>
      <point x="220" y="475"/>
      <point x="303" y="336"/>
      <point x="418" y="221"/>
      <point x="557" y="138"/>
      <point x="715" y="92"/>
      <point x="799" y="92" type="qcurve"/>
      <point x="883" y="92"/>
      <point x="1041" y="138"/>
      <point x="1181" y="221"/>
      <point x="1296" y="336"/>
      <point x="1380" y="475"/>
      <point x="1426" y="634"/>
      <point x="1426" y="718" type="qcurve"/>
      <point x="1426" y="844"/>
      <point x="1325" y="1070"/>
      <point x="1152" y="1241"/>
      <point x="925" y="1342"/>
      <point x="799" y="1342" type="qcurve"/>
      <point x="715" y="1342"/>
      <point x="557" y="1296"/>
      <point x="418" y="1213"/>
      <point x="303" y="1098"/>
      <point x="220" y="959"/>
      <point x="174" y="802"/>
    </contour>
    <contour>
      <point x="697" y="1073" type="line"/>
      <point x="697" y="727" type="line"/>
      <point x="767" y="727" type="line"/>
      <point x="799" y="727"/>
      <point x="856" y="755"/>
      <point x="900" y="804"/>
      <point x="925" y="869"/>
      <point x="925" y="907" type="qcurve"/>
      <point x="925" y="943"/>
      <point x="898" y="1004"/>
      <point x="853" y="1048"/>
      <point x="797" y="1073"/>
      <point x="768" y="1073" type="qcurve"/>
    </contour>
    <contour>
      <point x="505" y="1155" type="line"/>
      <point x="782" y="1155" type="line"/>
      <point x="949" y="1155"/>
      <point x="1117" y="1025"/>
      <point x="1117" y="907" type="qcurve"/>
      <point x="1117" y="855"/>
      <point x="1068" y="775"/>
      <point x="996" y="718"/>
      <point x="913" y="681"/>
      <point x="878" y="672" type="qcurve"/>
      <point x="1178" y="296" type="line"/>
      <point x="973" y="277" type="line"/>
      <point x="717" y="645" type="line"/>
      <point x="697" y="645" type="line"/>
      <point x="697" y="295" type="line"/>
      <point x="505" y="295" type="line"/>
    </contour>
  </outline>
</glyph>
<glyph name="macron" format="2">
  <advance width="768"/>
  <unicode hex="00AF"/>
  <outline>
    <contour>
      <point x="104" y="1354" type="line"/>
      <point x="696" y="1354" type="line"/>
      <point x="664" y="1172" type="line"/>
      <point x="72" y="1172" type="line"/>
    </contour>
  </outline>
</glyph>
<glyph name="degree" format="2">
  <advance width="768"/>
  <unicode hex="00B0"/>
  <outline>
    <contour>
      <point x="240" y="1272" type="qcurve"/>
      <point x="240" y="1241"/>
      <point x="262" y="1188"/>
      <point x="300" y="1149"/>
      <point x="352" y="1126"/>
      <point x="382" y="1126" type="qcurve"/>
      <point x="412" y="1126"/>
      <point x="465" y="1149"/>
      <point x="505" y="1188"/>
      <point x="528" y="1241"/>
      <point x="528" y="1272" type="qcurve"/>
      <point x="528" y="1300"/>
      <point x="505" y="1352"/>
      <point x="465" y="1391"/>
      <point x="412" y="1414"/>
      <point x="382" y="1414" type="qcurve"/>
      <point x="352" y="1414"/>
      <point x="300" y="1391"/>
      <point x="262" y="1352"/>
      <point x="240" y="1300"/>
    </contour>
    <contour>
      <point x="88" y="1271" type="qcurve"/>
      <point x="88" y="1331"/>
      <point x="133" y="1439"/>
      <point x="213" y="1519"/>
      <point x="321" y="1566"/>
      <point x="383" y="1566" type="qcurve"/>
      <point x="444" y="1566"/>
      <point x="552" y="1519"/>
      <point x="633" y="1439"/>
      <point x="680" y="1331"/>
      <point x="680" y="1271" type="qcurve"/>
      <point x="680" y="1207"/>
      <point x="633" y="1098"/>
      <point x="552" y="1019"/>
      <point x="444" y="974"/>
      <point x="383" y="974" type="qcurve"/>
      <point x="321" y="974"/>
      <point x="213" y="1019"/>
      <point x="133" y="1098"/>
      <point x="88" y="1207"/>
    </contour>
  </outline>
</glyph>
<glyph name="plusminus" format="2">
  <advance width="1152"/>
  <unicode hex="00B1"/>
  <outline>
    <contour>
      <point x="75" y="212" type="line"/>
      <point x="1077" y="212" type="line"/>
      <point x="1077" y="0" type="line"/>
      <point x="75" y="0" type="line"/>
    </contour>
    <contour>
      <point x="90" y="762" type="line"/>
      <point x="90" y="974" type="line"/>
      <point x="470" y="974" type="line"/>
      <point x="470" y="1355" type="line"/>
      <point x="682" y="1355" type="line"/>
      <point x="682" y="974" type="line"/>
      <point x="1062" y="974" type="line"/>
      <point x="1062" y="762" type="line"/>
      <point x="682" y="762" type="line"/>
      <point x="682" y="381" type="line"/>
      <point x="470" y="381" type="line"/>
      <point x="470" y="762" type="line"/>
    </contour>
  </outline>
</glyph>
<glyph name="twosuperior" format="2">
  <advance width="736"/>
  <unicode hex="00B2"/>
  <outline>
    <contour>
      <point x="94" y="1345" type="line"/>
      <point x="148" y="1402"/>
      <point x="269" y="1464"/>
      <point x="345" y="1464" type="qcurve"/>
      <point x="399" y="1464"/>
      <point x="504" y="1433"/>
      <point x="586" y="1370"/>
      <point x="637" y="1275"/>
      <point x="637" y="1212" type="qcurve"/>
      <point x="637" y="1160"/>
      <point x="593" y="1051"/>
      <point x="500" y="928"/>
      <point x="356" y="787"/>
      <point x="256" y="704" type="qcurve"/>
      <point x="654" y="725" type="line"/>
      <point x="629" y="586" type="line"/>
      <point x="82" y="586" type="line"/>
      <point x="82" y="621" type="line"/>
      <point x="171" y="717"/>
      <point x="295" y="865"/>
      <point x="378" y="979"/>
      <point x="425" y="1066"/>
      <point x="449" y="1134"/>
      <point x="455" y="1189"/>
      <point x="455" y="1215" type="qcurve"/>
      <point x="455" y="1275"/>
      <point x="390" y="1352"/>
      <point x="333" y="1352" type="qcurve"/>
      <point x="233" y="1352"/>
      <point x="170" y="1269" type="qcurve"/>
    </contour>
  </outline>
</glyph>
<glyph name="threesuperior" format="2">
  <advance width="736"/>
  <unicode hex="00B3"/>
  <guideline x="73" y="0" angle="80"/>
  <outline>
    <contour>
      <point x="348" y="1464" type="qcurve" name="at01"/>
      <point x="401" y="1464"/>
      <point x="492" y="1433"/>
      <point x="559" y="1379"/>
      <point x="597" y="1306"/>
      <point x="597" y="1264" type="qcurve" name="dh02"/>
      <point x="597" y="1227"/>
      <point x="573" y="1170"/>
      <point x="535" y="1128"/>
      <point x="489" y="1099" name="hr00"/>
      <point x="465" y="1089" type="qcurve" name="ih01"/>
      <point x="493" y="1078"/>
      <point x="560" y="1039"/>
      <point x="619" y="982"/>
      <point x="658" y="904"/>
      <point x="658" y="853" type="qcurve" name="sh01"/>
      <point x="658" y="797" name="hr01"/>
      <point x="612" y="700"/>
      <point x="527" y="628"/>
      <point x="407" y="586"/>
      <point x="333" y="586" type="qcurve" name="dv01"/>
      <point x="285" y="586"/>
      <point x="209" y="607"/>
      <point x="147" y="642"/>
      <point x="97" y="684"/>
      <point x="77" y="705" type="qcurve"/>
      <point x="153" y="781" type="line"/>
      <point x="176" y="748"/>
      <point x="257" y="698"/>
      <point x="321" y="698" type="qcurve" name="dv02"/>
      <point x="354" y="698"/>
      <point x="411" y="716"/>
      <point x="453" y="754"/>
      <point x="476" y="812"/>
      <point x="476" y="852" type="qcurve" name="ih02"/>
      <point x="476" y="901"/>
      <point x="445" y="968"/>
      <point x="398" y="1010"/>
      <point x="342" y="1028"/>
      <point x="317" y="1028" type="qcurve"/>
      <point x="254" y="1028" type="line"/>
      <point x="272" y="1130" type="line"/>
      <point x="311" y="1130" type="line"/>
      <point x="330" y="1130"/>
      <point x="377" y="1142"/>
      <point x="417" y="1171"/>
      <point x="445" y="1219"/>
      <point x="445" y="1254" type="qcurve" name="dh01"/>
      <point x="445" y="1281"/>
      <point x="426" y="1319"/>
      <point x="395" y="1342"/>
      <point x="356" y="1352"/>
      <point x="336" y="1352" type="qcurve"/>
      <point x="294" y="1352"/>
      <point x="225" y="1309"/>
      <point x="199" y="1269" type="qcurve"/>
      <point x="123" y="1345" type="line"/>
      <point x="136" y="1364"/>
      <point x="177" y="1407"/>
      <point x="234" y="1441"/>
      <point x="305" y="1464"/>
    </contour>
  </outline>
</glyph>
<glyph name="acute" format="2">
  <advance width="768"/>
  <unicode hex="00B4"/>
  <outline>
    <contour>
      <point x="233" y="1219" type="line"/>
      <point x="514" y="1588" type="line"/>
      <point x="558" y="1588" type="line"/>
      <point x="676" y="1470" type="line"/>
      <point x="676" y="1426" type="line"/>
      <point x="310" y="1138" type="line"/>
    </contour>
  </outline>
</glyph>
<glyph name="mu" format="2">
  <advance width="1024"/>
  <unicode hex="00B5"/>
  <outline>
    <contour>
      <point x="382" y="-460" type="line"/>
      <point x="160" y="-490" type="line"/>
      <point x="100" y="-490" type="line"/>
      <point x="100" y="974" type="line"/>
      <point x="322" y="1004" type="line"/>
      <point x="382" y="1004" type="line"/>
      <point x="382" y="209" type="line"/>
      <point x="406" y="158"/>
      <point x="486" y="112"/>
      <point x="524" y="112" type="qcurve"/>
      <point x="573" y="112"/>
      <point x="636" y="158"/>
      <point x="670" y="208" type="qcurve"/>
      <point x="670" y="974" type="line"/>
      <point x="892" y="1004" type="line"/>
      <point x="952" y="1004" type="line"/>
      <point x="952" y="165" type="line"/>
      <point x="952" y="117"/>
      <point x="982" y="82"/>
      <point x="1024" y="82" type="qcurve"/>
      <point x="1004" y="-30" type="line"/>
      <point x="937" y="-30"/>
      <point x="840" y="-11"/>
      <point x="771" y="21"/>
      <point x="727" y="61"/>
      <point x="713" y="82" type="qcurve"/>
      <point x="689" y="62"/>
      <point x="647" y="32"/>
      <point x="602" y="11"/>
      <point x="552" y="0"/>
      <point x="522" y="0" type="qcurve"/>
      <point x="509" y="0"/>
      <point x="473" y="6"/>
      <point x="434" y="19"/>
      <point x="397" y="40"/>
      <point x="382" y="55" type="qcurve"/>
    </contour>
  </outline>
</glyph>
<glyph name="paragraph" format="2">
  <advance width="1024"/>
  <unicode hex="00B6"/>
  <outline>
    <contour>
      <point x="962" y="1434" type="line"/>
      <point x="962" y="1312" type="line"/>
      <point x="898" y="1312" type="line"/>
      <point x="898" y="0" type="line"/>
      <point x="716" y="0" type="line"/>
      <point x="716" y="1312" type="line"/>
      <point x="600" y="1312" type="line"/>
      <point x="600" y="0" type="line"/>
      <point x="418" y="0" type="line"/>
      <point x="418" y="750" type="line"/>
      <point x="337" y="750"/>
      <point x="205" y="800"/>
      <point x="112" y="891"/>
      <point x="62" y="1017"/>
      <point x="62" y="1092" type="qcurve"/>
      <point x="62" y="1167"/>
      <point x="115" y="1293"/>
      <point x="213" y="1383"/>
      <point x="352" y="1434"/>
      <point x="438" y="1434" type="qcurve"/>
    </contour>
  </outline>
</glyph>
<glyph name="periodcentered" format="2">
  <advance width="576"/>
  <unicode hex="00B7"/>
  <outline>
    <contour>
      <point x="127" y="497" type="qcurve"/>
      <point x="127" y="530"/>
      <point x="152" y="589"/>
      <point x="196" y="633"/>
      <point x="255" y="658"/>
      <point x="288" y="658" type="qcurve"/>
      <point x="321" y="658"/>
      <point x="380" y="633"/>
      <point x="424" y="589"/>
      <point x="449" y="530"/>
      <point x="449" y="497" type="qcurve"/>
      <point x="449" y="464"/>
      <point x="424" y="405"/>
      <point x="380" y="361"/>
      <point x="321" y="336"/>
      <point x="288" y="336" type="qcurve"/>
      <point x="255" y="336"/>
      <point x="196" y="361"/>
      <point x="152" y="405"/>
      <point x="127" y="464"/>
    </contour>
  </outline>
</glyph>
<glyph name="cedilla" format="2">
  <advance width="768"/>
  <unicode hex="00B8"/>
  <outline>
    <contour>
      <point x="312" y="15" type="line"/>
      <point x="494" y="15" type="line"/>
      <point x="461" y="-72" type="line"/>
      <point x="484" y="-75"/>
      <point x="546" y="-102"/>
      <point x="602" y="-149"/>
      <point x="641" y="-217"/>
      <point x="641" y="-262" type="qcurve"/>
      <point x="641" y="-318"/>
      <point x="598" y="-403"/>
      <point x="523" y="-461"/>
      <point x="424" y="-490"/>
      <point x="368" y="-490" type="qcurve"/>
      <point x="319" y="-490"/>
      <point x="241" y="-467"/>
      <point x="181" y="-433"/>
      <point x="139" y="-393"/>
      <point x="126" y="-375" type="qcurve"/>
      <point x="208" y="-266" type="line"/>
      <point x="225" y="-310"/>
      <point x="281" y="-369"/>
      <point x="327" y="-369" type="qcurve"/>
      <point x="350" y="-369"/>
      <point x="391" y="-348"/>
      <point x="421" y="-313"/>
      <point x="439" y="-267"/>
      <point x="439" y="-243" type="qcurve"/>
      <point x="439" y="-204"/>
      <point x="411" y="-153"/>
      <point x="363" y="-124"/>
      <point x="300" y="-113"/>
      <point x="265" y="-113" type="qcurve"/>
    </contour>
  </outline>
</glyph>
<glyph name="onesuperior" format="2">
  <advance width="736"/>
  <unicode hex="00B9"/>
  <outline>
    <contour>
      <point x="537" y="1464" type="line"/>
      <point x="537" y="586" type="line"/>
      <point x="355" y="586" type="line"/>
      <point x="355" y="1304" type="line"/>
      <point x="189" y="1271" type="line"/>
      <point x="173" y="1363" type="line"/>
      <point x="497" y="1464" type="line"/>
    </contour>
  </outline>
</glyph>
<glyph name="ordmasculine" format="2">
  <advance width="864"/>
  <unicode hex="00BA"/>
  <outline>
    <contour>
      <point x="432" y="739" type="qcurve"/>
      <point x="515" y="739"/>
      <point x="601" y="900"/>
      <point x="601" y="1050" type="qcurve"/>
      <point x="601" y="1201"/>
      <point x="515" y="1362"/>
      <point x="432" y="1362" type="qcurve"/>
      <point x="348" y="1362"/>
      <point x="262" y="1201"/>
      <point x="262" y="1050" type="qcurve"/>
      <point x="262" y="900"/>
      <point x="348" y="739"/>
    </contour>
    <contour>
      <point x="432" y="637" type="qcurve"/>
      <point x="338" y="637"/>
      <point x="195" y="699"/>
      <point x="99" y="809"/>
      <point x="50" y="960"/>
      <point x="50" y="1050" type="qcurve"/>
      <point x="50" y="1140"/>
      <point x="99" y="1292"/>
      <point x="195" y="1402"/>
      <point x="338" y="1464"/>
      <point x="432" y="1464" type="qcurve"/>
      <point x="525" y="1464"/>
      <point x="668" y="1402"/>
      <point x="764" y="1292"/>
      <point x="813" y="1140"/>
      <point x="813" y="1050" type="qcurve"/>
      <point x="813" y="960"/>
      <point x="764" y="809"/>
      <point x="668" y="699"/>
      <point x="525" y="637"/>
    </contour>
  </outline>
</glyph>
<glyph name="guillemotright" format="2">
  <advance width="1024"/>
  <unicode hex="00BB"/>
  <outline>
    <contour>
      <point x="652" y="906" type="line"/>
      <point x="982" y="487" type="line"/>
      <point x="654" y="68" type="line"/>
      <point x="437" y="106" type="line"/>
      <point x="698" y="487" type="line"/>
      <point x="437" y="868" type="line"/>
    </contour>
    <contour>
      <point x="257" y="906" type="line"/>
      <point x="587" y="487" type="line"/>
      <point x="259" y="68" type="line"/>
      <point x="42" y="106" type="line"/>
      <point x="303" y="487" type="line"/>
      <point x="42" y="868" type="line"/>
    </contour>
  </outline>
</glyph>
<glyph name="questiondown" format="2">
  <advance width="1024"/>
  <unicode hex="00BF"/>
  <outline>
    <contour>
      <point x="426" y="1338" type="qcurve"/>
      <point x="426" y="1364"/>
      <point x="446" y="1410"/>
      <point x="480" y="1444"/>
      <point x="526" y="1464"/>
      <point x="552" y="1464" type="qcurve"/>
      <point x="578" y="1464"/>
      <point x="624" y="1444"/>
      <point x="658" y="1410"/>
      <point x="678" y="1364"/>
      <point x="678" y="1338" type="qcurve"/>
      <point x="678" y="1312"/>
      <point x="658" y="1266"/>
      <point x="624" y="1232"/>
      <point x="578" y="1212"/>
      <point x="552" y="1212" type="qcurve"/>
      <point x="526" y="1212"/>
      <point x="480" y="1232"/>
      <point x="446" y="1266"/>
      <point x="426" y="1312"/>
    </contour>
    <contour>
      <point x="928" y="122" type="line"/>
      <point x="888" y="86"/>
      <point x="805" y="29"/>
      <point x="712" y="-10"/>
      <point x="608" y="-30"/>
      <point x="548" y="-30" type="qcurve"/>
      <point x="471" y="-30"/>
      <point x="335" y="10"/>
      <point x="233" y="85"/>
      <point x="174" y="193"/>
      <point x="174" y="260" type="qcurve"/>
      <point x="174" y="327"/>
      <point x="217" y="434"/>
      <point x="300" y="524"/>
      <point x="420" y="604"/>
      <point x="497" y="644" type="qcurve"/>
      <point x="536" y="664"/>
      <point x="587" y="708"/>
      <point x="615" y="754"/>
      <point x="626" y="800"/>
      <point x="626" y="823" type="qcurve"/>
      <point x="626" y="854"/>
      <point x="603" y="902"/>
      <point x="568" y="935"/>
      <point x="525" y="952"/>
      <point x="506" y="952" type="qcurve"/>
      <point x="457" y="952"/>
      <point x="397" y="914"/>
      <point x="375" y="888" type="qcurve"/>
      <point x="295" y="969" type="line"/>
      <point x="322" y="991"/>
      <point x="376" y="1026"/>
      <point x="436" y="1051"/>
      <point x="506" y="1064"/>
      <point x="549" y="1064" type="qcurve"/>
      <point x="606" y="1064"/>
      <point x="695" y="1022"/>
      <point x="756" y="952"/>
      <point x="788" y="862"/>
      <point x="788" y="815" type="qcurve"/>
      <point x="788" y="777"/>
      <point x="773" y="706"/>
      <point x="735" y="636"/>
      <point x="669" y="567"/>
      <point x="619" y="533" type="qcurve"/>
      <point x="519" y="464"/>
      <point x="426" y="323"/>
      <point x="426" y="242" type="qcurve"/>
      <point x="426" y="204"/>
      <point x="452" y="145"/>
      <point x="496" y="104"/>
      <point x="554" y="82"/>
      <point x="586" y="82" type="qcurve"/>
      <point x="618" y="82"/>
      <point x="684" y="104"/>
      <point x="745" y="144"/>
      <point x="797" y="200"/>
      <point x="815" y="234" type="qcurve"/>
    </contour>
  </outline>
</glyph>
<glyph name="AE" format="2">
  <advance width="1760"/>
  <unicode hex="00C6"/>
  <outline>
    <contour>
      <point x="841" y="1434" type="line"/>
      <point x="1654" y="1434" type="line"/>
      <point x="1626" y="1272" type="line"/>
      <point x="1112" y="1312" type="line"/>
      <point x="1112" y="859" type="line"/>
      <point x="1552" y="859" type="line"/>
      <point x="1526" y="717" type="line"/>
      <point x="1112" y="717" type="line"/>
      <point x="1112" y="122" type="line"/>
      <point x="1683" y="162" type="line"/>
      <point x="1654" y="0" type="line"/>
      <point x="800" y="0" type="line"/>
      <point x="800" y="345" type="line"/>
      <point x="394" y="345" type="line"/>
      <point x="177" y="-30" type="line"/>
      <point x="14" y="0" type="line"/>
    </contour>
    <contour>
      <point x="476" y="487" type="line"/>
      <point x="800" y="487" type="line"/>
      <point x="800" y="1047" type="line"/>
    </contour>
  </outline>
</glyph>
<glyph name="Ccedilla" format="2">
  <advance width="1344"/>
  <unicode hex="00C7"/>
  <outline>
    <contour>
      <point x="1314" y="1235" type="qcurve"/>
      <point x="1192" y="1113" type="line"/>
      <point x="1117" y="1228"/>
      <point x="919" y="1342"/>
      <point x="796" y="1342" type="qcurve"/>
      <point x="701" y="1342"/>
      <point x="547" y="1256"/>
      <point x="439" y="1094"/>
      <point x="380" y="862"/>
      <point x="380" y="717" type="qcurve"/>
      <point x="380" y="571"/>
      <point x="439" y="340"/>
      <point x="547" y="178"/>
      <point x="701" y="92"/>
      <point x="796" y="92" type="qcurve"/>
      <point x="919" y="92"/>
      <point x="1117" y="204"/>
      <point x="1192" y="321" type="qcurve"/>
      <point x="1314" y="199" type="line"/>
      <point x="1273" y="157"/>
      <point x="1181" y="84"/>
      <point x="1076" y="25"/>
      <point x="957" y="-15"/>
      <point x="889" y="-24" type="qcurve"/>
      <point x="871" y="-72" type="line"/>
      <point x="894" y="-75"/>
      <point x="956" y="-102"/>
      <point x="1012" y="-149"/>
      <point x="1051" y="-217"/>
      <point x="1051" y="-262" type="qcurve"/>
      <point x="1051" y="-318"/>
      <point x="1008" y="-403"/>
      <point x="933" y="-461"/>
      <point x="834" y="-490"/>
      <point x="778" y="-490" type="qcurve"/>
      <point x="729" y="-490"/>
      <point x="651" y="-467"/>
      <point x="591" y="-433"/>
      <point x="549" y="-393"/>
      <point x="536" y="-375" type="qcurve"/>
      <point x="618" y="-266" type="line"/>
      <point x="635" y="-310"/>
      <point x="691" y="-369"/>
      <point x="737" y="-369" type="qcurve"/>
      <point x="760" y="-369"/>
      <point x="801" y="-348"/>
      <point x="831" y="-313"/>
      <point x="849" y="-267"/>
      <point x="849" y="-243" type="qcurve"/>
      <point x="849" y="-204"/>
      <point x="821" y="-153"/>
      <point x="773" y="-124"/>
      <point x="710" y="-113"/>
      <point x="675" y="-113" type="qcurve"/>
      <point x="707" y="-24" type="line"/>
      <point x="580" y="-9"/>
      <point x="346" y="108"/>
      <point x="166" y="299"/>
      <point x="58" y="559"/>
      <point x="58" y="717" type="qcurve"/>
      <point x="58" y="832"/>
      <point x="116" y="1032"/>
      <point x="219" y="1198"/>
      <point x="359" y="1328"/>
      <point x="523" y="1417"/>
      <point x="704" y="1464"/>
      <point x="796" y="1464" type="qcurve"/>
      <point x="883" y="1464"/>
      <point x="1031" y="1430"/>
      <point x="1158" y="1369"/>
      <point x="1267" y="1285"/>
    </contour>
  </outline>
</glyph>
<glyph name="Eth" format="2">
  <advance width="1504"/>
  <unicode hex="00D0"/>
  <outline>
    <contour>
      <point x="132" y="1434" type="line"/>
      <point x="611" y="1434" type="line"/>
      <point x="802" y="1434"/>
      <point x="1103" y="1336"/>
      <point x="1312" y="1151"/>
      <point x="1422" y="885"/>
      <point x="1422" y="717" type="qcurve"/>
      <point x="1422" y="619"/>
      <point x="1370" y="436"/>
      <point x="1271" y="277"/>
      <point x="1130" y="145"/>
      <point x="952" y="52"/>
      <point x="740" y="0"/>
      <point x="621" y="0" type="qcurve"/>
      <point x="132" y="0" type="line"/>
      <point x="132" y="717" type="line"/>
      <point x="38" y="717" type="line"/>
      <point x="65" y="859" type="line"/>
      <point x="132" y="859" type="line"/>
    </contour>
    <contour>
      <point x="444" y="1302" type="line"/>
      <point x="444" y="859" type="line"/>
      <point x="788" y="859" type="line"/>
      <point x="762" y="717" type="line"/>
      <point x="444" y="717" type="line"/>
      <point x="444" y="132" type="line"/>
      <point x="593" y="132" type="line"/>
      <point x="715" y="132"/>
      <point x="904" y="226"/>
      <point x="1033" y="386"/>
      <point x="1100" y="598"/>
      <point x="1100" y="717" type="qcurve"/>
      <point x="1100" y="859"/>
      <point x="1029" y="1078"/>
      <point x="896" y="1226"/>
      <point x="706" y="1302"/>
      <point x="586" y="1302" type="qcurve"/>
    </contour>
  </outline>
</glyph>
<glyph name="multiply" format="2">
  <advance width="1152"/>
  <unicode hex="00D7"/>
  <guideline x="0" y="715" angle="0"/>
  <guideline x="576" y="0" angle="90"/>
  <outline>
    <contour>
      <point x="157" y="854" type="line" name="ah01"/>
      <point x="307" y="1004" type="line" name="at01"/>
      <point x="576" y="735" type="line"/>
      <point x="845" y="1004" type="line" name="at02"/>
      <point x="995" y="854" type="line" name="ah02"/>
      <point x="726" y="585" type="line"/>
      <point x="995" y="316" type="line" name="sh01"/>
      <point x="845" y="166" type="line" name="av01"/>
      <point x="576" y="435" type="line"/>
      <point x="307" y="166" type="line" name="av02"/>
      <point x="157" y="316" type="line" name="sh02"/>
      <point x="426" y="585" type="line"/>
    </contour>
  </outline>
</glyph>
<glyph name="Oslash" format="2">
  <advance width="1600"/>
  <unicode hex="00D8"/>
  <outline>
    <contour>
      <point x="59" y="717" type="qcurve"/>
      <point x="59" y="832"/>
      <point x="118" y="1032"/>
      <point x="221" y="1198"/>
      <point x="362" y="1328"/>
      <point x="526" y="1417"/>
      <point x="708" y="1464"/>
      <point x="800" y="1464" type="qcurve"/>
      <point x="917" y="1464"/>
      <point x="1033" y="1426" type="qcurve"/>
      <point x="1093" y="1559" type="line"/>
      <point x="1254" y="1529" type="line"/>
      <point x="1177" y="1360" type="line"/>
      <point x="1255" y="1314"/>
      <point x="1389" y="1185"/>
      <point x="1486" y="1022"/>
      <point x="1541" y="828"/>
      <point x="1541" y="717" type="qcurve"/>
      <point x="1541" y="602"/>
      <point x="1482" y="402"/>
      <point x="1379" y="236"/>
      <point x="1238" y="106"/>
      <point x="1074" y="17"/>
      <point x="892" y="-30"/>
      <point x="800" y="-30" type="qcurve"/>
      <point x="740" y="-30"/>
      <point x="624" y="-10"/>
      <point x="567" y="9" type="qcurve"/>
      <point x="507" y="-125" type="line"/>
      <point x="346" y="-95" type="line"/>
      <point x="422" y="74" type="line"/>
      <point x="344" y="120"/>
      <point x="211" y="249"/>
      <point x="114" y="412"/>
      <point x="59" y="606"/>
    </contour>
    <contour>
      <point x="381" y="717" type="qcurve"/>
      <point x="381" y="569"/>
      <point x="447" y="337"/>
      <point x="505" y="256" type="qcurve"/>
      <point x="973" y="1293" type="line"/>
      <point x="892" y="1342"/>
      <point x="800" y="1342" type="qcurve"/>
      <point x="712" y="1342"/>
      <point x="559" y="1256"/>
      <point x="446" y="1095"/>
      <point x="381" y="863"/>
    </contour>
    <contour>
      <point x="800" y="92" type="qcurve"/>
      <point x="888" y="92"/>
      <point x="1041" y="178"/>
      <point x="1154" y="340"/>
      <point x="1219" y="571"/>
      <point x="1219" y="717" type="qcurve"/>
      <point x="1219" y="864"/>
      <point x="1153" y="1097"/>
      <point x="1095" y="1178" type="qcurve"/>
      <point x="627" y="141" type="line"/>
      <point x="707" y="92"/>
    </contour>
  </outline>
</glyph>
<glyph name="germandbls" format="2">
  <advance width="1152"/>
  <unicode hex="00DF"/>
  <outline>
    <contour>
      <point x="100" y="1039" type="line"/>
      <point x="100" y="1153"/>
      <point x="169" y="1340"/>
      <point x="287" y="1473"/>
      <point x="444" y="1546"/>
      <point x="531" y="1546" type="qcurve"/>
      <point x="619" y="1546"/>
      <point x="752" y="1498"/>
      <point x="842" y="1421"/>
      <point x="888" y="1327"/>
      <point x="888" y="1281" type="qcurve"/>
      <point x="888" y="1231"/>
      <point x="858" y="1153"/>
      <point x="813" y="1090"/>
      <point x="761" y="1037"/>
      <point x="716" y="986"/>
      <point x="686" y="933"/>
      <point x="686" y="902" type="qcurve"/>
      <point x="686" y="865"/>
      <point x="747" y="802"/>
      <point x="838" y="737"/>
      <point x="944" y="663"/>
      <point x="1035" y="569"/>
      <point x="1096" y="447"/>
      <point x="1096" y="366" type="qcurve"/>
      <point x="1096" y="282"/>
      <point x="1018" y="137"/>
      <point x="868" y="30"/>
      <point x="647" y="-30"/>
      <point x="504" y="-30" type="qcurve"/>
      <point x="524" y="82" type="line"/>
      <point x="599" y="82"/>
      <point x="708" y="123"/>
      <point x="779" y="189"/>
      <point x="814" y="271"/>
      <point x="814" y="312" type="qcurve"/>
      <point x="814" y="366"/>
      <point x="771" y="456"/>
      <point x="707" y="536"/>
      <point x="631" y="613"/>
      <point x="567" y="697"/>
      <point x="524" y="795"/>
      <point x="524" y="856" type="qcurve"/>
      <point x="524" y="917"/>
      <point x="562" y="1010"/>
      <point x="608" y="1100"/>
      <point x="646" y="1202"/>
      <point x="646" y="1272" type="qcurve"/>
      <point x="646" y="1303"/>
      <point x="631" y="1362"/>
      <point x="600" y="1407"/>
      <point x="555" y="1434"/>
      <point x="525" y="1434" type="qcurve"/>
      <point x="487" y="1434"/>
      <point x="433" y="1399"/>
      <point x="398" y="1310"/>
      <point x="382" y="1158"/>
      <point x="382" y="1041" type="qcurve"/>
      <point x="382" y="0" type="line"/>
      <point x="100" y="0" type="line"/>
    </contour>
  </outline>
</glyph>
<glyph name="ae" format="2">
  <advance width="1600"/>
  <unicode hex="00E6"/>
  <outline>
    <contour>
      <point x="1152" y="82" type="qcurve"/>
      <point x="1192" y="82"/>
      <point x="1260" y="109"/>
      <point x="1316" y="152"/>
      <point x="1361" y="206"/>
      <point x="1378" y="234" type="qcurve"/>
      <point x="1491" y="122" type="line"/>
      <point x="1462" y="90"/>
      <point x="1389" y="34"/>
      <point x="1297" y="-7"/>
      <point x="1187" y="-30"/>
      <point x="1122" y="-30" type="qcurve"/>
      <point x="986" y="-30"/>
      <point x="792" y="75"/>
      <point x="729" y="167" type="qcurve"/>
      <point x="691" y="111"/>
      <point x="615" y="35"/>
      <point x="531" y="-11"/>
      <point x="437" y="-30"/>
      <point x="382" y="-30" type="qcurve"/>
      <point x="310" y="-30"/>
      <point x="192" y="12"/>
      <point x="108" y="89"/>
      <point x="62" y="195"/>
      <point x="62" y="259" type="qcurve"/>
      <point x="62" y="427"/>
      <point x="346" y="594"/>
      <point x="638" y="599" type="qcurve"/>
      <point x="638" y="718" type="line"/>
      <point x="638" y="767"/>
      <point x="606" y="834"/>
      <point x="558" y="874"/>
      <point x="500" y="892"/>
      <point x="474" y="892" type="qcurve"/>
      <point x="447" y="892"/>
      <point x="387" y="877"/>
      <point x="322" y="842"/>
      <point x="255" y="784"/>
      <point x="220" y="740" type="qcurve"/>
      <point x="108" y="852" type="line"/>
      <point x="197" y="922"/>
      <point x="390" y="1004"/>
      <point x="504" y="1004" type="qcurve"/>
      <point x="596" y="1004"/>
      <point x="752" y="949"/>
      <point x="812" y="893" type="qcurve"/>
      <point x="876" y="946"/>
      <point x="1032" y="1004"/>
      <point x="1132" y="1004" type="qcurve"/>
      <point x="1204" y="1004"/>
      <point x="1349" y="949"/>
      <point x="1465" y="827"/>
      <point x="1538" y="629"/>
      <point x="1538" y="487" type="qcurve"/>
      <point x="920" y="487" type="line"/>
      <point x="922" y="369"/>
      <point x="965" y="213"/>
      <point x="1030" y="120"/>
      <point x="1111" y="82"/>
    </contour>
    <contour>
      <point x="638" y="507" type="line"/>
      <point x="560" y="502"/>
      <point x="451" y="457"/>
      <point x="384" y="388"/>
      <point x="354" y="299"/>
      <point x="354" y="250" type="qcurve"/>
      <point x="354" y="172"/>
      <point x="417" y="82"/>
      <point x="465" y="82" type="qcurve"/>
      <point x="501" y="82"/>
      <point x="556" y="102"/>
      <point x="597" y="134"/>
      <point x="627" y="175"/>
      <point x="638" y="197" type="qcurve"/>
    </contour>
    <contour>
      <point x="1122" y="892" type="qcurve"/>
      <point x="1082" y="892"/>
      <point x="1009" y="855"/>
      <point x="953" y="781"/>
      <point x="920" y="671"/>
      <point x="920" y="599" type="qcurve"/>
      <point x="1296" y="599" type="line"/>
      <point x="1296" y="677"/>
      <point x="1269" y="789"/>
      <point x="1222" y="859"/>
      <point x="1158" y="892"/>
    </contour>
  </outline>
</glyph>
<glyph name="ccedilla" format="2">
  <advance width="1024"/>
  <unicode hex="00E7"/>
  <outline>
    <contour>
      <point x="828" y="740" type="line"/>
      <point x="811" y="767"/>
      <point x="769" y="821"/>
      <point x="714" y="865"/>
      <point x="644" y="892"/>
      <point x="600" y="892" type="qcurve"/>
      <point x="550" y="892"/>
      <point x="462" y="836"/>
      <point x="396" y="731"/>
      <point x="358" y="581"/>
      <point x="358" y="487" type="qcurve"/>
      <point x="358" y="393"/>
      <point x="396" y="243"/>
      <point x="462" y="138"/>
      <point x="550" y="82"/>
      <point x="600" y="82" type="qcurve"/>
      <point x="648" y="82"/>
      <point x="718" y="109"/>
      <point x="771" y="152"/>
      <point x="811" y="206"/>
      <point x="828" y="234" type="qcurve"/>
      <point x="941" y="122" type="line"/>
      <point x="915" y="93"/>
      <point x="855" y="42"/>
      <point x="780" y="3"/>
      <point x="686" y="-24"/>
      <point x="628" y="-28" type="qcurve"/>
      <point x="611" y="-72" type="line"/>
      <point x="634" y="-75"/>
      <point x="696" y="-102"/>
      <point x="752" y="-149"/>
      <point x="791" y="-217"/>
      <point x="791" y="-262" type="qcurve"/>
      <point x="791" y="-318"/>
      <point x="748" y="-403"/>
      <point x="673" y="-461"/>
      <point x="574" y="-490"/>
      <point x="518" y="-490" type="qcurve"/>
      <point x="469" y="-490"/>
      <point x="391" y="-467"/>
      <point x="331" y="-433"/>
      <point x="289" y="-393"/>
      <point x="276" y="-375" type="qcurve"/>
      <point x="358" y="-266" type="line"/>
      <point x="375" y="-310"/>
      <point x="431" y="-369"/>
      <point x="477" y="-369" type="qcurve"/>
      <point x="500" y="-369"/>
      <point x="541" y="-348"/>
      <point x="571" y="-313"/>
      <point x="589" y="-267"/>
      <point x="589" y="-243" type="qcurve"/>
      <point x="589" y="-204"/>
      <point x="561" y="-153"/>
      <point x="513" y="-124"/>
      <point x="450" y="-113"/>
      <point x="415" y="-113" type="qcurve"/>
      <point x="450" y="-18" type="line"/>
      <point x="361" y="0"/>
      <point x="218" y="90"/>
      <point x="119" y="222"/>
      <point x="66" y="390"/>
      <point x="66" y="487" type="qcurve"/>
      <point x="66" y="599"/>
      <point x="137" y="789"/>
      <point x="269" y="927"/>
      <point x="455" y="1004"/>
      <point x="570" y="1004" type="qcurve"/>
      <point x="642" y="1004"/>
      <point x="755" y="980"/>
      <point x="844" y="939"/>
      <point x="913" y="883"/>
      <point x="941" y="852" type="qcurve"/>
    </contour>
  </outline>
</glyph>
<glyph name="eth" format="2">
  <advance width="1120"/>
  <unicode hex="00F0"/>
  <outline>
    <contour>
      <point x="560" y="760" type="qcurve"/>
      <point x="510" y="760"/>
      <point x="432" y="706"/>
      <point x="378" y="614"/>
      <point x="349" y="491"/>
      <point x="349" y="422" type="qcurve"/>
      <point x="349" y="350"/>
      <point x="378" y="225"/>
      <point x="432" y="134"/>
      <point x="510" y="82"/>
      <point x="560" y="82" type="qcurve"/>
      <point x="614" y="82"/>
      <point x="694" y="137"/>
      <point x="746" y="233"/>
      <point x="771" y="365"/>
      <point x="771" y="442" type="qcurve"/>
      <point x="771" y="499"/>
      <point x="748" y="612"/>
      <point x="697" y="703"/>
      <point x="617" y="760"/>
    </contour>
    <contour>
      <point x="1063" y="565" type="qcurve"/>
      <point x="1063" y="456"/>
      <point x="1021" y="284"/>
      <point x="947" y="151"/>
      <point x="847" y="57"/>
      <point x="730" y="-2"/>
      <point x="601" y="-30"/>
      <point x="536" y="-30" type="qcurve"/>
      <point x="441" y="-30"/>
      <point x="268" y="40"/>
      <point x="136" y="164"/>
      <point x="57" y="333"/>
      <point x="57" y="432" type="qcurve"/>
      <point x="57" y="527"/>
      <point x="132" y="689"/>
      <point x="262" y="806"/>
      <point x="436" y="872"/>
      <point x="536" y="872" type="qcurve"/>
      <point x="568" y="872"/>
      <point x="640" y="862"/>
      <point x="712" y="843"/>
      <point x="779" y="814"/>
      <point x="805" y="796" type="qcurve"/>
      <point x="805" y="891"/>
      <point x="749" y="1067"/>
      <point x="692" y="1139" type="qcurve"/>
      <point x="530" y="1004" type="line"/>
      <point x="444" y="1107" type="line"/>
      <point x="605" y="1242" type="line"/>
      <point x="490" y="1381" type="line"/>
      <point x="625" y="1494" type="line"/>
      <point x="740" y="1356" type="line"/>
      <point x="906" y="1494" type="line"/>
      <point x="993" y="1391" type="line"/>
      <point x="828" y="1253" type="line"/>
      <point x="880" y="1192"/>
      <point x="967" y="1031"/>
      <point x="1029" y="849"/>
      <point x="1063" y="657"/>
    </contour>
  </outline>
</glyph>
<glyph name="divide" format="2">
  <advance width="1152"/>
  <unicode hex="00F7"/>
  <outline>
    <contour>
      <point x="114" y="593" type="line" name="hr00"/>
      <point x="1038" y="593" type="line" name="sv02"/>
      <point x="1038" y="381" type="line" name="sh01"/>
      <point x="114" y="381" type="line" name="sh02"/>
    </contour>
    <contour>
      <point x="722" y="116" type="qcurve" name="dh02"/>
      <point x="722" y="86"/>
      <point x="699" y="32"/>
      <point x="660" y="-7"/>
      <point x="606" y="-30"/>
      <point x="576" y="-30" type="qcurve" name="ab01"/>
      <point x="546" y="-30"/>
      <point x="492" y="-7"/>
      <point x="453" y="32"/>
      <point x="430" y="86"/>
      <point x="430" y="116" type="qcurve" name="dh01"/>
      <point x="430" y="146"/>
      <point x="453" y="200"/>
      <point x="492" y="239"/>
      <point x="546" y="262"/>
      <point x="576" y="262" type="qcurve" name="sv01"/>
      <point x="606" y="262"/>
      <point x="660" y="239"/>
      <point x="699" y="200"/>
      <point x="722" y="146"/>
    </contour>
    <contour>
      <point x="722" y="858" type="qcurve" name="sh03"/>
      <point x="722" y="828"/>
      <point x="699" y="774"/>
      <point x="660" y="735"/>
      <point x="606" y="712"/>
      <point x="576" y="712" type="qcurve" name="sv03"/>
      <point x="546" y="712"/>
      <point x="492" y="735"/>
      <point x="453" y="774"/>
      <point x="430" y="828"/>
      <point x="430" y="858" type="qcurve" name="sh04"/>
      <point x="430" y="888"/>
      <point x="453" y="942"/>
      <point x="492" y="981"/>
      <point x="546" y="1004"/>
      <point x="576" y="1004" type="qcurve" name="sv04"/>
      <point x="606" y="1004"/>
      <point x="660" y="981"/>
      <point x="699" y="942"/>
      <point x="722" y="888"/>
    </contour>
  </outline>
</glyph>
<glyph name="oslash" format="2">
  <advance width="1120"/>
  <unicode hex="00F8"/>
  <guideline x="257" y="0" angle="66"/>
  <outline>
    <contour>
      <point x="560" y="1004" type="qcurve" name="at01"/>
      <point x="632" y="1004"/>
      <point x="697" y="989" type="qcurve"/>
      <point x="746" y="1099" type="line" name="sv01"/>
      <point x="907" y="1069" type="line"/>
      <point x="844" y="928" type="line" name="iv01"/>
      <point x="950" y="861"/>
      <point x="1064" y="633"/>
      <point x="1064" y="487" type="qcurve" name="sh01"/>
      <point x="1064" y="374"/>
      <point x="994" y="185"/>
      <point x="864" y="47"/>
      <point x="677" y="-30"/>
      <point x="560" y="-30" type="qcurve" name="ab01"/>
      <point x="486" y="-30"/>
      <point x="423" y="-15" type="qcurve"/>
      <point x="374" y="-125" type="line" name="sv03"/>
      <point x="213" y="-95" type="line"/>
      <point x="276" y="46" type="line" name="iv02"/>
      <point x="170" y="113"/>
      <point x="56" y="341"/>
      <point x="56" y="487" type="qcurve" name="sh02"/>
      <point x="56" y="599"/>
      <point x="126" y="789"/>
      <point x="256" y="927"/>
      <point x="443" y="1004"/>
    </contour>
    <contour>
      <point x="560" y="82" type="qcurve" name="sv04"/>
      <point x="612" y="82"/>
      <point x="691" y="138"/>
      <point x="745" y="243"/>
      <point x="772" y="393"/>
      <point x="772" y="487" type="qcurve" name="sh03"/>
      <point x="772" y="615"/>
      <point x="746" y="708" type="qcurve" name="ih01"/>
      <point x="476" y="105" type="line"/>
      <point x="514" y="82"/>
    </contour>
    <contour>
      <point x="560" y="892" type="qcurve" name="sv02"/>
      <point x="508" y="892"/>
      <point x="429" y="836"/>
      <point x="375" y="731"/>
      <point x="348" y="581"/>
      <point x="348" y="487" type="qcurve" name="sh04"/>
      <point x="348" y="358"/>
      <point x="374" y="265" type="qcurve" name="ih02"/>
      <point x="643" y="869" type="line"/>
      <point x="606" y="892"/>
    </contour>
  </outline>
</glyph>
<glyph name="Aogonek" format="2">
  <advance width="1344"/>
  <unicode hex="0104"/>
  <outline>
    <contour>
      <point x="1354" y="-418" type="line"/>
      <point x="1328" y="-431"/>
      <point x="1261" y="-450"/>
      <point x="1216" y="-450" type="qcurve"/>
      <point x="1156" y="-450"/>
      <point x="1068" y="-415"/>
      <point x="1011" y="-356"/>
      <point x="984" y="-280"/>
      <point x="984" y="-239" type="qcurve"/>
      <point x="984" y="-213"/>
      <point x="994" y="-160"/>
      <point x="1023" y="-106"/>
      <point x="1076" y="-49"/>
      <point x="1118" y="-19" type="qcurve"/>
      <point x="1003" y="-30" type="line"/>
      <point x="852" y="345" type="line"/>
      <point x="329" y="345" type="line"/>
      <point x="177" y="-30" type="line"/>
      <point x="14" y="0" type="line"/>
      <point x="594" y="1434" type="line"/>
      <point x="738" y="1464" type="line"/>
      <point x="1328" y="0" type="line"/>
      <point x="1275" y="-25"/>
      <point x="1201" y="-77"/>
      <point x="1156" y="-129"/>
      <point x="1136" y="-182"/>
      <point x="1136" y="-209" type="qcurve"/>
      <point x="1136" y="-232"/>
      <point x="1153" y="-269"/>
      <point x="1182" y="-294"/>
      <point x="1217" y="-308"/>
      <point x="1235" y="-308" type="qcurve"/>
      <point x="1266" y="-308"/>
      <point x="1311" y="-284"/>
      <point x="1328" y="-270" type="qcurve"/>
    </contour>
    <contour>
      <point x="794" y="487" type="line"/>
      <point x="590" y="992" type="line"/>
      <point x="386" y="487" type="line"/>
    </contour>
  </outline>
</glyph>
<glyph name="aogonek" format="2">
  <advance width="1120"/>
  <unicode hex="0105"/>
  <outline>
    <contour>
      <point x="128" y="852" type="line"/>
      <point x="218" y="924"/>
      <point x="441" y="1004"/>
      <point x="556" y="1004" type="qcurve"/>
      <point x="640" y="1004"/>
      <point x="803" y="952"/>
      <point x="932" y="851"/>
      <point x="1012" y="704"/>
      <point x="1012" y="609" type="qcurve"/>
      <point x="1012" y="150" type="line"/>
      <point x="1012" y="116"/>
      <point x="1046" y="82"/>
      <point x="1084" y="82" type="qcurve"/>
      <point x="1064" y="-30" type="line"/>
      <point x="1049" y="-30"/>
      <point x="1022" y="-30"/>
      <point x="1009" y="-29" type="qcurve"/>
      <point x="934" y="-74"/>
      <point x="872" y="-163"/>
      <point x="872" y="-209" type="qcurve"/>
      <point x="872" y="-232"/>
      <point x="889" y="-269"/>
      <point x="918" y="-294"/>
      <point x="953" y="-308"/>
      <point x="971" y="-308" type="qcurve"/>
      <point x="1002" y="-308"/>
      <point x="1047" y="-284"/>
      <point x="1064" y="-270" type="qcurve"/>
      <point x="1090" y="-418" type="line"/>
      <point x="1064" y="-431"/>
      <point x="997" y="-450"/>
      <point x="952" y="-450" type="qcurve"/>
      <point x="892" y="-450"/>
      <point x="804" y="-415"/>
      <point x="747" y="-356"/>
      <point x="720" y="-280"/>
      <point x="720" y="-239" type="qcurve"/>
      <point x="720" y="-212"/>
      <point x="732" y="-156"/>
      <point x="765" y="-98"/>
      <point x="825" y="-38"/>
      <point x="873" y="-6" type="qcurve"/>
      <point x="824" y="10"/>
      <point x="776" y="58"/>
      <point x="761" y="82" type="qcurve"/>
      <point x="735" y="60"/>
      <point x="672" y="20"/>
      <point x="595" y="-11"/>
      <point x="501" y="-30"/>
      <point x="446" y="-30" type="qcurve"/>
      <point x="374" y="-30"/>
      <point x="242" y="6"/>
      <point x="141" y="75"/>
      <point x="82" y="175"/>
      <point x="82" y="239" type="qcurve"/>
      <point x="82" y="323"/>
      <point x="175" y="455"/>
      <point x="345" y="546"/>
      <point x="584" y="596"/>
      <point x="730" y="599" type="qcurve"/>
      <point x="730" y="668" type="line"/>
      <point x="730" y="717"/>
      <point x="706" y="799"/>
      <point x="657" y="859"/>
      <point x="584" y="892"/>
      <point x="536" y="892" type="qcurve"/>
      <point x="508" y="892"/>
      <point x="435" y="875"/>
      <point x="356" y="838"/>
      <point x="275" y="780"/>
      <point x="240" y="740" type="qcurve"/>
    </contour>
    <contour>
      <point x="730" y="497" type="line"/>
      <point x="652" y="492"/>
      <point x="521" y="454"/>
      <point x="426" y="390"/>
      <point x="374" y="303"/>
      <point x="374" y="250" type="qcurve"/>
      <point x="374" y="200"/>
      <point x="404" y="135"/>
      <point x="449" y="97"/>
      <point x="503" y="82"/>
      <point x="527" y="82" type="qcurve"/>
      <point x="555" y="82"/>
      <point x="615" y="102"/>
      <point x="669" y="135"/>
      <point x="715" y="177"/>
      <point x="730" y="199" type="qcurve"/>
    </contour>
  </outline>
</glyph>
<glyph name="Dcroat" format="2">
  <advance width="1504"/>
  <unicode hex="0110"/>
  <outline>
    <contour>
      <point x="132" y="1434" type="line"/>
      <point x="607" y="1434" type="line"/>
      <point x="798" y="1434"/>
      <point x="1101" y="1336"/>
      <point x="1311" y="1151"/>
      <point x="1422" y="885"/>
      <point x="1422" y="717" type="qcurve"/>
      <point x="1422" y="619"/>
      <point x="1369" y="436"/>
      <point x="1270" y="277"/>
      <point x="1128" y="145"/>
      <point x="949" y="52"/>
      <point x="737" y="0"/>
      <point x="617" y="0" type="qcurve"/>
      <point x="132" y="0" type="line"/>
      <point x="132" y="717" type="line"/>
      <point x="30" y="717" type="line"/>
      <point x="54" y="859" type="line"/>
      <point x="132" y="859" type="line"/>
    </contour>
    <contour>
      <point x="444" y="1302" type="line"/>
      <point x="444" y="859" type="line"/>
      <point x="879" y="859" type="line"/>
      <point x="854" y="717" type="line"/>
      <point x="444" y="717" type="line"/>
      <point x="444" y="132" type="line"/>
      <point x="589" y="132" type="line"/>
      <point x="711" y="132"/>
      <point x="901" y="226"/>
      <point x="1032" y="386"/>
      <point x="1100" y="598"/>
      <point x="1100" y="717" type="qcurve"/>
      <point x="1100" y="859"/>
      <point x="1028" y="1078"/>
      <point x="893" y="1226"/>
      <point x="702" y="1302"/>
      <point x="582" y="1302" type="qcurve"/>
    </contour>
  </outline>
</glyph>
<glyph name="dcroat" format="2">
  <advance width="1120"/>
  <unicode hex="0111"/>
  <guideline x="1037" y="0" angle="90"/>
  <outline>
    <contour>
      <point x="524" y="1004" type="qcurve" name="at01"/>
      <point x="554" y="1004"/>
      <point x="619" y="988"/>
      <point x="679" y="966"/>
      <point x="726" y="941"/>
      <point x="738" y="931" type="qcurve" name="iv01"/>
      <point x="738" y="1149" type="line" name="sh02"/>
      <point x="523" y="1159" type="line" name="ah01"/>
      <point x="543" y="1271" type="line"/>
      <point x="738" y="1271" type="line" name="sh03"/>
      <point x="738" y="1464" type="line"/>
      <point x="960" y="1494" type="line" name="av01"/>
      <point x="1020" y="1494" type="line" name="sh04"/>
      <point x="1020" y="1271" type="line" name="sv02"/>
      <point x="1145" y="1271" type="line" name="ah02"/>
      <point x="1120" y="1132" type="line"/>
      <point x="1020" y="1136" type="line" name="sh01"/>
      <point x="1020" y="156" type="line"/>
      <point x="1020" y="120"/>
      <point x="1050" y="82"/>
      <point x="1092" y="82" type="qcurve" name="sv03"/>
      <point x="1072" y="-30" type="line" name="ab01"/>
      <point x="1007" y="-30"/>
      <point x="909" y="-16"/>
      <point x="836" y="11"/>
      <point x="785" y="53"/>
      <point x="768" y="82" type="qcurve" name="ih01"/>
      <point x="748" y="56"/>
      <point x="693" y="15"/>
      <point x="629" y="-14"/>
      <point x="558" y="-30"/>
      <point x="523" y="-30" type="qcurve" name="ab02"/>
      <point x="426" y="-30"/>
      <point x="256" y="41"/>
      <point x="129" y="174"/>
      <point x="56" y="366"/>
      <point x="56" y="487" type="qcurve" name="sh05"/>
      <point x="56" y="602"/>
      <point x="127" y="792"/>
      <point x="253" y="929"/>
      <point x="424" y="1004"/>
    </contour>
    <contour>
      <point x="738" y="821" type="line" name="sh06"/>
      <point x="712" y="852"/>
      <point x="632" y="892"/>
      <point x="572" y="892" type="qcurve" name="sv01"/>
      <point x="522" y="892"/>
      <point x="440" y="834"/>
      <point x="381" y="728"/>
      <point x="348" y="578"/>
      <point x="348" y="487" type="qcurve" name="sh07"/>
      <point x="348" y="386"/>
      <point x="387" y="234"/>
      <point x="450" y="133"/>
      <point x="531" y="82"/>
      <point x="572" y="82" type="qcurve" name="sv04"/>
      <point x="633" y="82"/>
      <point x="712" y="123"/>
      <point x="738" y="152" type="qcurve"/>
    </contour>
  </outline>
</glyph>
<glyph name="Eogonek" format="2">
  <advance width="1088"/>
  <unicode hex="0118"/>
  <outline>
    <contour>
      <point x="962" y="-418" type="line"/>
      <point x="936" y="-431"/>
      <point x="869" y="-450"/>
      <point x="824" y="-450" type="qcurve"/>
      <point x="764" y="-450"/>
      <point x="676" y="-415"/>
      <point x="619" y="-356"/>
      <point x="592" y="-280"/>
      <point x="592" y="-239" type="qcurve"/>
      <point x="592" y="-211"/>
      <point x="604" y="-154"/>
      <point x="639" y="-94"/>
      <point x="703" y="-33"/>
      <point x="754" y="0" type="qcurve"/>
      <point x="130" y="0" type="line"/>
      <point x="130" y="1434" type="line"/>
      <point x="984" y="1434" type="line"/>
      <point x="956" y="1272" type="line"/>
      <point x="442" y="1312" type="line"/>
      <point x="442" y="859" type="line"/>
      <point x="882" y="859" type="line"/>
      <point x="857" y="717" type="line"/>
      <point x="442" y="717" type="line"/>
      <point x="442" y="122" type="line"/>
      <point x="1013" y="162" type="line"/>
      <point x="984" y="0" type="line"/>
      <point x="936" y="0" type="line"/>
      <point x="883" y="-25"/>
      <point x="809" y="-77"/>
      <point x="764" y="-129"/>
      <point x="744" y="-182"/>
      <point x="744" y="-209" type="qcurve"/>
      <point x="744" y="-232"/>
      <point x="761" y="-269"/>
      <point x="790" y="-294"/>
      <point x="825" y="-308"/>
      <point x="843" y="-308" type="qcurve"/>
      <point x="874" y="-308"/>
      <point x="919" y="-284"/>
      <point x="936" y="-270" type="qcurve"/>
    </contour>
  </outline>
</glyph>
<glyph name="eogonek" format="2">
  <advance width="1024"/>
  <unicode hex="0119"/>
  <outline>
    <contour>
      <point x="761" y="-418" type="line"/>
      <point x="735" y="-431"/>
      <point x="668" y="-450"/>
      <point x="623" y="-450" type="qcurve"/>
      <point x="563" y="-450"/>
      <point x="475" y="-415"/>
      <point x="418" y="-356"/>
      <point x="391" y="-280"/>
      <point x="391" y="-239" type="qcurve"/>
      <point x="391" y="-217"/>
      <point x="402" y="-165"/>
      <point x="429" y="-110"/>
      <point x="474" y="-56"/>
      <point x="509" y="-30" type="qcurve"/>
      <point x="461" y="-30"/>
      <point x="356" y="-2"/>
      <point x="255" y="54"/>
      <point x="165" y="138"/>
      <point x="96" y="252"/>
      <point x="56" y="398"/>
      <point x="56" y="487" type="qcurve"/>
      <point x="56" y="599"/>
      <point x="127" y="789"/>
      <point x="259" y="927"/>
      <point x="445" y="1004"/>
      <point x="560" y="1004" type="qcurve"/>
      <point x="632" y="1004"/>
      <point x="777" y="949"/>
      <point x="894" y="827"/>
      <point x="968" y="629"/>
      <point x="968" y="487" type="qcurve"/>
      <point x="338" y="487" type="line"/>
      <point x="338" y="371"/>
      <point x="382" y="215"/>
      <point x="452" y="121"/>
      <point x="538" y="82"/>
      <point x="580" y="82" type="qcurve"/>
      <point x="620" y="82"/>
      <point x="689" y="109"/>
      <point x="746" y="152"/>
      <point x="791" y="206"/>
      <point x="808" y="234" type="qcurve"/>
      <point x="921" y="122" type="line"/>
      <point x="886" y="83"/>
      <point x="795" y="20"/>
      <point x="735" y="0" type="qcurve"/>
      <point x="682" y="-25"/>
      <point x="608" y="-76"/>
      <point x="563" y="-129"/>
      <point x="543" y="-182"/>
      <point x="543" y="-209" type="qcurve"/>
      <point x="543" y="-232"/>
      <point x="560" y="-269"/>
      <point x="589" y="-294"/>
      <point x="624" y="-308"/>
      <point x="642" y="-308" type="qcurve"/>
      <point x="673" y="-308"/>
      <point x="718" y="-284"/>
      <point x="735" y="-270" type="qcurve"/>
    </contour>
    <contour>
      <point x="550" y="892" type="qcurve"/>
      <point x="510" y="892"/>
      <point x="434" y="855"/>
      <point x="374" y="781"/>
      <point x="338" y="671"/>
      <point x="338" y="599" type="qcurve"/>
      <point x="726" y="599" type="line"/>
      <point x="726" y="677"/>
      <point x="698" y="789"/>
      <point x="650" y="859"/>
      <point x="586" y="892"/>
    </contour>
  </outline>
</glyph>
<glyph name="Hbar" format="2">
  <advance width="1504"/>
  <unicode hex="0126"/>
  <outline>
    <contour>
      <point x="132" y="1434" type="line"/>
      <point x="444" y="1464" type="line"/>
      <point x="444" y="1146" type="line"/>
      <point x="1060" y="1146" type="line"/>
      <point x="1060" y="1434" type="line"/>
      <point x="1372" y="1464" type="line"/>
      <point x="1372" y="1146" type="line"/>
      <point x="1472" y="1146" type="line"/>
      <point x="1448" y="1004" type="line"/>
      <point x="1372" y="1004" type="line"/>
      <point x="1372" y="0" type="line"/>
      <point x="1060" y="0" type="line"/>
      <point x="1060" y="575" type="line"/>
      <point x="444" y="575" type="line"/>
      <point x="444" y="0" type="line"/>
      <point x="132" y="0" type="line"/>
      <point x="132" y="1004" type="line"/>
      <point x="32" y="1004" type="line"/>
      <point x="56" y="1146" type="line"/>
      <point x="132" y="1146" type="line"/>
    </contour>
    <contour>
      <point x="1060" y="717" type="line"/>
      <point x="1060" y="1004" type="line"/>
      <point x="444" y="1004" type="line"/>
      <point x="444" y="717" type="line"/>
    </contour>
  </outline>
</glyph>
<glyph name="hbar" format="2">
  <advance width="1120"/>
  <unicode hex="0127"/>
  <outline>
    <contour>
      <point x="100" y="1464" type="line"/>
      <point x="322" y="1494" type="line"/>
      <point x="382" y="1494" type="line"/>
      <point x="382" y="1271" type="line"/>
      <point x="596" y="1271" type="line"/>
      <point x="571" y="1132" type="line"/>
      <point x="382" y="1140" type="line"/>
      <point x="382" y="925" type="line"/>
      <point x="435" y="963"/>
      <point x="571" y="1004"/>
      <point x="649" y="1004" type="qcurve"/>
      <point x="730" y="1004"/>
      <point x="864" y="960"/>
      <point x="960" y="877"/>
      <point x="1012" y="757"/>
      <point x="1012" y="680" type="qcurve"/>
      <point x="1012" y="172" type="line"/>
      <point x="1012" y="124"/>
      <point x="1040" y="82"/>
      <point x="1084" y="82" type="qcurve"/>
      <point x="1064" y="-30" type="line"/>
      <point x="969" y="-30"/>
      <point x="841" y="12"/>
      <point x="763" y="86"/>
      <point x="730" y="187"/>
      <point x="730" y="247" type="qcurve"/>
      <point x="730" y="724" type="line"/>
      <point x="730" y="763"/>
      <point x="702" y="825"/>
      <point x="657" y="868"/>
      <point x="603" y="892"/>
      <point x="577" y="892" type="qcurve"/>
      <point x="544" y="892"/>
      <point x="486" y="875"/>
      <point x="436" y="846"/>
      <point x="396" y="811"/>
      <point x="382" y="793" type="qcurve"/>
      <point x="382" y="0" type="line"/>
      <point x="100" y="0" type="line"/>
      <point x="100" y="1152" type="line"/>
      <point x="-36" y="1159" type="line"/>
      <point x="-16" y="1271" type="line"/>
      <point x="100" y="1271" type="line"/>
    </contour>
  </outline>
</glyph>
<glyph name="Iogonek" format="2">
  <advance width="576"/>
  <unicode hex="012E"/>
  <anchor x="288" y="1600" name="AccentDefault"/>
  <outline>
    <contour>
      <point x="470" y="-418" type="line"/>
      <point x="444" y="-431"/>
      <point x="377" y="-450"/>
      <point x="332" y="-450" type="qcurve"/>
      <point x="272" y="-450"/>
      <point x="184" y="-415"/>
      <point x="127" y="-356"/>
      <point x="100" y="-280"/>
      <point x="100" y="-239" type="qcurve"/>
      <point x="100" y="-211"/>
      <point x="112" y="-154"/>
      <point x="147" y="-94"/>
      <point x="211" y="-33"/>
      <point x="262" y="0" type="qcurve"/>
      <point x="132" y="0" type="line"/>
      <point x="132" y="1434" type="line"/>
      <point x="444" y="1464" type="line"/>
      <point x="444" y="0" type="line"/>
      <point x="391" y="-25"/>
      <point x="317" y="-77"/>
      <point x="272" y="-129"/>
      <point x="252" y="-182"/>
      <point x="252" y="-209" type="qcurve"/>
      <point x="252" y="-232"/>
      <point x="269" y="-269"/>
      <point x="298" y="-294"/>
      <point x="333" y="-308"/>
      <point x="351" y="-308" type="qcurve"/>
      <point x="382" y="-308"/>
      <point x="427" y="-284"/>
      <point x="444" y="-270" type="qcurve"/>
    </contour>
  </outline>
</glyph>
<glyph name="iogonek" format="2">
  <advance width="576"/>
  <unicode hex="012F"/>
  <outline>
    <contour>
      <point x="507" y="-418" type="line"/>
      <point x="481" y="-431"/>
      <point x="418" y="-440"/>
      <point x="389" y="-440" type="qcurve"/>
      <point x="329" y="-440"/>
      <point x="235" y="-408"/>
      <point x="171" y="-353"/>
      <point x="137" y="-280"/>
      <point x="137" y="-239" type="qcurve"/>
      <point x="137" y="-211"/>
      <point x="149" y="-155"/>
      <point x="183" y="-96"/>
      <point x="244" y="-35"/>
      <point x="294" y="-3" type="qcurve"/>
      <point x="217" y="25"/>
      <point x="147" y="147"/>
      <point x="147" y="245" type="qcurve"/>
      <point x="147" y="974" type="line"/>
      <point x="369" y="1004" type="line"/>
      <point x="429" y="1004" type="line"/>
      <point x="429" y="164" type="line"/>
      <point x="429" y="148"/>
      <point x="432" y="118"/>
      <point x="447" y="96"/>
      <point x="475" y="82"/>
      <point x="501" y="82" type="qcurve"/>
      <point x="481" y="-30" type="line"/>
      <point x="467" y="-30"/>
      <point x="440" y="-29"/>
      <point x="427" y="-28" type="qcurve"/>
      <point x="355" y="-70"/>
      <point x="299" y="-149"/>
      <point x="299" y="-189" type="qcurve"/>
      <point x="299" y="-212"/>
      <point x="317" y="-252"/>
      <point x="347" y="-281"/>
      <point x="386" y="-298"/>
      <point x="408" y="-298" type="qcurve"/>
      <point x="431" y="-298"/>
      <point x="464" y="-284"/>
      <point x="481" y="-270" type="qcurve"/>
    </contour>
    <contour>
      <point x="142" y="1288" type="qcurve"/>
      <point x="142" y="1318"/>
      <point x="165" y="1372"/>
      <point x="204" y="1411"/>
      <point x="258" y="1434"/>
      <point x="288" y="1434" type="qcurve"/>
      <point x="318" y="1434"/>
      <point x="372" y="1411"/>
      <point x="411" y="1372"/>
      <point x="434" y="1318"/>
      <point x="434" y="1288" type="qcurve"/>
      <point x="434" y="1258"/>
      <point x="411" y="1204"/>
      <point x="372" y="1165"/>
      <point x="318" y="1142"/>
      <point x="288" y="1142" type="qcurve"/>
      <point x="258" y="1142"/>
      <point x="204" y="1165"/>
      <point x="165" y="1204"/>
      <point x="142" y="1258"/>
    </contour>
  </outline>
</glyph>
<glyph name="dotlessi" format="2">
  <advance width="576"/>
  <unicode hex="0131"/>
  <outline>
    <contour>
      <point x="147" y="974" type="line"/>
      <point x="369" y="1004" type="line"/>
      <point x="429" y="1004" type="line"/>
      <point x="429" y="0" type="line"/>
      <point x="147" y="0" type="line"/>
    </contour>
  </outline>
</glyph>
<glyph name="kgreenlandic" format="2">
  <advance width="1024"/>
  <unicode hex="0138"/>
  <outline>
    <contour>
      <point x="100" y="974" type="line"/>
      <point x="322" y="1004" type="line"/>
      <point x="382" y="1004" type="line"/>
      <point x="382" y="571" type="line"/>
      <point x="815" y="1004" type="line"/>
      <point x="961" y="973" type="line"/>
      <point x="626" y="638" type="line"/>
      <point x="1024" y="0" type="line"/>
      <point x="734" y="-30" type="line"/>
      <point x="436" y="449" type="line"/>
      <point x="382" y="396" type="line"/>
      <point x="382" y="0" type="line"/>
      <point x="100" y="0" type="line"/>
    </contour>
  </outline>
</glyph>
<glyph name="Lslash" format="2">
  <advance width="1088"/>
  <unicode hex="0141"/>
  <outline>
    <contour>
      <point x="130" y="1434" type="line"/>
      <point x="442" y="1464" type="line"/>
      <point x="442" y="936" type="line"/>
      <point x="559" y="1004" type="line"/>
      <point x="593" y="813" type="line"/>
      <point x="442" y="725" type="line"/>
      <point x="442" y="122" type="line"/>
      <point x="1013" y="162" type="line"/>
      <point x="983" y="0" type="line"/>
      <point x="130" y="0" type="line"/>
      <point x="130" y="544" type="line"/>
      <point x="32" y="487" type="line"/>
      <point x="0" y="678" type="line"/>
      <point x="130" y="754" type="line"/>
    </contour>
  </outline>
</glyph>
<glyph name="lslash" format="2">
  <advance width="576"/>
  <unicode hex="0142"/>
  <outline>
    <contour>
      <point x="417" y="1494" type="line"/>
      <point x="417" y="935" type="line"/>
      <point x="536" y="1004" type="line"/>
      <point x="569" y="806" type="line"/>
      <point x="417" y="717" type="line"/>
      <point x="417" y="269" type="line"/>
      <point x="417" y="221"/>
      <point x="435" y="151"/>
      <point x="477" y="104"/>
      <point x="545" y="82"/>
      <point x="596" y="82" type="qcurve"/>
      <point x="576" y="-30" type="line"/>
      <point x="435" y="-30"/>
      <point x="261" y="13"/>
      <point x="167" y="103"/>
      <point x="135" y="244"/>
      <point x="135" y="342" type="qcurve"/>
      <point x="135" y="554" type="line"/>
      <point x="16" y="485" type="line"/>
      <point x="-17" y="683" type="line"/>
      <point x="135" y="771" type="line"/>
      <point x="135" y="1464" type="line"/>
      <point x="357" y="1494" type="line"/>
    </contour>
  </outline>
</glyph>
<glyph name="Eng" format="2">
  <advance width="1504"/>
  <unicode hex="014A"/>
  <outline>
    <contour>
      <point x="128" y="1434" type="line"/>
      <point x="290" y="1464" type="line"/>
      <point x="1214" y="437" type="line"/>
      <point x="1214" y="1464" type="line"/>
      <point x="1378" y="1434" type="line"/>
      <point x="1378" y="-76" type="line"/>
      <point x="1378" y="-198"/>
      <point x="1346" y="-358"/>
      <point x="1279" y="-452"/>
      <point x="1173" y="-490"/>
      <point x="1079" y="-490" type="qcurve"/>
      <point x="1099" y="-378" type="line"/>
      <point x="1151" y="-378"/>
      <point x="1214" y="-285"/>
      <point x="1214" y="-191" type="qcurve"/>
      <point x="1214" y="0" type="line"/>
      <point x="290" y="1026" type="line"/>
      <point x="290" y="0" type="line"/>
      <point x="128" y="0" type="line"/>
    </contour>
  </outline>
</glyph>
<glyph name="eng" format="2">
  <advance width="1120"/>
  <unicode hex="014B"/>
  <outline>
    <contour>
      <point x="100" y="944" type="line"/>
      <point x="322" y="974" type="line"/>
      <point x="382" y="974" type="line"/>
      <point x="382" y="892" type="line"/>
      <point x="408" y="914"/>
      <point x="472" y="955"/>
      <point x="544" y="986"/>
      <point x="620" y="1004"/>
      <point x="659" y="1004" type="qcurve"/>
      <point x="740" y="1004"/>
      <point x="871" y="960"/>
      <point x="963" y="877"/>
      <point x="1012" y="756"/>
      <point x="1012" y="680" type="qcurve"/>
      <point x="1012" y="-76" type="line"/>
      <point x="1012" y="-198"/>
      <point x="966" y="-358"/>
      <point x="869" y="-452"/>
      <point x="717" y="-490"/>
      <point x="595" y="-490" type="qcurve"/>
      <point x="615" y="-378" type="line"/>
      <point x="648" y="-378"/>
      <point x="693" y="-363"/>
      <point x="720" y="-322"/>
      <point x="730" y="-249"/>
      <point x="730" y="-191" type="qcurve"/>
      <point x="730" y="724" type="line"/>
      <point x="730" y="802"/>
      <point x="664" y="892"/>
      <point x="597" y="892" type="qcurve"/>
      <point x="564" y="892"/>
      <point x="499" y="868"/>
      <point x="441" y="832"/>
      <point x="395" y="789"/>
      <point x="382" y="770" type="qcurve"/>
      <point x="382" y="0" type="line"/>
      <point x="100" y="0" type="line"/>
    </contour>
  </outline>
</glyph>
<glyph name="OE" format="2">
  <advance width="1888"/>
  <unicode hex="0152"/>
  <outline>
    <contour>
      <point x="803" y="-30" type="qcurve"/>
      <point x="710" y="-30"/>
      <point x="530" y="17"/>
      <point x="368" y="106"/>
      <point x="230" y="236"/>
      <point x="129" y="402"/>
      <point x="72" y="602"/>
      <point x="72" y="717" type="qcurve"/>
      <point x="72" y="832"/>
      <point x="129" y="1032"/>
      <point x="230" y="1198"/>
      <point x="368" y="1328"/>
      <point x="531" y="1417"/>
      <point x="711" y="1464"/>
      <point x="803" y="1464" type="qcurve"/>
      <point x="855" y="1464"/>
      <point x="958" y="1448"/>
      <point x="1009" y="1434" type="qcurve"/>
      <point x="1787" y="1434" type="line"/>
      <point x="1759" y="1272" type="line"/>
      <point x="1245" y="1312" type="line"/>
      <point x="1245" y="839" type="line"/>
      <point x="1680" y="839" type="line"/>
      <point x="1659" y="717" type="line"/>
      <point x="1245" y="717" type="line"/>
      <point x="1245" y="122" type="line"/>
      <point x="1816" y="162" type="line"/>
      <point x="1787" y="0" type="line"/>
      <point x="1011" y="0" type="line"/>
      <point x="909" y="-30"/>
    </contour>
    <contour>
      <point x="803" y="1342" type="qcurve"/>
      <point x="715" y="1342"/>
      <point x="565" y="1256"/>
      <point x="456" y="1095"/>
      <point x="394" y="863"/>
      <point x="394" y="717" type="qcurve"/>
      <point x="394" y="571"/>
      <point x="456" y="339"/>
      <point x="565" y="178"/>
      <point x="715" y="92"/>
      <point x="803" y="92" type="qcurve"/>
      <point x="873" y="92"/>
      <point x="933" y="117" type="qcurve"/>
      <point x="933" y="1316" type="line"/>
      <point x="870" y="1342"/>
    </contour>
  </outline>
</glyph>
<glyph name="oe" format="2">
  <advance width="1824"/>
  <unicode hex="0153"/>
  <outline>
    <contour>
      <point x="1353" y="82" type="qcurve"/>
      <point x="1393" y="82"/>
      <point x="1462" y="109"/>
      <point x="1519" y="152"/>
      <point x="1565" y="206"/>
      <point x="1582" y="234" type="qcurve"/>
      <point x="1695" y="122" type="line"/>
      <point x="1666" y="90"/>
      <point x="1592" y="34"/>
      <point x="1499" y="-7"/>
      <point x="1388" y="-30"/>
      <point x="1323" y="-30" type="qcurve"/>
      <point x="1211" y="-30"/>
      <point x="1022" y="42"/>
      <point x="958" y="108" type="qcurve"/>
      <point x="893" y="42"/>
      <point x="701" y="-30"/>
      <point x="587" y="-30" type="qcurve"/>
      <point x="470" y="-30"/>
      <point x="283" y="47"/>
      <point x="152" y="185"/>
      <point x="82" y="374"/>
      <point x="82" y="487" type="qcurve"/>
      <point x="82" y="599"/>
      <point x="152" y="789"/>
      <point x="283" y="927"/>
      <point x="470" y="1004"/>
      <point x="587" y="1004" type="qcurve"/>
      <point x="702" y="1004"/>
      <point x="895" y="929"/>
      <point x="961" y="863" type="qcurve"/>
      <point x="1027" y="929"/>
      <point x="1219" y="1004"/>
      <point x="1333" y="1004" type="qcurve"/>
      <point x="1405" y="1004"/>
      <point x="1551" y="949"/>
      <point x="1668" y="827"/>
      <point x="1742" y="629"/>
      <point x="1742" y="487" type="qcurve"/>
      <point x="1101" y="487" type="line"/>
      <point x="1101" y="371"/>
      <point x="1148" y="215"/>
      <point x="1222" y="121"/>
      <point x="1311" y="82"/>
    </contour>
    <contour>
      <point x="587" y="892" type="qcurve"/>
      <point x="535" y="892"/>
      <point x="456" y="836"/>
      <point x="402" y="731"/>
      <point x="374" y="581"/>
      <point x="374" y="487" type="qcurve"/>
      <point x="374" y="393"/>
      <point x="402" y="243"/>
      <point x="456" y="138"/>
      <point x="535" y="82"/>
      <point x="587" y="82" type="qcurve"/>
      <point x="639" y="82"/>
      <point x="721" y="138"/>
      <point x="778" y="243"/>
      <point x="809" y="393"/>
      <point x="809" y="487" type="qcurve"/>
      <point x="809" y="581"/>
      <point x="778" y="731"/>
      <point x="721" y="836"/>
      <point x="639" y="892"/>
    </contour>
    <contour>
      <point x="1323" y="892" type="qcurve"/>
      <point x="1283" y="892"/>
      <point x="1204" y="855"/>
      <point x="1141" y="781"/>
      <point x="1101" y="671"/>
      <point x="1101" y="599" type="qcurve"/>
      <point x="1499" y="599" type="line"/>
      <point x="1499" y="677"/>
      <point x="1471" y="789"/>
      <point x="1423" y="859"/>
      <point x="1359" y="892"/>
    </contour>
  </outline>
</glyph>
<glyph name="Scedilla" format="2">
  <advance width="1152"/>
  <unicode hex="015E"/>
  <outline>
    <contour>
      <point x="1024" y="1235" type="qcurve"/>
      <point x="902" y="1113" type="line"/>
      <point x="881" y="1153"/>
      <point x="823" y="1229"/>
      <point x="751" y="1287"/>
      <point x="665" y="1322"/>
      <point x="616" y="1322" type="qcurve"/>
      <point x="582" y="1322"/>
      <point x="514" y="1296"/>
      <point x="460" y="1247"/>
      <point x="426" y="1177"/>
      <point x="426" y="1134" type="qcurve"/>
      <point x="426" y="1084"/>
      <point x="452" y="1005"/>
      <point x="515" y="938"/>
      <point x="619" y="880"/>
      <point x="697" y="852" type="qcurve"/>
      <point x="874" y="788"/>
      <point x="1054" y="570"/>
      <point x="1054" y="409" type="qcurve"/>
      <point x="1054" y="330"/>
      <point x="997" y="187"/>
      <point x="892" y="72"/>
      <point x="743" y="-7"/>
      <point x="650" y="-22" type="qcurve"/>
      <point x="631" y="-72" type="line"/>
      <point x="654" y="-75"/>
      <point x="716" y="-102"/>
      <point x="772" y="-149"/>
      <point x="811" y="-217"/>
      <point x="811" y="-262" type="qcurve"/>
      <point x="811" y="-318"/>
      <point x="768" y="-403"/>
      <point x="693" y="-461"/>
      <point x="594" y="-490"/>
      <point x="538" y="-490" type="qcurve"/>
      <point x="489" y="-490"/>
      <point x="411" y="-467"/>
      <point x="351" y="-433"/>
      <point x="309" y="-393"/>
      <point x="296" y="-375" type="qcurve"/>
      <point x="378" y="-266" type="line"/>
      <point x="395" y="-311"/>
      <point x="451" y="-369"/>
      <point x="497" y="-369" type="qcurve"/>
      <point x="520" y="-369"/>
      <point x="561" y="-348"/>
      <point x="591" y="-313"/>
      <point x="609" y="-267"/>
      <point x="609" y="-243" type="qcurve"/>
      <point x="609" y="-204"/>
      <point x="581" y="-153"/>
      <point x="533" y="-124"/>
      <point x="470" y="-113"/>
      <point x="435" y="-113" type="qcurve"/>
      <point x="467" y="-24" type="line"/>
      <point x="403" y="-15"/>
      <point x="290" y="31"/>
      <point x="194" y="93"/>
      <point x="117" y="164"/>
      <point x="88" y="199" type="qcurve"/>
      <point x="210" y="321" type="line"/>
      <point x="238" y="278"/>
      <point x="310" y="202"/>
      <point x="395" y="145"/>
      <point x="493" y="112"/>
      <point x="547" y="112" type="qcurve"/>
      <point x="603" y="112"/>
      <point x="691" y="147"/>
      <point x="751" y="208"/>
      <point x="782" y="289"/>
      <point x="782" y="336" type="qcurve"/>
      <point x="782" y="384"/>
      <point x="748" y="468"/>
      <point x="675" y="543"/>
      <point x="560" y="608"/>
      <point x="479" y="637" type="qcurve"/>
      <point x="410" y="662"/>
      <point x="295" y="738"/>
      <point x="211" y="841"/>
      <point x="164" y="971"/>
      <point x="164" y="1051" type="qcurve"/>
      <point x="164" y="1138"/>
      <point x="232" y="1289"/>
      <point x="354" y="1400"/>
      <point x="519" y="1464"/>
      <point x="617" y="1464" type="qcurve"/>
      <point x="692" y="1464"/>
      <point x="816" y="1425"/>
      <point x="916" y="1361"/>
      <point x="995" y="1278"/>
    </contour>
  </outline>
</glyph>
<glyph name="scedilla" format="2">
  <advance width="864"/>
  <unicode hex="015F"/>
  <outline>
    <contour>
      <point x="147" y="234" type="line"/>
      <point x="173" y="187"/>
      <point x="230" y="128"/>
      <point x="289" y="94"/>
      <point x="348" y="82"/>
      <point x="377" y="82" type="qcurve"/>
      <point x="408" y="82"/>
      <point x="472" y="101"/>
      <point x="523" y="140"/>
      <point x="555" y="201"/>
      <point x="555" y="242" type="qcurve"/>
      <point x="555" y="300"/>
      <point x="461" y="378"/>
      <point x="367" y="413" type="qcurve"/>
      <point x="317" y="431"/>
      <point x="223" y="489"/>
      <point x="149" y="568"/>
      <point x="104" y="671"/>
      <point x="104" y="735" type="qcurve"/>
      <point x="104" y="797"/>
      <point x="152" y="897"/>
      <point x="238" y="967"/>
      <point x="355" y="1004"/>
      <point x="423" y="1004" type="qcurve"/>
      <point x="490" y="1004"/>
      <point x="599" y="983"/>
      <point x="689" y="944"/>
      <point x="766" y="888"/>
      <point x="802" y="852" type="qcurve"/>
      <point x="687" y="740" type="line"/>
      <point x="644" y="819"/>
      <point x="529" y="892"/>
      <point x="466" y="892" type="qcurve"/>
      <point x="446" y="892"/>
      <point x="404" y="875"/>
      <point x="369" y="840"/>
      <point x="346" y="788"/>
      <point x="346" y="753" type="qcurve"/>
      <point x="346" y="723"/>
      <point x="374" y="673"/>
      <point x="417" y="634"/>
      <point x="468" y="606"/>
      <point x="492" y="597" type="qcurve"/>
      <point x="573" y="567"/>
      <point x="691" y="499"/>
      <point x="769" y="417"/>
      <point x="807" y="319"/>
      <point x="807" y="260" type="qcurve"/>
      <point x="807" y="203"/>
      <point x="763" y="109"/>
      <point x="685" y="37"/>
      <point x="580" y="-11"/>
      <point x="520" y="-21" type="qcurve"/>
      <point x="501" y="-72" type="line"/>
      <point x="524" y="-75"/>
      <point x="586" y="-102"/>
      <point x="642" y="-149"/>
      <point x="681" y="-217"/>
      <point x="681" y="-262" type="qcurve"/>
      <point x="681" y="-318"/>
      <point x="638" y="-403"/>
      <point x="563" y="-461"/>
      <point x="464" y="-490"/>
      <point x="408" y="-490" type="qcurve"/>
      <point x="359" y="-490"/>
      <point x="281" y="-467"/>
      <point x="221" y="-433"/>
      <point x="179" y="-393"/>
      <point x="166" y="-375" type="qcurve"/>
      <point x="248" y="-266" type="line"/>
      <point x="265" y="-311"/>
      <point x="321" y="-369"/>
      <point x="367" y="-369" type="qcurve"/>
      <point x="390" y="-369"/>
      <point x="431" y="-348"/>
      <point x="461" y="-313"/>
      <point x="479" y="-267"/>
      <point x="479" y="-243" type="qcurve"/>
      <point x="479" y="-204"/>
      <point x="451" y="-153"/>
      <point x="403" y="-124"/>
      <point x="340" y="-113"/>
      <point x="305" y="-113" type="qcurve"/>
      <point x="337" y="-25" type="line"/>
      <point x="244" y="-15"/>
      <point x="99" y="56"/>
      <point x="34" y="122" type="qcurve"/>
    </contour>
  </outline>
</glyph>
<glyph name="Tcommaaccent" format="2">
  <advance width="1152"/>
  <unicode hex="0162"/>
  <guideline x="619" y="0" angle="90"/>
  <outline>
    <contour>
      <point x="30" y="1434" type="line" name="at01"/>
      <point x="1150" y="1434" type="line" name="ah02"/>
      <point x="1122" y="1272" type="line" name="sv01"/>
      <point x="732" y="1312" type="line" name="sv03"/>
      <point x="732" y="0" type="line" name="dh02"/>
      <point x="602" y="0" type="line" name="sh01"/>
      <point x="575" y="-72" type="line"/>
      <point x="598" y="-75"/>
      <point x="660" y="-102"/>
      <point x="716" y="-149"/>
      <point x="755" y="-217"/>
      <point x="755" y="-262" type="qcurve" name="sh02"/>
      <point x="755" y="-318"/>
      <point x="712" y="-403"/>
      <point x="637" y="-461"/>
      <point x="538" y="-490"/>
      <point x="482" y="-490" type="qcurve" name="ab01"/>
      <point x="433" y="-490"/>
      <point x="355" y="-467"/>
      <point x="295" y="-433"/>
      <point x="253" y="-393"/>
      <point x="240" y="-375" type="qcurve" name="ah03"/>
      <point x="322" y="-266" type="line" name="av01"/>
      <point x="339" y="-310"/>
      <point x="395" y="-369"/>
      <point x="441" y="-369" type="qcurve" name="sv04"/>
      <point x="464" y="-369"/>
      <point x="505" y="-348"/>
      <point x="535" y="-313"/>
      <point x="553" y="-267"/>
      <point x="553" y="-243" type="qcurve" name="ih01"/>
      <point x="553" y="-204"/>
      <point x="525" y="-153"/>
      <point x="477" y="-124"/>
      <point x="414" y="-113"/>
      <point x="379" y="-113" type="qcurve"/>
      <point x="420" y="0" type="line" name="dh01"/>
      <point x="420" y="1313" type="line" name="sv02"/>
      <point x="2" y="1271" type="line" name="ah01"/>
    </contour>
  </outline>
</glyph>
